<svg id="data" xmlns="http://www.w3.org/2000/svg" viewBox="0 0 4005.18 2912.78"><defs><style>.cls-1{fill:#dbdcdc;}.cls-2{fill:#71c6d2;}.cls-3{fill:#fff;}.cls-4{fill:#878787;}.cls-5{fill:#5c5c5c;}.cls-6{fill:#f7b200;}.cls-7{fill:#e3e3e3;}.cls-8{fill:#231815;}.cls-9{fill:none;stroke:#231815;stroke-linecap:round;stroke-linejoin:round;stroke-width:19.84px;}</style></defs><path class="cls-1" d="M3355,231.43l.08,0c.31-.12.61-.25.92-.36,1-.37,2-.71,3-1a57.33,57.33,0,0,1,6.07-1.53c.51-.1,1-.19,1.54-.27,1.22-.19,1-.17-.59.05a14.11,14.11,0,0,1,3.12-.3,56.67,56.67,0,0,1,6.25-.08c1,0,2.08.15,3.12.22l.28,0,.68.11c1.61.28,3.18.7,4.76,1.12,14.62,32.45,23.47,67.23,28.36,102.45,5.37,38.7,7.61,79.38,5.11,118.4-1.93,30-9.7,63.53,13.16,87.58,9.73,10.25,22,17.57,32.62,26.83,11.89,10.4,18.87,24,21.53,39.56,5.33,31.1-4.35,71.62-25.09,95.79-21.26,24.78-55.51,23-80.76,5.16-28-19.71-37.13-55.87-37.21-88.38-.1-39.12,12.22-76.68,20.19-114.61,18.69-88.91,2-177.53-16.9-264.85A65.16,65.16,0,0,1,3355,231.43Z" transform="translate(-508.63 -42.71)"/><path class="cls-2" d="M3056.05,2780.65c-19-.38-37.9-1.23-56.83-2.33,23.71-117.79-7.92-252.36-92.08-340a84.32,84.32,0,0,0-12.09-10.36q45-5.19,90-10.78a12,12,0,0,0,6.26-.82l4.39-.57c4.55,7.12,17.38,8.07,19.78-2.42l0-.18q156.47-20.34,312.11-46.43,69.38-11.74,138.55-24.68c6.56-1.23,8.64-6.61,7.6-11.66a286.19,286.19,0,0,1,220.32,38.85c11.82,7.71,22.79-11.21,11-18.88-50.83-33.16-111-50-171.17-49.18a11.2,11.2,0,0,0,2.3-5.87,134,134,0,0,1,23.27-63c13-18.84,30.86-29.78,48-44.13,19.1-16,21.2-37.23,23.53-60.57q4-40,10-79.69a1619.08,1619.08,0,0,1,76.53-302.21,1598.43,1598.43,0,0,1,68.56-162.19c6.15-12.6-12.7-23.69-18.88-11a1640.12,1640.12,0,0,0-111.08,296.53q-20.67,77.43-33.61,156.65-6.27,38.41-10.74,77.12c-2.86,24.76.08,54.06-21.14,71-19.62,15.72-38,28.86-52,50.35s-21.83,45.77-24.3,71.1a9.39,9.39,0,0,0,1.59,6.62,301.3,301.3,0,0,0-64.57,11.73,10.25,10.25,0,0,0-7.63,10.27q-210.66,38.91-423.16,66.71c45.57-200.84,87.19-403.05,171-592.3a1565,1565,0,0,1,79-154.71,10.28,10.28,0,0,0,1.36-7.2,1266.47,1266.47,0,0,1,116.13-101.06c37.13-28.69,74.35-58.26,101.13-97.35,24.79-36.16,37.73-79.79,39-123.46a242.51,242.51,0,0,0-.76-25.29c1.06,1.81,2.08,3.65,3.19,5.44,15.48,24.88,36.48,45.47,60.48,62.12a278.06,278.06,0,0,0,41,23.34,460.73,460.73,0,0,0-117.66,61.57,12.43,12.43,0,0,0-9.1,6.63q-9.77,7.42-19.19,15.36c-10.74,9.12,4.79,24.52,15.46,15.46,3.42-2.89,6.95-5.62,10.44-8.4a819.53,819.53,0,0,0,49.54,82.47l-89.12,62.82c-29.74,21-59.08,41.6-86.56,65.56a812,812,0,0,0-96.67,100.18,832.09,832.09,0,0,0-88.06,132.52c-6.63,12.41,12.24,23.47,18.88,11a807.07,807.07,0,0,1,168.48-216.84c44.59-40.6,94.93-73.55,144.1-108.2l49.49-34.88c4.51-3.18,7.55-9.79,3.92-15a817.78,817.78,0,0,1-56.32-93,435.52,435.52,0,0,1,121.78-60.88,10.42,10.42,0,0,0,6.56-5.56c37.83,14.11,78,22.51,117.4,30.56,12.58,2.57,18.31-12.65,8.43-20-27.21-20.17-16.28-62.89-15-91,1.55-34.78-10.33-67.89-22.22-100-2.37-6.41-4.88-12.9-7.54-19.37a1160,1160,0,0,0,109.11,62c40.1,19.91,81.81,35.36,122.71,53.38,5.68,2.49,11.15,5.25,16.54,8.11-9.64,7.15-18.15,17.42-25.32,24.83q-25.52,26.43-49.44,54.32c-3.84,4.47-4.39,11.06,0,15.46,3.94,3.93,11.6,4.5,15.46,0q21-24.43,43.17-47.77,10.93-11.49,22.18-22.7c2.9-2.9,5.76-5.93,9.22-8.17,2.15-1.4,5.61-3.22,7-2.55l.07,0c44.32,30.11,76.56,73.77,93.54,126.33,20.05,62.1,21.17,128.56,19.53,193.2-1.95,77-4.5,154.38-13.17,231-20.12,177.55-69.15,351.23-135.11,517q-25.11,63.1-53.55,124.83-14.07,30.64-28.87,60.95c-8.33,17-17.11,34.22-29.27,48.81-28.35,34-76,38.12-116.55,48-45.66,11-91.34,22-137.15,32.4C3427.67,2751.8,3242.92,2784.32,3056.05,2780.65Z" transform="translate(-508.63 -42.71)"/><path class="cls-2" d="M2956.61,692.88a10.64,10.64,0,0,0-6-1.84,11.1,11.1,0,0,0-7.73,3.2,11,11,0,0,0-3.2,7.73,118.55,118.55,0,0,0,2.5,18.85c1.48,6.81,3.21,14.86,9.69,18.67,7.73,4.55,17.51.69,21.13-7.23a21.59,21.59,0,0,0,2.34-10.35A37.58,37.58,0,0,0,2963,695.8,12,12,0,0,0,2956.61,692.88Z" transform="translate(-508.63 -42.71)"/><path class="cls-2" d="M2782,732.75a12,12,0,0,0-6.4-2.92,10.68,10.68,0,0,0-6-1.83,11,11,0,0,0-7.73,3.2,10.88,10.88,0,0,0-3.2,7.73,117.12,117.12,0,0,0,2.49,18.84c1.48,6.81,3.21,14.86,9.69,18.67,7.73,4.55,17.51.7,21.13-7.22a21.76,21.76,0,0,0,2.35-10.35A37.75,37.75,0,0,0,2782,732.75Z" transform="translate(-508.63 -42.71)"/><path class="cls-2" d="M2904.25,910.83c13.21-4.58,7.53-25.7-5.81-21.08-15.34,5.31-32.7,8.42-48.92,5.65-7.68-1.31-7.86-3.63-7.91-10.86q-.09-14-.13-28.08-.27-54.59-.53-109.19c-.07-14.06-21.94-14.09-21.87,0q.32,65.52.64,131c0,8.63-1,18.37,3.91,26,4.49,7,12.49,10.8,20.45,12.24C2864,920.15,2885.27,917.4,2904.25,910.83Z" transform="translate(-508.63 -42.71)"/><path class="cls-2" d="M2901.28,646.59c30.63-18.88,68.9-13.84,102.81-9.46,5.87.76,10.94-5.56,10.94-10.93,0-6.54-5.05-10.17-10.94-10.93-38.08-4.92-79.62-8.66-113.84,12.44C2878.29,635.08,2889.26,654,2901.28,646.59Z" transform="translate(-508.63 -42.71)"/><path class="cls-2" d="M3027.39,950.3c-27.11,7.68-54.16,15.62-81.37,23-26.84,7.23-53.91,12.9-81.84,11.37-14.06-.77-14,21.1,0,21.86.27,0,.54,0,.82,0a10.12,10.12,0,0,0,3,4.43,221.7,221.7,0,0,0,50.47,33.89c17,8.15,35.9,16,54.63,8.9,17.16-6.46,29.21-20.83,39.59-35.32a221.73,221.73,0,0,0,28.13-54.65C3043.7,955.76,3035,948.16,3027.39,950.3Z" transform="translate(-508.63 -42.71)"/><path class="cls-2" d="M2967.12,1032.68c-14.12,6-30.36-2.92-42.8-9.33a200.64,200.64,0,0,1-28.33-17.81c17.81-1.88,35.43-5.78,52.75-10.38,21-5.57,41.83-11.57,62.69-17.55A201.93,201.93,0,0,1,2998,1001.3C2990.23,1013,2980.55,1026.94,2967.12,1032.68Z" transform="translate(-508.63 -42.71)"/><path class="cls-2" d="M3578.37,1862.2c-1.12-10.17-2.86-20.68-14.53-23.38-12.68-2.93-29.38.76-42.22,1.73a1254.45,1254.45,0,0,0-166.16,23.92c-6.43-1.92-14.45,1.37-14.07,10q2.43,55.85,7,111.55c.43,5.36,4.68,11.66,10.93,10.93A2109.15,2109.15,0,0,0,3575,1960.52a10.55,10.55,0,0,0,4.52-2.17c4.71-.68,8.65-4.09,8-10.3C3584.44,1919.44,3581.51,1890.81,3578.37,1862.2Z" transform="translate(-508.63 -42.71)"/><path class="cls-2" d="M3556.31,1859.49c-.23-.48-.14-.84,0,0Z" transform="translate(-508.63 -42.71)"/><path class="cls-3" d="M3540.63,1861.13c5.24-.31,10.52-.76,15.77-.85,0,.48.08,1.08.1,1.92.08,3.53.77,7.21,1.14,10.73q3.59,33.72,7.15,67.42-96.87,21.4-195.45,33.41-3.42-44.31-5.53-88.72a1209.56,1209.56,0,0,1,140.92-21.24Q3522.66,1862.2,3540.63,1861.13Z" transform="translate(-508.63 -42.71)"/><path class="cls-2" d="M2244.38,2226.11c37,7.43,65.09,35.15,87.17,64.28,23.85,31.47,44.94,71,38.55,111.71-2.16,13.77,18.9,19.7,21.08,5.82,7.41-47.22-12.86-91.52-40.75-128.56-25.27-33.57-57.55-65.76-100.24-74.33C2236.45,2202.27,2230.57,2223.34,2244.38,2226.11Z" transform="translate(-508.63 -42.71)"/><path class="cls-2" d="M2193.92,2666.34q-268.15,27.9-537.87,35.2c-14,.38-14.1,22.25,0,21.87q269.51-7.29,537.87-35.21C2207.77,2686.76,2207.92,2664.88,2193.92,2666.34Z" transform="translate(-508.63 -42.71)"/><path class="cls-2" d="M2792.46,1213.53h0C2793.49,1214.73,2792.75,1214,2792.46,1213.53Z" transform="translate(-508.63 -42.71)"/><path class="cls-4" d="M2814.26,1173.37c13.52-.43,27.71,2.78,41,5,8.07,1.31,16.2,2.7,24.15,4.67.63.15,2.08.63,2.85.74-1.15,1.52-1.36,7.41-1.77,9.21a206.4,206.4,0,0,1-6.26,22A116.12,116.12,0,0,1,2870,1226c-.16.34-.49,1-.68,1.39h-.62c-13-.16-26.11,0-39.12-1.1-1.75-.16-3.5-.34-5.24-.54-.14,0-1.78-.24-2-.26l-1.28-.2c-3.66-.63-7.3-1.32-10.88-2.29q-2.34-.63-4.63-1.39c-.5-.18-2.88-1.14-3.2-1.23-1.13-.53-2.26-1.06-3.35-1.68-.5-.28-1-.57-1.49-.87l-1.65-1.11c-.45-.4-1.67-1.43-2-1.77-.49-.49-.95-1-1.41-1.53-.56-.89-1.06-1.8-1.55-2.72.16,0-.91-2.91-1.08-3.62,0-.06,0-.07,0-.13v0c-.05-.77-.1-1.54-.11-2.32,0-.61.23-3.43.19-3.6a49.56,49.56,0,0,1,3.43-11.85C2797.13,1180.34,2804.29,1173.69,2814.26,1173.37Z" transform="translate(-508.63 -42.71)"/><path class="cls-2" d="M3643.87,719.89c17.07,92.63,15,187.52,29.38,280.54,5.95,38.4,13.41,76.54,19.85,114.86-12-12.43-26.18-22.68-43.11-29.41-1.7-.67-3.4-1.24-5.11-1.82-5.16-20-8.38-40.54-10.82-61.08-1.38-11.68-2.57-23.38-3.81-35.08-1.06-10-.36-23.76-7.88-31.48-8.8-9-21.63-4.4-32.26-2.12-11.68,2.51-23.33,5.23-34.88,8.32a456.18,456.18,0,0,0-60.95,21.17A499.35,499.35,0,0,1,3454,792.6a11.55,11.55,0,0,0-.5-3.16,133.8,133.8,0,0,0,22.4-11.55c50.48-32.69,70-93.07,64.71-151.1a182.45,182.45,0,0,0-21-70.13c.13-.31.3-.57.42-.9,5.73-16.3,11.37-32.73,16.08-49.39C3599.75,557.63,3629.51,642,3643.87,719.89Z" transform="translate(-508.63 -42.71)"/><path class="cls-4" d="M3387.44,805.6c-.13-.31-.14-.31-.22-.48s0-.09,0-.15v.09c-.22-.47-.28-.5,0,.32,0,.3,0,.61,0,.91-.08-.51-.44,1.63-.42,2,0,.06,0,0,0,.07-.15.29-.28.58-.44.87a25.88,25.88,0,0,1-1.42,2.21c1.52-2.14-.88.69-1.23,1.08a1,1,0,0,0-.23.32,2.18,2.18,0,0,0-.33.16c-.61.35-1.2.7-1.81,1a28.52,28.52,0,0,0-2.9,1s-1.73.35-2,.45a38.23,38.23,0,0,1-7.41.07c-.13,0-1.8-.2-2.11-.22-1.36-.21-2.73-.47-4.08-.76-2.23-.48-4.45-1-6.64-1.66-1.84-.53-3.64-1.15-5.43-1.82-.26-.14-1.73-.75-2-.9-1-.51-2-1.05-2.94-1.65-.33-.21-1-.71-1.3-.88-.81-.71-1.56-1.47-2.35-2.21a1.52,1.52,0,0,0-.4-.31,2.35,2.35,0,0,0-.24-.49c-.15-.28-.78-1.72-.92-1.87-.14-.52-.28-1.06-.32-1.18s0-.06,0-.11v-.06c0-.48-.33-2.78.06-3.09-.06.46-.12.93-.17,1.39.09-.5.2-1,.33-1.48.08-.3.08-.35.12-.53s.32-.63.51-.94h0l.21-.21c.12-.08.24-.16.37-.23a11.94,11.94,0,0,0,7.26-7.84,136,136,0,0,0,37.53,10A13.92,13.92,0,0,0,3387.44,805.6Z" transform="translate(-508.63 -42.71)"/><path class="cls-5" d="M3348.22,764c-44.12-23.93-64-71.67-61.82-120.38,1.11-24.5,7.84-49.43,17.23-72,7.23-17.4,17-34.23,31-46.86-14.93,65-31.81,146.63,26.21,193.81,23.87,19.4,57.7,28.89,87.06,16.8,32.64-13.44,49.21-49.47,56.35-82,7.23-32.9,5.31-71.1-18.28-97.32-10.35-11.5-24.14-19.21-35.49-29.61a40.22,40.22,0,0,1-10.21-14.06c87.72,34,107.77,173.63,38.54,236A114.38,114.38,0,0,1,3348.22,764Z" transform="translate(-508.63 -42.71)"/><path class="cls-4" d="M3355,231.43l.08,0c.31-.12.61-.25.92-.36,1-.37,2-.71,3-1a57.33,57.33,0,0,1,6.07-1.53c.51-.1,1-.19,1.54-.27,1.22-.19,1-.17-.59.05a14.11,14.11,0,0,1,3.12-.3,56.67,56.67,0,0,1,6.25-.08c1,0,2.08.15,3.12.22l.28,0,.68.11c1.61.28,3.18.7,4.76,1.12,14.62,32.45,23.47,67.23,28.36,102.45,5.37,38.7,7.61,79.38,5.11,118.4-1.93,30-9.7,63.53,13.16,87.58,9.73,10.25,22,17.57,32.62,26.83,11.89,10.4,18.87,24,21.53,39.56,5.33,31.1-4.35,71.62-25.09,95.79-21.26,24.78-55.51,23-80.76,5.16-28-19.71-37.13-55.87-37.21-88.38-.1-39.12,12.22-76.68,20.19-114.61,18.69-88.91,2-177.53-16.9-264.85A65.16,65.16,0,0,1,3355,231.43Z" transform="translate(-508.63 -42.71)"/><path class="cls-2" d="M3504.67,354.84c15.21,29.69,23.14,60.69,20.49,94.16-2.31,29.1-11.12,57.33-20.66,84.91-17.06-21.48-39.8-37.95-67.75-45.73,0-1.51.06-3,.14-4.58,1-22,3.24-43.5,3.05-65.53a725.42,725.42,0,0,0-4.14-75c-4.67-41.33-14-81.71-30.52-119.78C3445.09,261.45,3479.54,305.75,3504.67,354.84Z" transform="translate(-508.63 -42.71)"/><path class="cls-4" d="M3240.48,84.28c57.45,24.83,103.87,69.53,137.11,122a66.68,66.68,0,0,0-38.64,9C3280.23,125.41,3173.76,73,3067.36,78.43,3122.73,57.56,3186.05,60.75,3240.48,84.28Z" transform="translate(-508.63 -42.71)"/><path class="cls-2" d="M2688.64,563.22A459.2,459.2,0,0,1,2707,406.7c29.56-100.38,93.28-193.78,180.91-252.1,40.5-27,87.73-49.32,136.47-57.29a11.19,11.19,0,0,0,12.25,6.19c109.9-19.8,227.53,33.18,286.68,127.56a11,11,0,0,0-.4,6.26c18.45,85,35,170.44,18.42,256.8a11.08,11.08,0,0,0-3.67,1.34c-25.88,15.06-43.68,40.85-55.34,69.31a9.78,9.78,0,0,0-8.17-3.64c-49.33.78-90.68-30.81-127.58-60-9.53-7.54-23,1.59-17.17,13.25,10.53,21,21.9,41.52,33.92,61.67-94.69-76.05-146.69-193.54-184.62-307.15-4.44-13.28-25.56-7.59-21.09,5.81,38.39,115,91.09,232.72,184.41,311.79-99.74-31.72-186.68-100.78-239-191.91-17.78-30.94-36-67.43-34-104.14.95-2.05,1.75-4.13,2.74-6.16,5.14-10.6-7.35-20.08-15.12-15.31-3.88.27-7.28,2.69-8,7.9-.32,2.4-.39,4.76-.58,7.15-54.27,121.06-41.41,256.13-26.41,384.59l-.19.06a10.17,10.17,0,0,0-4.85-6.21c-13.93-8.3-28.26-16.8-35.91-31.75-7.43-14.52-9.32-31.92-11.29-47.9a531.06,531.06,0,0,1-1.68-111.6c1.23-14-20.64-13.94-21.87,0a544.56,544.56,0,0,0,3.6,126c2.51,17.31,5.88,35.36,15.68,50.23,6.33,9.6,14.88,16.93,24.13,23.4-19.26-3.07-37.52-13.38-47.85-29.91-9.48-15.16-14.45-33.67-18.34-51a251,251,0,0,1-5.92-57.51c.12-14.08-21.75-14.09-21.87,0a276.57,276.57,0,0,0,7.62,67.27c4.84,20,11.28,41.84,23.95,58.4a83.09,83.09,0,0,0,10.8,11.55,13.52,13.52,0,0,0-1.07,1.19l-5.84,9.18C2694.39,659.81,2690.75,599.06,2688.64,563.22Z" transform="translate(-508.63 -42.71)"/><path class="cls-3" d="M2975.92,1125.27c-34.68-31.83-67.92-65.38-101.78-98.09-31.9-30.82-64.14-62.43-85-102.07-23.83-45.18-31.06-97-29.88-147.53a10.46,10.46,0,0,0-1.24-5.33,541.5,541.5,0,0,0-12.39-73.45c-.07-.28-.28-.47-.36-.73,0-.1.07-.19.1-.29s.12-.11.17-.19q4.93-7.76,9.86-15.51c23.23,12.58,51.89,15.9,76.28,6.46a12.69,12.69,0,0,0,7.14-6.52c3.38-1.42,5.77-4.56,5.19-9.51-13.13-112-26.72-231.37,8.53-340.1,4.46,17.44,11.49,34.37,19.64,50.86a430.09,430.09,0,0,0,51.92,80.26,448.49,448.49,0,0,0,150.73,119.72A435.56,435.56,0,0,0,3178,618.56a11,11,0,0,0,6.71-.62c3.65,2.33,7.19,4.78,10.95,7,9.05,5.32,21.24-5.66,15-15-13.86-20.54-26.8-41.64-39-63.16,30.76,20.75,64.35,36.78,102.52,36.18a11.19,11.19,0,0,0,1.68-.2A264.52,264.52,0,0,0,3266.2,626c-7.71,56.77,10.64,116,59.08,149.54,1.41,1,2.87,1.82,4.3,2.73-7,4.62-10.93,12.42-11.29,21.19-.46,11.23,5.95,20.6,14.81,26.86,8.4,5.92,19.45,8.87,29.51,10.3,12.66,1.79,25.34.6,35.49-7.84a31.81,31.81,0,0,0,9.74-14.75,25.62,25.62,0,0,0,.14-14.79,135.73,135.73,0,0,0,24.22-3.18,524.11,524.11,0,0,0,69.91,252.24c-18.25,7-41.48,6.1-59.21,6.41-19.29.33-41.1-2.11-60,1.77-15.47,3.17-21.9,17.85-28.74,30.47-15.39,28.4-28.47,58.39-47.52,84.64s-47,41.58-75.74,55.56c-16.65,8.11-33.63,15.56-50.07,24.07-1.38.72-2.76,1.57-4.18,2.2-3.67,1.62-4.44,2.91-5.76-.76a11.53,11.53,0,0,1-.54-3.27c6.61,2.84,15.79-.27,15.35-9.49-2.35-49.64-24.51-93.56-56-130.84a318.72,318.72,0,0,0,65.16-65.33c8.39-11.32-10.58-22.23-18.87-11a294.22,294.22,0,0,1-97,83.64c-16.68,9-34.06,18.74-52.08,24.66C3006,1147.91,2991.37,1139.45,2975.92,1125.27Z" transform="translate(-508.63 -42.71)"/><path class="cls-6" d="M3052.61,1207.57c3.09-7.6,9.88-14.21,14.87-20.64l36.09-46.41a11.68,11.68,0,0,0,.38-13.89c2.6-1.6,5.22-3.18,7.77-4.85,18.76,21.81,34.16,46.33,43.26,73.2a9.8,9.8,0,0,0-6.15,9.48q0,16.55.07,33.1c0,8.52-.87,17.92,2,26.13,7,20.15,26.71,13.82,40.95,6.45,32.91-17,68.49-29.89,98.64-51.82,29.14-21.2,47.06-52.24,63.47-83.62,8.35-16,16.23-32.26,25.32-47.85,2.28-3.91,3.54-6.73,7.66-8.45,5-2.07,12.44-1,17.73-1.12l38.25-.67c35.71-.62,80.83-.63,101-35.92,7-12.23-11.88-23.26-18.88-11a39.67,39.67,0,0,1-4.73,6.48q-9.14-16-17.1-32.56a423.72,423.72,0,0,1,54.19-18.87c9.81-2.71,19.69-5.12,29.61-7.36q7.68-1.73,15.38-3.32c.22,0,2.56-.45,4.34-.79a9.33,9.33,0,0,1,.21,1.39c3.15,20.19,4.16,40.79,6.85,61.05,1.91,14.44,4.19,28.83,7.3,43-29.29-3.47-59.69,3-88.19,9.38a9.33,9.33,0,0,0-7.73,8.35,131.78,131.78,0,0,0-15.47-.44c-14,.46-14.09,22.33,0,21.86,68.08-2.26,114.85,55.85,152.42,104.66,3.62,4.71,9.36,7.11,15,3.92,4.64-2.63,7.52-10.28,3.93-15-32.26-41.9-70.2-88.25-120.23-107,22.88-4.37,46.31-6.79,68.37-1.87a10.78,10.78,0,0,0,8.1,2.18,89.67,89.67,0,0,1,24.75,12.1c15.91,11.13,28.14,26.61,38.11,43.51a8.77,8.77,0,0,0,3.58,6.21,324.43,324.43,0,0,1,15.42,32.9c15.58,38.15,30.56,77.91,27.41,119.68-1.92,25.44-4.35,52.7,5.52,75.18-51.4-11-102.79-24.79-146.83-54.4-23.8-16-44.08-36.48-58.6-61.27-15.29-26.11-25.72-54.75-43-79.74a11.49,11.49,0,0,0-3.19-3.12,217.68,217.68,0,0,0-12.76-21.17c-8-11.5-26.91-.58-18.87,11,49.12,71,50.57,169.77,1.56,241.27-26.12,38.11-63.79,66.72-100,94.66-37.75,29.15-74.22,59.63-108.31,93a1086.67,1086.67,0,0,0-92.41,103.43,1232.67,1232.67,0,0,1-3.32-230.58c3.1-38.51,5.93-79.73,22.72-115.17,14.79-31.21,40.87-53.33,68.59-72.85,30.09-21.17,61.88-40.5,87-67.76a11,11,0,0,0,2.62-4.79c5.47.69,9.83-2.9,11.83-7.91a333.53,333.53,0,0,1,41.05-73.54c2-2.66,3.95-5.29,6-7.88.23-.29,1.69-1.85,3.12-3.43,1.4,2.65,2.67,5.41,3.83,8.15a171.9,171.9,0,0,1,11.36,41.52c.87,5.85,8.25,9.07,13.45,7.64,6.26-1.72,8.51-7.59,7.64-13.45a186.14,186.14,0,0,0-15.08-50.15c-3.47-7.59-8-15.75-16.86-17.8-10.57-2.44-17.57,5.29-23.45,12.72a360.59,360.59,0,0,0-52.07,90.23,9.46,9.46,0,0,0-8.91,3.22c-46,49.93-117.05,73-152.7,133.14a165.54,165.54,0,0,0-12,25.14,10.94,10.94,0,0,0-3.7.47c-25.12,7.7-55.76,7.17-79-6.17-5-2.88-21.83-13.46-22-19.76-.07-2.33,3.75-6.9,5-8.92,4-6.36,8.65-12.41,11.85-19.21,14.07-29.93-4.17-59.65-18-85.63C3054,1226.66,3048.57,1217.54,3052.61,1207.57Z" transform="translate(-508.63 -42.71)"/><path class="cls-6" d="M2995.53,2394c-11.59-129.63-17.22-259.89-13.72-390,3.64-135.41,17-270.88,45.68-403.38a1557,1557,0,0,1,59.2-205.74c22.2,8,47.39,8.85,70.29,3.73-5,19.76-7.75,40.21-9.86,60.36a1222.82,1222.82,0,0,0-6.55,134.63,1243.84,1243.84,0,0,0,10.45,152.1c1.43,11,13.57,14.57,20.37,5.51q22.32-29.7,46.64-57.41c-37.55,71.79-69.56,146.44-96.66,222.8-35.11,99-60.47,200.33-83.87,302.57l-40,174.59Z" transform="translate(-508.63 -42.71)"/><path class="cls-2" d="M3412,1131.09c.19-.26.32-.46.3-.52C3412.36,1130.82,3412.22,1131,3412,1131.09Z" transform="translate(-508.63 -42.71)"/><path class="cls-2" d="M2103.6,2228.22c20.85-10.54,42.44-20.26,62.62-32,16.39-9.57,31-22.55,37.41-40.9a50.88,50.88,0,0,0,2.61-13.34c.18-2.83-.81-10,.48-10.93,2.13-1.49,12.86-.69,16.52-1l20.16-1.88c6.49-.61,9.93-5.7,10.38-10.82,144.44-176.82,243.75-383.75,371.14-572.17q26.86-39.75,55.58-78.18c14.57-19.38,36.45-48.26,63.64-46-11.17,21.88-20.64,44.63-27.23,68.33-7.62,27.44-11.58,55.72-14.49,84-1.44,14,20.44,13.88,21.86,0,5.51-53.57,18.12-103.82,43.9-151.37.08-.16.12-.31.2-.47l2.12-.41a9.38,9.38,0,0,0,6.32-4c57.52-21.73,114.83-44.41,170.66-70.21-31,24.48-62.23,48.72-94.21,71.94-5.94,4.31-7.18,11.48-2.21,17.17a594.5,594.5,0,0,1,68.1,96c-27.27,19.36-53.94,39.56-79.69,60.89q-9.85,8.16-19.54,16.51c-6.13,5.29-13.86,10.59-18.52,17.35-9.14,13.29-.17,28.69,4.37,42.1a1038.47,1038.47,0,0,1,48.5,217.9c1.54,13.83,23.43,14,21.86,0a1068.14,1068.14,0,0,0-41.27-199.09q-3.52-11.33-7.31-22.58-2.07-6.13-4.21-12.25c-1-2.74-4.45-8.55-4-11.61.87-6.54,11.37-12.3,16.08-16.36q9.69-8.34,19.54-16.51c24.17-20,49.2-38.94,74.78-57.12,3.59,6.85,7.09,13.75,10.42,20.74,6.06,12.69,24.92,1.61,18.88-11a618.06,618.06,0,0,0-84.47-130.9c62.57-46,122.59-95.43,183.95-143.07,1.84,8.22,2.05,16.9-1.45,24.7-3.32,7.41-9.07,13.85-13.16,20.86-5.31,9.11-8.38,18.85-2.75,28.62,5.53,9.6,15.95,18.24,25.84,24.39-45.6,123.54-73.57,252.83-89.79,383.36-17,136.56-21,274.56-16.69,412,2.27,72.11,7,144.12,13.42,216q-66.79,8.34-133.72,15.61c-7.15.77-10.62,7-10.39,12.61a729,729,0,0,0-77.38,8.67c6.2-100-12.45-197.76-31.36-295.52a8,8,0,0,0-.73-3.78c-15.3-79.12-30.56-158.3-32.73-238.78-1.36-50.75,3-101.35,16-150.52,3.61-13.61-17.48-19.42-21.08-5.81-34.8,131.4-9.76,264.22,15.6,395.75-41.94,55.25-85.85,109.05-133.81,159.21-24.53,25.65-50.86,49.33-76,74.32a289.39,289.39,0,0,0-31.92,37.8c-8.74,12.29-17.16,24.22-31.4,30.41a13.41,13.41,0,0,0-1.36.76c-40.13-10.63-78.39-27.11-116.24-44.31a11.41,11.41,0,0,0,.75-10.61c-26.68-62.94-90.37-98.16-153.37-115.65-18.2-5-36.69-8.93-55.24-12.4-10.67-2-23.07-5.66-35-6.64l6.88-3.48Z" transform="translate(-508.63 -42.71)"/><path class="cls-3" d="M2038.38,2277.73c4,.34,7.43-2.12,9.34-5.63a33.52,33.52,0,0,1,4.86-1.84c7.64-2.14,17.08,1.07,24.62,2.41,8.28,1.47,16.54,3,24.79,4.57,17.14,3.35,34.22,7.13,51,12,52.9,15.24,104.74,43.66,131,93.36l-8-3.67-89.67-40.77c-25.35-11.52-52.09-24.49-80.41-16.21a10.09,10.09,0,0,0-7.08,6.64h-.11a9.86,9.86,0,0,0-4.85-5.46c-15.84-8.57-31.93-18.25-48.75-24.76-12-4.64-22.25-1.76-32.59,2.91.7-.66,1.33-1.38,2-2C2021.31,2292.88,2029.57,2284.14,2038.38,2277.73Z" transform="translate(-508.63 -42.71)"/><path class="cls-3" d="M1998.8,2332.2c11.72-5.75,27.3-18.19,40.48-12.68a290.91,290.91,0,0,1,27.62,13.75l-85.24,12.58-15.21,2.25Z" transform="translate(-508.63 -42.71)"/><path class="cls-3" d="M1837.69,2414.05c6-8.18,11.64-18,19.93-24.1,8.11-6,18.9-6.62,28.56-8.06l30.83-4.55,61.66-9.1,127.72-18.86c4.66-.69,7.05-3.54,7.69-6.93,27.62-6.5,57.41,12.86,81.54,23.83l85.6,38.92c52.58,23.9,105.48,48.52,162.58,59.47a10.87,10.87,0,0,0,8.18-1.54l.15,0a2184.89,2184.89,0,0,0,290.62-2c39.35,34.59,62.71,84.81,73.35,135.5a281.08,281.08,0,0,1,6.2,49.48q-150.28-7.2-300-22.53l-4.57-.7a11.38,11.38,0,0,0-11,4.49c-124.06,28.87-269.55,33-366.7-62.71a10.17,10.17,0,0,0-13.33-1.24,536.92,536.92,0,0,1-74.25-3,10.78,10.78,0,0,0-10.92-4c-31.22,6.14-64,13.47-88.37,35.4-13.51,12.17-22.47,28.43-36.32,40.33a107.61,107.61,0,0,1-43.8,22.41c-7.34,1.85-17.34,4.4-25,3.06-4.79-.84-4.46-1-1.45-5.1,3.19-4.33,7.38-8.24,11-12.21q19.42-21.24,39.91-41.49,40.94-40.49,85.77-76.76c8.13-6.58,15.41-12.67,25.9-14.8,11.45-2.32,23.39-3.25,35-4.8l69-9.23c13.74-1.83,13.93-23.72,0-21.86l-71.15,9.51c-19.86,2.66-42.2,2.67-59.27,14.21a9.08,9.08,0,0,0-6.43-5l-53.23-9.4c-4.56-5.45-14.66-6.13-18.35,1.31a9.09,9.09,0,0,0-3.14,4.9,12.17,12.17,0,0,0-.13,4.39,66.5,66.5,0,0,1-16,24.25,64.75,64.75,0,0,1-13.82,10.11c-5.4,3-11.45,4.57-16.3,8.43-10.59,8.42-13.5,25.3-19.34,37a203.74,203.74,0,0,1-22.61,36.08c-8,10-17.46,19.19-28.77,25.36a45.86,45.86,0,0,1-18.21,5.74c-3,.23-13.32.89-14.72-3.12-.47-1.32,1.7-5.34,2.12-6.34,1.75-4.15,3.84-8.19,5.75-12.27l10.05-21.46,21.54-46a11.44,11.44,0,0,0,1.11-5c.2-.25.42-.45.61-.73q29.08-42.45,58.18-84.91c9.34-13.63,18.13-27.93,28.21-41,10.56-13.72,27-8.8,42.18-7.5a1040.86,1040.86,0,0,0,203.46-2.78c13.83-1.54,14-23.42,0-21.87-73.85,8.2-146.56,6.6-220.49,1.21-14.07-1-27.16,1.22-37.39,11.62-11.76,11.95-20.36,28.18-29.79,41.93L1774,2532.3a9.87,9.87,0,0,0-1.88,6c-5.83,12.45-11.86,24.85-17.82,37.28a9.79,9.79,0,0,0-7.86-.63c-6.92,2.15-30,8.33-22.11-6.35,5.15-9.54,13.4-18.33,19.81-27.08l37.41-51,37.41-51Z" transform="translate(-508.63 -42.71)"/><path class="cls-3" d="M2764.42,2712.29a10.39,10.39,0,0,0,.41-2,357.17,357.17,0,0,0-3.25-45.63c20,1.18,40.07,2.31,60.11,3.27-.36,4-.82,8-1.48,11.95-2.57,15.15-8.59,31.08-22.36,39.41C2787,2725.87,2770.31,2724.82,2764.42,2712.29Z" transform="translate(-508.63 -42.71)"/><path class="cls-3" d="M1616.06,2386.63c7,8.09,16.91,12.59,25.87,18.06,1,.61,2,1.24,2.94,1.9l1.14.82a54,54,0,0,1,5.22,5.15c.28.41.56.81.82,1.24s.53.87.77,1.32l.13.27c.27.85.56,1.7.78,2.57,0,.1,0,.21,0,.31-2,.2-4,.48-6,.66-14.69,1.32-29.44,1.35-44.11,2.6-11.65,1-23.62,3.57-32.22,12.11-14.11,14-11.36,32.58-1.9,47.38l-22.54-2.29q-6.81-23.68-13.64-47.36a10.68,10.68,0,0,0,5.54-.11,101.38,101.38,0,0,0,30.84-14.6c9-6.26,17.23-13.56,26.44-19.5A148.16,148.16,0,0,1,1616.06,2386.63Z" transform="translate(-508.63 -42.71)"/><path class="cls-2" d="M1554.76,2505.84l-1.32-4.59,25.67,2.61c2.62.27,5.94-1.41,7.73-3.2a9.84,9.84,0,0,0,.93-1.16c1.74,1.2,3.5,2.38,5.35,3.52l-37.58,2.69C1555.28,2505.73,1555,2505.8,1554.76,2505.84Z" transform="translate(-508.63 -42.71)"/><path class="cls-3" d="M1723.59,2532.85a171,171,0,0,1-85.69-17.11c8.7-1.49,16.67-5.39,25.61-8.84,25.53-9.87,53.57-2.89,80.66-2.11Z" transform="translate(-508.63 -42.71)"/><path class="cls-3" d="M1683.44,2297.8a925.58,925.58,0,0,0,64.5,71.23c11.25,11.12,22.65,22.36,34.82,32.48,8.66,7.21,17.5,12.13,28,12.48q-9.32,12.75-18.67,25.45l-31.48,42.93c-30.28,3.17-60.61-6-90.77,0-15,3-29.39,15.38-45.08,11.28-12.85-3.36-30.1-12.69-37.44-24-8.56-13.15-1.28-23.68,12.67-25.88,15-2.36,30.81-1.52,46-2.83a639.41,639.41,0,0,0,101.27-17.08c13.64-3.43,7.86-24.53-5.81-21.08a622.11,622.11,0,0,1-66.07,12.91c-1.38-12-10-21.52-19.72-28.17-4.38-3-9.14-5.36-13.7-8.06-1.15-.67-2.29-1.37-3.4-2.09-.07-.05-.15-.13-.22-.17a202.84,202.84,0,0,0,21.3-10.18c12.23-7,1.23-25.86-11-18.88-19.87,11.29-42.43,17-61.88,29.1-18.14,11.25-32.54,27-53.67,32.92a10.57,10.57,0,0,0-5,3q-6.43-22.47-12.81-44.95c2.76,1.44,6.16,1.45,9.62-1.08l81.39-59.53c12.74-9.32,25.93-21.5,41-26.79C1663.81,2275,1673.74,2286,1683.44,2297.8Z" transform="translate(-508.63 -42.71)"/><path class="cls-3" d="M1552.46,2302.39c9-4.24,18-8.73,27.21-12.65,6.73-2.86,14.37-5.55,21.9-5.7-.94.7-1.88,1.4-2.8,2.07l-84.94,62.12a11.54,11.54,0,0,0-3.24,3.57q-3.75-13.14-7.49-26.29Z" transform="translate(-508.63 -42.71)"/><path class="cls-7" d="M834.24,2529.68c-1.57-11.59-5.25-23.08-8.32-34.28-6.81-24.79-14-49.47-21.28-74.13-22.4-76.14-45.51-152.07-68.7-228q-41.61-136.22-83.84-272.23-36.83-118.82-74-237.53c-13-41.53-25.46-83.32-39.31-124.58,2.13-4.56,1.41-10.14-4.47-13-6.21-3-4.23-13-.44-17.49,6.39-7.56,19-7.55,28-8.13q6.6-.42,13.19-.93c14.93-1.16,29.85-2.48,44.77-3.81q72.67-6.48,145.32-13.49c113.31-10.71,226.59-21.71,339.93-32.16,33.4-3.08,66.85-6.69,100.35-8.66a11.73,11.73,0,0,0,5.11.43c24.93-3.37,37.38,30.3,42.43,48.67,2.75,10,4.81,20.16,7.38,30.2,1.67,6.51,3.46,13,5.23,19.48q10.53,38.75,21.32,77.42,37.21,134.28,74.94,268.41,46.88,167.07,94.16,334,11.07,39,22.18,78a11.56,11.56,0,0,0,1.12,7.78,10.26,10.26,0,0,0,1.6,1.79q29.89,105.12,60.19,210.14c15.4,53.2,29.35,107.33,47.71,159.62.3.85.64,1.69,1,2.54-4.26-1-8.55-1.94-12.75-2.92-18.88-4.39-37.84-8.46-56.79-12.5-59.51-12.69-119.14-24.8-178.77-36.84q-190.12-38.39-380.53-75.34-28.65-5.57-57.3-11.05c-20.95-4-55-3.86-64.16-25.73A11.37,11.37,0,0,0,834.24,2529.68Z" transform="translate(-508.63 -42.71)"/><path class="cls-7" d="M2401.11,2687.06c-8.67,3.13-17.21,6.34-26.32,8.3-12.82,2.76-25.79,4.95-38.76,6.91-25.73,3.88-51.66,6.4-77.59,8.57-52,4.34-104.05,7.86-156.11,11.3q-158.16,10.46-316.56,17.1-86.31,3.62-172.66,6.09c-.92-2.95-3.26-5.4-7.4-6.17-86.71-16.31-173.1-34.63-259.57-52.12-133.08-26.93-266.2-53.75-398.94-82.29-21.65-4.66-43.31-9.32-64.87-14.39-5.83-1.38-11.69-2.7-17.45-4.35-.9-.26-1.89-.5-2.84-.8-2.41-4-4.44-7.62-4.22-11.5,10.17,3.13,21.11,5,31.79,7,13.93,2.59,27.83,5.3,41.74,8q80.39,15.53,160.7,31.41c132.74,26.15,265.49,52.37,397.9,80.19,24.43,5.14,48.87,10.31,73.22,15.84,7.51,1.7,15,3.42,22.5,5.33,2.37.6,4.71,1.26,7.07,1.89,1.4.38,6.41,2.43,1.59.31,11.21,4.92,21.16-9,14.68-16.3,3.16-2.22,4.82-6,2.79-10.85-6-14.18-9.77-29.57-14.21-44.27-9.61-31.8-18.92-63.71-28.2-95.61-2.85-9.81-5.64-19.63-8.48-29.44l47-3.36a12.46,12.46,0,0,0,1.1.88,191.08,191.08,0,0,0,98.07,30.24c-6.55,10-10.53,20.83-3,32,9.3,13.85,24.91,14.48,39.52,11.32-3.55,7.69-7,15.4-10.33,23.18-5,11.7-4.31,24.79,7,32.49,9.91,6.77,22.79,7.12,34.26,5.09,24.89-4.4,44.83-23.53,59.4-43a225.19,225.19,0,0,0,22.33-36.74c2.86-5.92,5.47-12,7.88-18.1,2.62-6.65,3.71-9.93,10.5-12.88a88.65,88.65,0,0,0,45.91-46l42.92,7.58c-29,23.21-56.56,48.78-82.82,74.84q-24.09,23.9-46.73,49.19c-5.64,6.3-12.12,12.82-13,21.65s4.1,16.46,11.88,20.44c14.64,7.48,36.41,2.64,51.27-1.84a131.26,131.26,0,0,0,51-29c17-15.71,27.46-36.51,48.27-48.16,15.75-8.82,33.49-13.31,51.18-17a562.41,562.41,0,0,0,94.59,5.2c.33,0,.6-.09.91-.12,74.49,69.71,173.71,87.5,272,80.53C2401.87,2672.8,2401.61,2679.93,2401.11,2687.06Z" transform="translate(-508.63 -42.71)"/><path class="cls-3" d="M2874.39,2754.58c-30.15-.82-61.78-4.17-91.73,1.37q-2.38-5.64-4.76-11.3a47.61,47.61,0,0,0,26.77-4.27c27.51-13.17,36.79-44.38,38.72-72.56,3.71-54.2-10.26-111-35.7-158.75-10.83-20.32-24.36-39.42-40.72-55.65q31.19-4.66,62.65-6.48a11.79,11.79,0,0,0,11.46-.55c8-.32,16.05-.61,24.1-.66a9.82,9.82,0,0,0,9-5.42,60.39,60.39,0,0,1,13.64,9.61c12.72,12.12,23.51,26.72,33.34,41.22a369.64,369.64,0,0,1,44.77,90.79,375.14,375.14,0,0,1,14.94,175.55Z" transform="translate(-508.63 -42.71)"/><path class="cls-2" d="M3541.1,2782.38c-34.36-4.9-68.93-10.28-103.59-14.35q59.49-10.59,118.52-23.35c47.22-10.15,94.27-21.06,141.25-32.26q34.88-8.33,69.71-16.8c22.22-5.39,45.57-9.37,66.89-17.79,37.83-14.94,59.15-48.84,76.42-83.85,15.95-32.31,30.93-65.1,45.48-98.08-11,47.32-21.93,94.65-29.39,142.63-3.47,22.29-4.74,44.2-.89,66.53,3.73,21.65,11.38,42.44,18.33,63.2,9,27,18,53.95,27,80.91C3827.72,2825.94,3684.6,2802.84,3541.1,2782.38Z" transform="translate(-508.63 -42.71)"/><path class="cls-8" d="M2737.36,777.58c-1.15,49.34,5.77,99,26,144.38,19.6,44,52.84,79.34,86.93,112.53,37.59,36.62,74.36,75.12,113.91,109.61,15.39,13.42,33.33,24.42,54.52,21.36,20.42-3,39.17-13.91,57.33-23.08,47.13-23.79,87.32-56.06,118.83-98.61,8.39-11.32-10.58-22.23-18.87-11a294.22,294.22,0,0,1-97,83.64c-16.68,9-34.06,18.75-52.08,24.66-21,6.88-35.55-1.58-51-15.76-34.68-31.83-67.92-65.38-101.78-98.09-31.9-30.82-64.14-62.43-85-102.07-23.83-45.18-31.06-97-29.88-147.53.33-14.08-21.54-14.07-21.86,0Z" transform="translate(-508.63 -42.71)"/><path class="cls-8" d="M2939.66,702a118.55,118.55,0,0,0,2.5,18.85c1.48,6.81,3.21,14.86,9.69,18.67,7.73,4.55,17.51.69,21.13-7.23a21.59,21.59,0,0,0,2.34-10.35A37.58,37.58,0,0,0,2963,695.8a11.56,11.56,0,0,0-7.73-3.2,11.14,11.14,0,0,0-7.73,3.2,11,11,0,0,0-3.2,7.73,10.89,10.89,0,0,0,3.2,7.73,28.26,28.26,0,0,1,3.63,3.87l-1.71-2.21a29,29,0,0,1,3.53,6.13l-1.11-2.61a28.44,28.44,0,0,1,1.82,6.84l-.39-2.91a15,15,0,0,1,.09,3.54l.39-2.91a13.14,13.14,0,0,1-.79,2.84c.36-.87.73-1.74,1.1-2.61a10.8,10.8,0,0,1-1,1.84l1.71-2.21a7.75,7.75,0,0,1-1.12,1.17l2.22-1.71a5.89,5.89,0,0,1-1,.6l2.61-1.11a4,4,0,0,1-.83.21l2.9-.39a4.35,4.35,0,0,1-.88,0l2.91.39a4.92,4.92,0,0,1-.92-.29l2.61,1.1a3.88,3.88,0,0,1-.67-.41l2.22,1.71a6.43,6.43,0,0,1-.82-.83l1.71,2.21a8.86,8.86,0,0,1-1-1.76c.37.87.74,1.74,1.1,2.61a76.55,76.55,0,0,1-3.94-17.25l.39,2.91c-.34-2.67-.59-5.34-.73-8a11.51,11.51,0,0,0-3.2-7.73,10.94,10.94,0,0,0-15.46,0,11,11,0,0,0-3.2,7.73Z" transform="translate(-508.63 -42.71)"/><path class="cls-8" d="M2758.63,738.93a117.12,117.12,0,0,0,2.49,18.84c1.48,6.81,3.21,14.86,9.69,18.67,7.73,4.55,17.51.7,21.13-7.22a21.76,21.76,0,0,0,2.35-10.35A37.75,37.75,0,0,0,2782,732.75a11.58,11.58,0,0,0-7.73-3.2,10.94,10.94,0,0,0-10.94,10.93c.13,2.8,1,5.82,3.21,7.73a29,29,0,0,1,3.63,3.88l-1.71-2.22A29.24,29.24,0,0,1,2772,756l-1.1-2.61a28.37,28.37,0,0,1,1.82,6.83l-.39-2.91a15,15,0,0,1,.08,3.54l.39-2.9a12.15,12.15,0,0,1-.79,2.83c.37-.87.74-1.74,1.1-2.61a11.23,11.23,0,0,1-1,1.85l1.71-2.22a7.31,7.31,0,0,1-1.12,1.17l2.21-1.71a5,5,0,0,1-1,.6l2.62-1.1a4.92,4.92,0,0,1-.84.21l2.91-.39a4.3,4.3,0,0,1-.88,0l2.9.39a6.06,6.06,0,0,1-.91-.3l2.61,1.1a3.54,3.54,0,0,1-.67-.41l2.21,1.71a6.35,6.35,0,0,1-.82-.82l1.71,2.21a9.4,9.4,0,0,1-1-1.76c.36.87.73,1.74,1.1,2.61a76.1,76.1,0,0,1-3.94-17.26l.39,2.91q-.53-4-.73-8a11.54,11.54,0,0,0-3.2-7.73,10.94,10.94,0,0,0-15.46,0,10.88,10.88,0,0,0-3.2,7.73Z" transform="translate(-508.63 -42.71)"/><path class="cls-8" d="M2819.08,747.27q.32,65.52.64,131c0,8.63-1,18.37,3.91,26,4.49,7,12.49,10.8,20.45,12.24,19.89,3.6,41.19.85,60.17-5.72,13.21-4.58,7.53-25.7-5.81-21.08-15.34,5.31-32.7,8.42-48.92,5.65-7.68-1.31-7.86-3.63-7.91-10.86q-.09-14-.13-28.08L2841,747.27c-.07-14.06-21.94-14.09-21.87,0Z" transform="translate(-508.63 -42.71)"/><path class="cls-8" d="M2901.28,646.59c30.63-18.88,68.9-13.84,102.81-9.46,5.87.76,10.94-5.56,10.94-10.93,0-6.54-5.05-10.17-10.94-10.93-38.08-4.92-79.62-8.66-113.84,12.44-12,7.37-1,26.29,11,18.88Z" transform="translate(-508.63 -42.71)"/><path class="cls-8" d="M2864.18,1006.48c28.65,1.57,57-4,84.56-11.32,28.26-7.5,56.33-15.81,84.47-23.77l-13.45-13.45A201,201,0,0,1,2998,1001.3c-7.77,11.73-17.45,25.64-30.88,31.38-14.12,6-30.36-2.92-42.8-9.33a200.26,200.26,0,0,1-40.84-27.88c-10.52-9.26-26.05,6.14-15.46,15.46a221.7,221.7,0,0,0,50.47,33.89c17,8.15,35.9,16,54.63,8.9,17.16-6.46,29.21-20.83,39.59-35.32a221.73,221.73,0,0,0,28.13-54.65c2.86-8-5.87-15.59-13.45-13.45-27.11,7.68-54.16,15.62-81.37,23-26.83,7.23-53.91,12.9-81.84,11.37-14.06-.77-14,21.1,0,21.86Z" transform="translate(-508.63 -42.71)"/><path class="cls-8" d="M2852.87,273.27c-60.64,125-46.4,265.83-30.76,399.24,1.61,13.81,23.5,14,21.86,0-15.09-128.82-30.88-267.3,27.78-388.2,6.11-12.61-12.73-23.71-18.88-11Z" transform="translate(-508.63 -42.71)"/><path class="cls-8" d="M2745.87,471.24a544.56,544.56,0,0,0,3.6,126c2.51,17.31,5.88,35.36,15.68,50.23,9.95,15.11,25.19,24.85,40.44,33.93,12.11,7.22,23.12-11.67,11-18.88-13.93-8.3-28.26-16.8-35.91-31.75-7.43-14.52-9.32-31.92-11.29-47.9a531.06,531.06,0,0,1-1.68-111.6c1.23-14-20.64-13.94-21.87,0Z" transform="translate(-508.63 -42.71)"/><path class="cls-8" d="M3049.37,72.63C2993.14,75.79,2938.21,98,2890.49,127c-48.59,29.55-90.25,69.28-124.46,114.54-68.94,91.22-105.93,207.21-99.25,321.64,2.93,50.24,10.5,121.59,65.79,141.37,13.27,4.75,19-16.37,5.81-21.08-43.5-15.57-47.49-82.09-49.74-120.29A459.2,459.2,0,0,1,2707,406.7c29.56-100.38,93.28-193.77,180.91-252.1,47.4-31.55,104-56.88,161.5-60.1,14-.79,14.09-22.66,0-21.87Z" transform="translate(-508.63 -42.71)"/><path class="cls-8" d="M2695.3,532.46a276.57,276.57,0,0,0,7.62,67.27c4.84,20,11.28,41.84,23.95,58.4,23.36,30.54,68.74,44.35,104.77,30.41,5.48-2.12,9.34-7.35,7.63-13.45-1.47-5.24-7.89-9.78-13.44-7.63-29.14,11.27-67.43.62-84.4-26.53-9.48-15.16-14.45-33.67-18.34-51a251,251,0,0,1-5.92-57.51c.12-14.08-21.75-14.09-21.87,0Z" transform="translate(-508.63 -42.71)"/><path class="cls-8" d="M2745.5,697.59l10-15.69a8.15,8.15,0,0,0,1.3-4.06,8.3,8.3,0,0,0-.2-4.36,10.95,10.95,0,0,0-13.45-7.64,11.82,11.82,0,0,0-6.53,5l-10,15.69a8.15,8.15,0,0,0-1.3,4.06,8.3,8.3,0,0,0,.2,4.36,10.95,10.95,0,0,0,13.45,7.64,11.82,11.82,0,0,0,6.53-5Z" transform="translate(-508.63 -42.71)"/><path class="cls-8" d="M2848.65,276.9c-5.08,37.69,7,72.92,23.49,106.37a430.55,430.55,0,0,0,51.91,80.26,448.63,448.63,0,0,0,150.74,119.72A435.56,435.56,0,0,0,3178,618.56c13.74,2.82,19.61-18.25,5.82-21.08-117-24.05-221.3-99.21-280.83-202.86-19-33.13-38.53-72.61-33.24-111.91,1.86-13.76-19.21-19.71-21.08-5.81Z" transform="translate(-508.63 -42.71)"/><path class="cls-8" d="M2957.57,274.73c45.22,135.41,110.06,274.91,238.07,350.21,9.05,5.32,21.24-5.66,15-15a956.89,956.89,0,0,1-62.36-106.62l-17.17,13.25c41.59,32.88,87.45,67.26,143,66.39,14.06-.23,14.1-22.09,0-21.87-49.33.78-90.68-30.81-127.58-60-9.53-7.54-23,1.59-17.17,13.25A959.22,959.22,0,0,0,3191.72,621l15-15c-122.91-72.3-184.65-207.25-228-337.14-4.44-13.28-25.56-7.59-21.09,5.81Z" transform="translate(-508.63 -42.71)"/><path class="cls-8" d="M3036.59,103.5c110.95-20,229.86,34.13,288.44,130.2,7.32,12,26.23,1,18.88-11-64-105-192.34-162-313.13-140.25-13.83,2.49-8,23.56,5.81,21.08Z" transform="translate(-508.63 -42.71)"/><path class="cls-8" d="M3038.32,92c61.31-35,137.95-35.43,202.16-7.67,62.13,26.85,111.4,76.93,145,134.91,7.06,12.17,26,1.17,18.88-11-36.59-63.11-90.79-117-158.75-145.26-69.8-29-152.1-27.66-218.33,10.18-12.22,7-1.21,25.88,11,18.88Z" transform="translate(-508.63 -42.71)"/><path class="cls-8" d="M3344.32,237.89a62.63,62.63,0,0,1,10.67-6.46c1.11-.49,1-.43-.45.18.48-.2,1-.39,1.45-.57,1-.37,2-.7,3-1a57.33,57.33,0,0,1,6.07-1.53c.51-.1,1-.19,1.54-.27,1.22-.19,1-.17-.59.05a14.11,14.11,0,0,1,3.12-.3,56.67,56.67,0,0,1,6.25-.08c1,0,2.08.15,3.12.22,1.23.14,1,.11-.58-.1.51.07,1,.15,1.54.24a55.51,55.51,0,0,1,6.09,1.44c5.48,1.6,12.15-1.94,13.44-7.64a11.14,11.14,0,0,0-7.63-13.45c-19.43-5.67-41.9-2-58,10.41-2.36,1.81-4.2,3.54-5,6.53a11.18,11.18,0,0,0,1.1,8.43c2.88,4.46,10.11,7.65,15,3.92Z" transform="translate(-508.63 -42.71)"/><path class="cls-8" d="M3380.59,221.52c16.84,34.65,26.67,72.23,31.95,110.3,5.37,38.7,7.61,79.38,5.11,118.4-1.93,30-9.7,63.53,13.16,87.58,9.73,10.25,22,17.57,32.62,26.83,11.89,10.4,18.87,24,21.53,39.56,5.33,31.1-4.35,71.62-25.09,95.79-21.26,24.78-55.51,23-80.76,5.16-28-19.71-37.13-55.87-37.21-88.38-.1-39.12,12.22-76.68,20.19-114.61,19.11-90.87,1.22-181.45-18.14-270.64-3-13.74-24.07-7.93-21.08,5.81,19.21,88.53,36.49,177.45,16.3,267.44-15.11,67.35-42.51,161.62,21.64,213.78,23.87,19.4,57.7,28.89,87.06,16.8,32.64-13.44,49.21-49.47,56.35-82,7.23-32.9,5.31-71.1-18.28-97.32-10.35-11.5-24.14-19.21-35.49-29.61-13.26-12.17-14.36-25.36-13.56-42.81,1-22,3.24-43.5,3.05-65.53a725.42,725.42,0,0,0-4.14-75c-5.2-46-16-90.83-36.33-132.59-6.15-12.65-25-1.58-18.88,11Z" transform="translate(-508.63 -42.71)"/><path class="cls-8" d="M3337.62,495.46c-44.1,25.66-64.88,82.4-71.42,130.58-7.71,56.77,10.64,116,59.08,149.54a136.21,136.21,0,0,0,150.59,2.31c50.48-32.69,70-93.07,64.71-151.1C3534.74,563,3496,501.13,3430.36,486.42c-13.7-3.07-19.55,18-5.81,21.08,100.87,22.59,127.42,174.91,54.23,240.84A114.38,114.38,0,0,1,3348.22,764c-44.12-23.93-64-71.67-61.82-120.38,1.11-24.5,7.84-49.43,17.23-72,9.46-22.77,23.29-44.61,45-57.25,12.15-7.07,1.16-26-11-18.88Z" transform="translate(-508.63 -42.71)"/><path class="cls-8" d="M3388.08,207.45C3435.15,249,3476,298.8,3504.67,354.84c15.21,29.69,23.14,60.69,20.49,94.16-2.76,34.76-14.78,68.29-26.26,100.94-4.67,13.3,16.44,19,21.09,5.82,12.18-34.66,24.15-69.88,27-106.76,2.7-34.47-5.11-67.11-19.95-98.1-28.93-60.44-73.5-114.75-123.53-158.91-10.52-9.28-26,6.13-15.46,15.46Z" transform="translate(-508.63 -42.71)"/><path class="cls-8" d="M3106.61,1115.8c31.43,34.64,54.95,76.58,57.2,124.14.66,14,22.53,14.09,21.86,0-2.53-53.57-28.13-100.5-63.6-139.6-9.47-10.44-24.9,5.06-15.46,15.46Z" transform="translate(-508.63 -42.71)"/><path class="cls-8" d="M3432.1,792.6a524.27,524.27,0,0,0,75.32,264.88c7.25,12,26.16,1.06,18.88-11A501.66,501.66,0,0,1,3454,792.6c-.14-14.06-22-14.1-21.87,0Z" transform="translate(-508.63 -42.71)"/><path class="cls-8" d="M2763,917.57a469.93,469.93,0,0,0-45.45,151.64c-2.9,23.87-3.42,48.84,7.38,71,10.46,21.41,30.47,35.87,49.34,49.36,11.46,8.2,22.39-10.75,11-18.87-16.4-11.74-34.35-24.46-42.39-43.7-8.7-20.81-5.46-45.34-2.23-67a445.19,445.19,0,0,1,41.2-131.36c6.21-12.57-12.64-23.66-18.88-11Z" transform="translate(-508.63 -42.71)"/><path class="cls-8" d="M2868.7,1227.44c-13-.15-26.11,0-39.12-1.1-1.75-.16-3.5-.34-5.24-.54-.21,0-3.64-.49-1.25-.15-.68-.1-1.37-.19-2.05-.31-3.66-.63-7.3-1.32-10.88-2.29q-2.34-.63-4.63-1.39c-.69-.24-4.86-2-2.58-.92-1.35-.61-2.68-1.26-4-2-.5-.28-1-.57-1.49-.87-.25-.16-2.93-2-1.67-1.06,1,.73-1.49-1.33-2-1.82s-1.1-1.17-1.63-1.78c1.54,1.77.58.82.26.31a31.34,31.34,0,0,1-2-3.47c1.2,2.5-.47-2-.69-2.93-.66-2.7.06,1.58,0-.18-.05-.77-.1-1.54-.11-2.32s.38-5.1.09-3.16a49.56,49.56,0,0,1,3.53-12.29c3.86-8.84,11-15.49,21-15.81,13.51-.43,27.71,2.78,41,5,8.07,1.31,16.2,2.7,24.15,4.67a27.48,27.48,0,0,0,3.09.79,1.93,1.93,0,0,1,1.43.75c-1-2-1.48-2.39-1.56-1.06-1.27,1.21-1.46,7.6-1.88,9.47a206.4,206.4,0,0,1-6.26,22A116.12,116.12,0,0,1,2870,1226c-.21.46-.84,1.59-.85,1.78-1.31,1.85-.83,1.72,1.42-.4-.63,0-1.25,0-1.87,0-14.07,0-14.09,21.87,0,21.86,8.57,0,15.54-3.33,19.64-11.08,3.8-7.2,6.41-15.43,8.84-23.17a193,193,0,0,0,6.18-25.06c1.59-9.3.57-18.2-7.81-23.9-6.51-4.42-15.33-5.38-22.89-6.82-8.76-1.67-17.57-3-26.4-4.27-16.9-2.39-35.27-6.87-51.32,1.22-19.8,10-32.93,39.83-24.92,61.14,6.46,17.21,24.23,25.05,41.16,28.35,19,3.7,38.28,3.37,57.52,3.59C2882.78,1249.46,2882.78,1227.6,2868.7,1227.44Z" transform="translate(-508.63 -42.71)"/><path class="cls-8" d="M3497.43,1006a417.51,417.51,0,0,1,60-21.32c9.81-2.71,19.69-5.12,29.61-7.36q7.68-1.73,15.38-3.32c.37-.08,6.36-1.08,6.37-1.27q-3.74-3.94-2.12-.06a8.43,8.43,0,0,1,.3,1.93c3.15,20.19,4.16,40.79,6.85,61.05,2.75,20.74,6.13,41.4,11.87,61.54,3.85,13.51,25,7.77,21.08-5.81-6.37-22.35-9.94-45.37-12.68-68.42-1.38-11.68-2.57-23.38-3.81-35.08-1.06-10-.36-23.76-7.88-31.48-8.8-9-21.63-4.4-32.26-2.12-11.68,2.51-23.33,5.23-34.88,8.32a457.92,457.92,0,0,0-68.84,24.52c-5.43,2.44-6.61,10.23-3.92,15,3.17,5.58,9.6,6.33,15,3.92Z" transform="translate(-508.63 -42.71)"/><path class="cls-8" d="M2844.2,2443.46c11.41-15.68,33.43-3.25,43.64,6.46,12.72,12.12,23.51,26.72,33.34,41.22a369.64,369.64,0,0,1,44.77,90.79c21.76,65.58,25.57,136.41,9.49,203.68-1.73,7.26,3.34,13.36,10.54,13.84,191.84,12.77,382.86-14.55,570.05-54.77,47.22-10.15,94.27-21.06,141.25-32.26q34.88-8.33,69.71-16.8c22.22-5.39,45.57-9.37,66.89-17.79,37.83-14.94,59.15-48.84,76.42-83.85,20.27-41.07,39.29-82.81,57.37-124.89,72.34-168.34,128.09-344.52,155.4-526,12.57-83.52,16.77-167.12,20.18-251.38,2.71-67.2,4.81-135.36-8.21-201.72-12.85-65.46-43.43-126.65-96.47-168.55-33.45-26.42-72.5-40-111.4-56.18a1131.25,1131.25,0,0,1-126.93-62.48q-30-17.15-58.9-36c-11.82-7.71-22.79,11.21-11,18.88a1162.52,1162.52,0,0,0,118,67.56c40.1,19.91,81.81,35.36,122.71,53.38,64.53,28.41,110.78,81,132.38,147.88,20.05,62.1,21.17,128.56,19.53,193.2-1.95,77-4.5,154.38-13.17,231-20.12,177.55-69.15,351.23-135.11,517q-25.11,63.1-53.55,124.83-14.07,30.64-28.87,60.95c-8.33,17-17.11,34.22-29.27,48.81-28.35,34-76,38.12-116.55,48-45.66,11-91.34,22-137.15,32.4-181.56,41.27-366.31,73.79-553.18,70.12q-35.07-.69-70.07-3.06,5.28,6.91,10.54,13.84c28.88-120.78-2.09-262.22-89.38-353.13-21.84-22.75-59.82-36.09-81.82-5.88-8.3,11.39,10.66,22.31,18.88,11Z" transform="translate(-508.63 -42.71)"/><path class="cls-8" d="M2840.19,2434.3q244.65-26.55,487.43-67.56,69.38-11.74,138.55-24.68c13.82-2.58,8-23.66-5.81-21.08q-240.12,44.83-482.6,75.38-68.72,8.63-137.57,16.08c-13.84,1.5-14,23.38,0,21.86Z" transform="translate(-508.63 -42.71)"/><path class="cls-8" d="M3457.22,2334.75a286,286,0,0,1,236.87,34.5c11.82,7.71,22.79-11.21,11-18.87-74.34-48.5-168.67-62.07-253.71-36.71-13.45,4-7.73,25.12,5.81,21.08Z" transform="translate(-508.63 -42.71)"/><path class="cls-8" d="M3536.25,2295.32a134,134,0,0,1,23.27-63c13-18.84,30.86-29.78,48-44.13,19.1-16,21.2-37.23,23.53-60.57q4-40,10-79.69a1619.08,1619.08,0,0,1,76.53-302.21,1598.43,1598.43,0,0,1,68.56-162.19c6.15-12.6-12.7-23.69-18.88-11a1640.12,1640.12,0,0,0-111.08,296.53q-20.67,77.43-33.61,156.65-6.27,38.41-10.74,77.12c-2.86,24.76.08,54.06-21.14,71-19.62,15.72-38,28.86-52,50.35s-21.83,45.77-24.31,71.1c-1.36,14,20.51,13.9,21.87,0Z" transform="translate(-508.63 -42.71)"/><path class="cls-8" d="M4020.8,1309.2c-23.88-11.76-44,15.22-58.59,30.3q-25.52,26.41-49.44,54.31c-3.84,4.47-4.39,11.06,0,15.46,3.94,3.93,11.6,4.5,15.46,0q21-24.43,43.17-47.77,10.93-11.49,22.18-22.7c2.9-2.9,5.76-5.93,9.22-8.17,2.15-1.4,5.61-3.22,7-2.55,5.29,2.61,11.83,1.43,15-3.92,2.82-4.82,1.39-12.34-3.92-15Z" transform="translate(-508.63 -42.71)"/><path class="cls-8" d="M3021.86,1285.05c-84.9,46.8-175.21,82.54-265.82,116.56-13.13,4.93-8.13,23.78,5.81,21.08l8.65-1.67c13.8-2.67,8-23.75-5.81-21.09l-8.65,1.68q2.91,10.53,5.81,21.08c92.35-34.67,184.52-71.07,271.05-118.77,12.32-6.79,1.31-25.68-11-18.87Z" transform="translate(-508.63 -42.71)"/><path class="cls-8" d="M3359.08,1886a1211.74,1211.74,0,0,1,145.65-22.19q17.92-1.6,35.9-2.67c5.62-.34,11.29-.86,16.92-.89-2.2,0-1.17-3.9-1.05,2,.08,3.53.77,7.21,1.14,10.73q4,37.56,8,75.12c1.47,13.85,23.35,14,21.87,0-3-28.61-6-57.24-9.11-85.85-1.12-10.17-2.86-20.68-14.53-23.38-12.67-2.93-29.38.76-42.22,1.73a1255.8,1255.8,0,0,0-168.35,24.35c-13.75,2.95-7.93,24,5.81,21.09Z" transform="translate(-508.63 -42.71)"/><path class="cls-8" d="M3341.39,1874.45q2.43,55.85,7,111.55c.43,5.36,4.68,11.66,10.93,10.93A2109.15,2109.15,0,0,0,3575,1960.52c13.73-3.06,7.92-24.15-5.81-21.08a2055.28,2055.28,0,0,1-209.86,35.63l10.93,10.93q-4.53-55.71-7-111.55c-.61-14-22.48-14.09-21.86,0Z" transform="translate(-508.63 -42.71)"/><path class="cls-8" d="M3251.74,1632.61c-52.59,90.14-95.49,185.66-130.37,284-35.11,99-60.47,200.33-83.87,302.57q-21.55,94.2-43.12,188.4c-3.13,13.7,17.94,19.55,21.09,5.81,47.66-208.28,89.18-418.62,176.19-615a1567,1567,0,0,1,79-154.71c7.11-12.18-11.78-23.19-18.87-11Z" transform="translate(-508.63 -42.71)"/><path class="cls-8" d="M3069.41,1378.6c-47.11,125.6-75.71,257.29-92.23,390.23-17,136.56-21,274.56-16.69,412,2.37,75.45,7.33,150.8,14.28,226,1.28,13.9,23.16,14,21.86,0-12.37-133.86-18.44-268.42-14.82-402.85,3.64-135.41,17-270.88,45.68-403.38,15.91-73.43,36.61-145.81,63-216.18,5-13.19-16.18-18.88-21.08-5.81Z" transform="translate(-508.63 -42.71)"/><path class="cls-8" d="M3046.45,1268.76c-64.46,49.92-127.19,102.07-193.18,150-5.94,4.32-7.18,11.48-2.21,17.17a599.36,599.36,0,0,1,89.07,136c6.06,12.69,24.92,1.61,18.88-11a619.92,619.92,0,0,0-92.49-140.41l-2.22,17.17c67.5-49,131.68-102.35,197.61-153.41,11.11-8.6-4.47-24-15.46-15.46Z" transform="translate(-508.63 -42.71)"/><path class="cls-8" d="M2926.48,1526.59q-44.8,31.37-87,66.23-9.85,8.16-19.54,16.51c-6.13,5.29-13.87,10.59-18.52,17.35-9.14,13.29-.17,28.69,4.37,42.1a1038.47,1038.47,0,0,1,48.5,217.9c1.54,13.83,23.43,14,21.87,0a1069,1069,0,0,0-41.28-199.09q-3.52-11.33-7.31-22.58-2.07-6.13-4.21-12.25c-1-2.74-4.45-8.55-4-11.6.87-6.55,11.37-12.31,16.08-16.37q9.69-8.36,19.54-16.51,40-33.1,82.58-62.81c11.45-8,.53-27-11-18.88Z" transform="translate(-508.63 -42.71)"/><path class="cls-8" d="M2749.3,1410.87c-13.51,24.91-24.79,51.05-32.39,78.39s-11.58,55.72-14.49,84c-1.44,14,20.44,13.88,21.86,0,5.51-53.57,18.12-103.82,43.9-151.37,6.7-12.37-12.17-23.42-18.88-11Z" transform="translate(-508.63 -42.71)"/><path class="cls-8" d="M2755.47,1400.73c-55-13.07-92,51.78-118.65,89-34.5,48.26-66.7,98.13-97.84,148.61-61.66,99.94-119.27,202.37-183.3,300.84-36.5,56.13-75.11,110.9-117.49,162.77-8.83,10.81,6.55,26.36,15.46,15.46,144.51-176.86,243.84-383.85,371.27-572.33q26.86-39.75,55.58-78.18c15.55-20.68,39.4-52.16,69.15-45.09,13.68,3.24,19.52-17.83,5.82-21.09Z" transform="translate(-508.63 -42.71)"/><path class="cls-8" d="M2682.55,1739.31c-47.78,180.43,17.26,363.55,41,542.29,6.75,50.7,10.19,101.91,7,153-.9,14,21,14,21.86,0,11.58-182.63-59.91-357.49-64.79-539-1.36-50.75,3-101.35,16-150.52,3.61-13.61-17.48-19.42-21.08-5.81Z" transform="translate(-508.63 -42.71)"/><path class="cls-8" d="M2865.18,2423.87a721.33,721.33,0,0,0-125.63,11.93c-7.59,1.39-11.15,13.35-4.83,18.27,44.4,34.57,70,88.41,81.38,142.54,5.61,26.72,8.7,56.13,4.11,83.26-2.57,15.15-8.59,31.08-22.36,39.41-11.4,6.91-29.31,5.57-34.33-8.75l-21.08,5.82q11.59,27.49,23.18,55c2.33,5.53,7.1,9.26,13.45,7.64,31.83-8.15,67.22-3.32,99.72-2.43l103.48,2.81c14.07.39,14.06-21.48,0-21.86l-107.88-2.94c-33.32-.9-68.47-5-101.13,3.34l13.45,7.63-23.19-55c-5.29-12.55-25.86-7.78-21.08,5.82,9,25.68,38.25,35.52,62.23,24,27.51-13.17,36.79-44.38,38.72-72.56,3.71-54.2-10.26-111-35.7-158.75-14.34-26.89-33.38-51.67-57.51-70.46l-4.82,18.28a686.89,686.89,0,0,1,119.82-11.16c14.06-.09,14.1-21.95,0-21.86Z" transform="translate(-508.63 -42.71)"/><path class="cls-8" d="M2745.76,2439.05a2184.73,2184.73,0,0,1-293.63,2.24c-14.05-.84-14,21,0,21.86a2184.73,2184.73,0,0,0,293.63-2.24c13.95-1,14.06-22.92,0-21.86Z" transform="translate(-508.63 -42.71)"/><path class="cls-8" d="M2111.68,2343c28.29-8.26,59.11,12,83.94,23.28l85.6,38.92c52.58,23.9,105.48,48.52,162.58,59.47,13.74,2.63,19.63-18.44,5.81-21.09-61.15-11.72-117.39-39.09-173.66-64.68l-89.67-40.77c-25.35-11.52-52.09-24.49-80.41-16.21-13.48,3.93-7.74,25,5.81,21.08Z" transform="translate(-508.63 -42.71)"/><path class="cls-8" d="M2124.94,2385.24c-73.85,8.2-146.56,6.6-220.49,1.21-14.07-1-27.16,1.22-37.39,11.62-11.76,11.95-20.36,28.18-29.79,41.93L1774,2532.3c-8,11.64,11,22.58,18.88,11q29.08-42.45,58.18-84.91c9.34-13.63,18.13-27.93,28.21-41,10.56-13.73,27-8.81,42.18-7.51a1040.86,1040.86,0,0,0,203.46-2.78c13.83-1.54,14-23.42,0-21.87Z" transform="translate(-508.63 -42.71)"/><path class="cls-8" d="M1772.31,2538c-13,27.77-27,55.28-39,83.49-5,11.7-4.31,24.79,7,32.49,9.91,6.77,22.79,7.12,34.26,5.09,24.89-4.4,44.83-23.53,59.4-43a225.19,225.19,0,0,0,22.33-36.74c2.86-5.92,5.47-12,7.88-18.1,2.62-6.65,3.71-9.93,10.5-12.88A88.83,88.83,0,0,0,1925,2490c3.7-13.6-17.39-19.4-21.08-5.81a67.19,67.19,0,0,1-18.44,31.31,64.75,64.75,0,0,1-13.82,10.11c-5.4,3-11.45,4.57-16.3,8.43-10.59,8.42-13.5,25.3-19.34,37a203.74,203.74,0,0,1-22.61,36.08c-8,10-17.46,19.19-28.77,25.36a45.86,45.86,0,0,1-18.21,5.74c-3,.24-13.32.89-14.72-3.12-.47-1.32,1.7-5.34,2.12-6.34,1.75-4.15,3.84-8.19,5.75-12.27l10.05-21.46,21.54-46c5.93-12.67-12.91-23.78-18.88-11Z" transform="translate(-508.63 -42.71)"/><path class="cls-8" d="M2113.22,2471.31l-71.15,9.51c-20.59,2.75-43.9,2.54-61.17,15.41-35.62,26.52-68.75,57.28-100.23,88.51q-24.09,23.9-46.73,49.19c-5.64,6.3-12.12,12.82-13,21.65s4.1,16.46,11.88,20.44c14.64,7.48,36.41,2.64,51.27-1.84a131.26,131.26,0,0,0,51-29c17-15.71,27.46-36.51,48.27-48.16,19.61-11,42.3-15.28,64.11-19.57,13.8-2.71,8-23.79-5.81-21.08-31.22,6.14-64,13.47-88.37,35.4-13.51,12.17-22.47,28.43-36.32,40.33a107.49,107.49,0,0,1-43.8,22.41c-7.34,1.85-17.34,4.4-25,3.06-4.79-.84-4.46-1-1.45-5.1,3.19-4.33,7.38-8.24,11-12.21q19.42-21.24,39.91-41.49,40.94-40.49,85.77-76.76c8.13-6.58,15.41-12.67,25.9-14.8,11.45-2.32,23.39-3.25,35-4.8l69-9.23c13.74-1.83,13.93-23.72,0-21.86Z" transform="translate(-508.63 -42.71)"/><path class="cls-8" d="M2033.63,2579.94a562.65,562.65,0,0,0,95.4,5.3c14-.45,14.1-22.31,0-21.86a530.4,530.4,0,0,1-89.59-4.52c-5.84-.81-11.74,1.42-13.45,7.64-1.4,5.11,1.75,12.63,7.64,13.44Z" transform="translate(-508.63 -42.71)"/><path class="cls-8" d="M2124.6,2580.1c105.62,104.07,264,98.85,398,66,13.66-3.35,7.87-24.44-5.81-21.08-126.17,31-276.95,38-376.73-60.33-10-9.88-25.51,5.57-15.46,15.46Z" transform="translate(-508.63 -42.71)"/><path class="cls-8" d="M2521.34,2645.33q151.32,15.54,303.32,22.75c14.07.67,14-21.2,0-21.86q-151.93-7.21-303.32-22.75c-14-1.44-13.88,20.44,0,21.86Z" transform="translate(-508.63 -42.71)"/><path class="cls-8" d="M2740,2665.79c.12.91.41,2.75.11.79.16,1.07.28,2.16.41,3.24.23,1.85.43,3.7.63,5.56q.6,5.79,1,11.61.81,11.63.82,23.29c0,5.72,5,11.2,10.93,10.93s10.94-4.8,10.93-10.93a363.45,363.45,0,0,0-3.76-50.3c-.36-2.52-3-5.32-5-6.54a10.92,10.92,0,0,0-14.95,3.93c-1.47,2.78-1.54,5.34-1.1,8.42Z" transform="translate(-508.63 -42.71)"/><path class="cls-8" d="M2100.58,2328.29l-118.92,17.56-59.45,8.78c-19,2.8-38.66,4.42-57.35,8.76-16.59,3.85-27,13.93-36.94,27.21-12.07,16.18-23.89,32.56-35.83,48.84L1720,2537.81c-10.26,14-28,31.14-15.84,49.18,11.17,16.64,31.47,14.28,48.17,9.09,13.4-4.17,7.68-25.28-5.81-21.09-6.92,2.16-30,8.33-22.11-6.35,5.16-9.54,13.4-18.33,19.81-27.08l37.41-51,37.41-51,18.7-25.5c6-8.18,11.64-18,19.93-24.1,8.11-6,18.9-6.62,28.56-8.06l30.83-4.55,61.66-9.1,127.72-18.86c13.87-2.05,8-23.12-5.81-21.09Z" transform="translate(-508.63 -42.71)"/><path class="cls-8" d="M1909.28,2500.33l61.28,10.82c5.61,1,12-1.51,13.45-7.64,1.21-5.32-1.62-12.38-7.64-13.44l-61.27-10.82c-5.61-1-12.06,1.5-13.45,7.63-1.21,5.33,1.61,12.39,7.63,13.45Z" transform="translate(-508.63 -42.71)"/><path class="cls-8" d="M1741.43,2402.79a603.62,603.62,0,0,1-93.71,16.14c-14.69,1.32-29.44,1.35-44.11,2.6-11.65,1-23.62,3.57-32.22,12.11-20.53,20.38-5.36,50.43,14.22,64.44,11,7.86,24.77,15.28,38.16,17.69,15,2.7,26.23-3.65,39.74-8.87,31.32-12.1,66.43,1.15,98.89-2.8,13.8-1.67,14-23.56,0-21.86-30.87,3.75-61.81-6-92.56.11-15,3-29.39,15.38-45.08,11.28-12.85-3.36-30.1-12.69-37.44-24-8.56-13.15-1.28-23.68,12.67-25.88,15-2.36,30.81-1.52,46-2.83a639.41,639.41,0,0,0,101.27-17.08c13.64-3.43,7.86-24.53-5.81-21.08Z" transform="translate(-508.63 -42.71)"/><path class="cls-8" d="M1524.87,2367.11l81.39-59.53c12.74-9.32,25.93-21.5,41-26.79,16.52-5.77,26.45,5.21,36.15,17a925.58,925.58,0,0,0,64.5,71.23c11.25,11.12,22.65,22.36,34.82,32.48,10.79,9,21.79,14.54,36,11.94,13.83-2.52,8-23.59-5.81-21.08-7.83,1.43-15.41-6.82-20.59-11.46q-9.37-8.4-18.45-17.11-18.21-17.37-35.37-35.79-16.44-17.64-31.88-36.19c-9.13-11-17.73-23.6-30.83-30.2-28.39-14.29-55.33,8.58-77.08,24.49l-84.94,62.12c-11.24,8.23-.35,27.21,11,18.88Z" transform="translate(-508.63 -42.71)"/><path class="cls-8" d="M1538.85,2431.26a101.38,101.38,0,0,0,30.84-14.6c9-6.26,17.23-13.56,26.44-19.5,19.77-12.78,43.09-18.53,63.49-30.13,12.23-7,1.23-25.86-11-18.88-19.87,11.29-42.43,17-61.88,29.1-18.14,11.25-32.54,27-53.67,32.92-13.54,3.77-7.79,24.87,5.81,21.09Z" transform="translate(-508.63 -42.71)"/><path class="cls-8" d="M1612,2263.07c-23.4-3.37-43.54,7.79-64.08,17.41l-64.64,30.28c-5.34,2.51-6.71,10.19-3.92,15,3.21,5.48,9.59,6.44,15,3.92l58.17-27.25c9-4.24,18-8.73,27.21-12.65,8.1-3.45,17.53-6.88,26.49-5.59,5.84.84,11.74-1.44,13.45-7.64,1.41-5.13-1.76-12.6-7.64-13.44Z" transform="translate(-508.63 -42.71)"/><path class="cls-8" d="M1615.38,2386c7,8.56,17.32,13.09,26.55,18.73,1,.61,2,1.24,2.94,1.9.52.36,1,.75,1.55,1.12,1.09.77-1.89-1.59-.44-.33a54.85,54.85,0,0,1,5.43,5.35c1.25,1.43-1.09-1.58-.38-.48.34.52.7,1,1,1.55s.53.87.77,1.32.37.72.54,1.09c-.2-.51-.41-1-.62-1.51.33,1.16.77,2.27,1,3.45.47,1.95-.07-2.67-.06-.51,0,.62,0,1.23,0,1.85-.09,5.72,5.1,11.19,10.93,10.93a11.14,11.14,0,0,0,10.94-10.93c.22-13.77-9.23-24.62-20-32-4.38-3-9.14-5.36-13.7-8.06-1.15-.67-2.29-1.37-3.4-2.09s-2.18-1.88-3.26-2.27c1.34,1,1.56,1.21.67.49l-.76-.63c-.49-.43-1-.87-1.45-1.32a36,36,0,0,1-2.9-3.15c-3.64-4.45-11.74-4.06-15.46,0-4.33,4.72-3.88,10.72,0,15.46Z" transform="translate(-508.63 -42.71)"/><path class="cls-8" d="M1609,2524.71a190.89,190.89,0,0,0,116,30c5.89-.41,10.94-4.73,10.94-10.93,0-5.6-5-11.34-10.94-10.93a171,171,0,0,1-105-27c-11.86-7.66-22.83,11.26-11,18.88Z" transform="translate(-508.63 -42.71)"/><path class="cls-8" d="M1911.12,2375.28l87.68-43.08c11.72-5.75,27.3-18.19,40.48-12.68,14.93,6.23,29.29,14.78,43.51,22.47,12.38,6.69,23.43-12.18,11-18.88-15.84-8.57-31.93-18.25-48.75-24.76-16.57-6.4-29.81,1.47-44.56,8.71l-100.44,49.34c-12.62,6.2-1.56,25.07,11,18.88Z" transform="translate(-508.63 -42.71)"/><path class="cls-8" d="M1982.68,2333.36a355.61,355.61,0,0,1,31.84-34.14c10.34-9.67,24.09-25,38.06-29,7.64-2.14,17.08,1.07,24.62,2.41,8.28,1.47,16.54,3,24.79,4.57,17.14,3.35,34.22,7.13,51,12,56.73,16.34,112.27,47.83,136.28,104.47,5.47,12.91,24.31,1.78,18.88-11-26.68-63-90.37-98.17-153.37-115.66-18.2-5-36.69-8.92-55.24-12.4-16.19-3-36.41-10-52.78-5.41-15.86,4.48-30,18.6-42,29.33a355.11,355.11,0,0,0-37.59,39.39c-8.87,10.79,6.51,26.34,15.46,15.46Z" transform="translate(-508.63 -42.71)"/><path class="cls-8" d="M2243.4,2106.22c-14.1,1.31-30.05.85-43.76,4.53-11.29,3-15.41,13-15.33,23.83.22,29.2-25.95,41.51-48.88,53.1l-78.59,39.72c-10.23,5.17-24,9.75-30.13,20.3-5.88,10.16-2.56,21.69,6.69,28.15,11.56,8.08,22.5-10.87,11-18.87,2.57,1.79,1.86.78,5.08-1.3,1.84-1.18,3.9-2.09,5.85-3.08,5.35-2.73,10.72-5.42,16.08-8.13l32.15-16.25c20.85-10.54,42.44-20.26,62.62-32,16.39-9.57,31-22.55,37.41-40.9a50.88,50.88,0,0,0,2.61-13.34c.18-2.83-.81-10,.48-10.93,2.13-1.49,12.86-.69,16.52-1l20.16-1.88c13.89-1.3,14-23.17,0-21.86Z" transform="translate(-508.63 -42.71)"/><path class="cls-8" d="M2244.38,2226.11c37,7.43,65.09,35.15,87.17,64.28,23.85,31.47,44.94,71,38.55,111.71-2.16,13.77,18.9,19.7,21.08,5.82,7.41-47.22-12.86-91.52-40.75-128.56-25.27-33.57-57.55-65.76-100.24-74.33-13.74-2.76-19.62,18.31-5.81,21.08Z" transform="translate(-508.63 -42.71)"/><path class="cls-8" d="M2700.11,2132.52c-42.52,56.15-87.07,110.82-135.77,161.75-24.53,25.65-50.86,49.33-76,74.32a289.39,289.39,0,0,0-31.92,37.8c-8.74,12.29-17.16,24.22-31.4,30.41-12.88,5.6-1.76,24.44,11,18.88,14.27-6.2,24.23-17.65,33.3-29.93,10-13.56,19.69-26.74,31.57-38.81,25.83-26.23,53.43-50.58,78.89-77.21,50-52.29,95.54-108.53,139.19-166.17,8.5-11.22-10.48-22.12-18.88-11Z" transform="translate(-508.63 -42.71)"/><path class="cls-8" d="M534.32,1546c-6.21-3-4.23-13-.44-17.49,6.39-7.56,19-7.55,28-8.13q6.6-.42,13.2-.93c14.92-1.16,29.84-2.48,44.76-3.81q72.67-6.48,145.32-13.49c113.31-10.71,226.59-21.71,339.93-32.16,34.51-3.18,69.08-7,103.69-8.88,14-.78,14.08-22.65,0-21.87-88.12,4.89-176.19,15.62-264,24-111.55,10.61-223.06,21.61-334.68,31.43-15.11,1.33-30.22,2.71-45.36,3.7-17.19,1.13-36,2.35-47.94,16.61S505,1556,523.28,1564.84c12.61,6.13,23.71-12.72,11-18.88Z" transform="translate(-508.63 -42.71)"/><path class="cls-8" d="M1210.57,1461.72c24.93-3.37,37.38,30.3,42.43,48.67,2.75,10,4.81,20.16,7.38,30.2,1.67,6.51,3.46,13,5.23,19.48q10.53,38.75,21.32,77.42,37.21,134.28,74.94,268.41,46.88,167.07,94.16,334,42.23,149,85.09,297.74c15.4,53.2,29.35,107.33,47.71,159.62.6,1.69,1.18,3.39,1.88,5.05,5.39,12.77,26.55,7.16,21.09-5.81-6-14.18-9.77-29.57-14.21-44.27-9.61-31.8-18.92-63.71-28.2-95.61Q1526.76,2410,1485.31,2263q-48.11-169.54-95.72-339.24-39.22-139.74-78.11-279.59-11.76-42.33-23.37-84.68c-8.66-31.74-12.24-69.1-32.18-95.4-12.55-16.56-30.26-26.27-51.18-23.45-13.87,1.88-8,22.95,5.82,21.09Z" transform="translate(-508.63 -42.71)"/><path class="cls-8" d="M515.3,1557.49c12.2,35.67,22.91,71.91,34.2,107.88q35.71,113.81,71,227.74,41.9,134.94,83.31,270,36.46,119,72.13,238.32c12.67,42.71,26.72,85.52,36.37,129.05.54,2.46.82,5.43.45,1.9,1.44,13.86,23.32,14,21.86,0-1.3-12.52-5.42-24.92-8.74-37-6.81-24.79-14-49.47-21.28-74.13-22.4-76.14-45.51-152.07-68.7-228q-41.61-136.22-83.84-272.23-36.83-118.82-74-237.53c-13.33-42.55-26-85.37-40.31-127.62-.48-1.41-.93-2.83-1.41-4.24-4.53-13.24-25.65-7.55-21.08,5.81Z" transform="translate(-508.63 -42.71)"/><path class="cls-8" d="M818.39,2541.24c12.53,29.78,42.8,34.16,71.22,39.46,13.93,2.59,27.83,5.3,41.74,8q80.39,15.53,160.7,31.41c132.74,26.15,265.49,52.37,397.9,80.19,24.43,5.14,48.87,10.31,73.22,15.84,7.51,1.7,15,3.42,22.5,5.33,2.37.6,4.71,1.26,7.07,1.89,1.4.38,6.41,2.43,1.59.31,12.76,5.6,23.9-13.23,11-18.88-8.94-3.92-18.87-5.69-28.33-7.89-18.88-4.39-37.84-8.46-56.79-12.5-59.51-12.69-119.14-24.8-178.77-36.84q-190.12-38.39-380.53-75.34-28.65-5.57-57.3-11.05c-20.95-4-55-3.86-64.16-25.73-5.38-12.78-26.55-7.16-21.09,5.81Z" transform="translate(-508.63 -42.71)"/><path class="cls-8" d="M841.14,2556.61c-10.44,15.25-4.72,41.52,13.12,49a69.29,69.29,0,0,0,9.37,2.73c15.57,4,31.32,7.39,47,10.85,57.52,12.66,115.21,24.6,172.89,36.53q207.2,42.86,414.67,84.26c33.89,6.79,67.72,13.91,101.69,20.3,13.75,2.59,19.64-18.48,5.81-21.08-86.71-16.31-173.1-34.63-259.57-52.12-133.08-26.93-266.2-53.75-398.94-82.29-21.65-4.66-43.31-9.32-64.87-14.39-5.83-1.38-11.69-2.7-17.45-4.35a23.1,23.1,0,0,1-4.24-1.3c-1.46-.77,2.28,2,1.45.58-3.63-6.07-6.54-11.11-2.07-17.65,8-11.64-11-22.59-18.88-11Z" transform="translate(-508.63 -42.71)"/><path class="cls-8" d="M1606,2767.42c213.31-6.08,426.6-16.83,639.34-33.66,28.63-2.26,57.22-4.93,85.68-8.85,14.44-2,28.84-4.33,43.15-7.16,14-2.78,26.72-7.68,40.23-12.25,5-1.71,7.43-5.46,8-10.54,1.31-11.3,1.35-22.6,1.46-33.95.14-14.07-21.72-14.09-21.86,0-.12,11.35-.15,22.65-1.46,33.95l8-10.55c-11.31,3.83-22.08,8.43-33.79,11-12.82,2.76-25.79,4.95-38.76,6.91-25.73,3.88-51.66,6.4-77.59,8.57-52,4.34-104.05,7.86-156.11,11.3q-158.16,10.46-316.56,17.1-89.87,3.77-179.77,6.32c-14,.4-14.09,22.26,0,21.86Z" transform="translate(-508.63 -42.71)"/><path class="cls-8" d="M1656.05,2723.41q269.51-7.29,537.87-35.21c13.85-1.44,14-23.32,0-21.86q-268.15,27.9-537.87,35.2c-14,.38-14.1,22.25,0,21.87Z" transform="translate(-508.63 -42.71)"/><path class="cls-8" d="M1555.54,2527.58l53.15-3.81c5.69-.4,11.21-4.73,10.93-10.93-.25-5.57-4.82-11.37-10.93-10.93l-53.15,3.8c-5.69.41-11.21,4.74-10.93,10.94.24,5.57,4.82,11.36,10.93,10.93Z" transform="translate(-508.63 -42.71)"/><path class="cls-8" d="M1546.62,2500.56l32.49,3.3c2.62.27,5.94-1.41,7.73-3.2a11.15,11.15,0,0,0,3.2-7.73,11,11,0,0,0-3.2-7.73,12.43,12.43,0,0,0-7.73-3.2l-32.49-3.31c-2.62-.26-5.94,1.42-7.73,3.21a10.94,10.94,0,0,0,0,15.46,12.51,12.51,0,0,0,7.73,3.2Z" transform="translate(-508.63 -42.71)"/><path class="cls-8" d="M3981,2380.2c-16.18,86.49-41.07,171.35-54.6,258.33-3.47,22.29-4.74,44.2-.89,66.53,3.73,21.65,11.38,42.44,18.33,63.2,9.46,28.28,18.82,56.59,28.29,84.86,4.45,13.27,25.58,7.58,21.09-5.81-9.1-27.13-18.07-54.29-27.14-81.42-6.9-20.62-14.55-41.22-18.74-62.61-4.42-22.6-2.3-45.25,1.61-67.77,14.56-83.82,37.49-165.89,53.13-249.49,2.58-13.76-18.49-19.65-21.08-5.82Z" transform="translate(-508.63 -42.71)"/><path class="cls-8" d="M3373.66,2784.28c47.18,2.44,94.3,9.75,141.05,16.28,77.14,10.78,154.13,22.67,231.07,34.74,177.4,27.82,354.55,57.13,531.84,85.59,74.09,11.89,148.18,23.84,222.45,34.47,13.77,2,19.71-19.1,5.82-21.08-151.26-21.64-302-47.29-452.8-71.75-170.5-27.65-341-55.76-512-80.15-55.45-7.9-111.43-17.07-167.44-20-14.07-.73-14,21.14,0,21.86Z" transform="translate(-508.63 -42.71)"/><path class="cls-8" d="M2511.92,2644c77.46,11.54,154.82,23.69,232.16,36,13.76,2.2,19.69-18.87,5.81-21.08-77.34-12.31-154.7-24.47-232.16-36-13.76-2.05-19.7,19-5.81,21.09Z" transform="translate(-508.63 -42.71)"/><path class="cls-8" d="M2724.5,704.61a506.6,506.6,0,0,1,12.83,80.07c.46,5.89,4.7,10.94,10.94,10.94,5.56,0,11.39-5,10.93-10.94a544.27,544.27,0,0,0-13.61-85.88c-1.39-5.74-7.88-9.17-13.45-7.64a11.12,11.12,0,0,0-7.64,13.45Z" transform="translate(-508.63 -42.71)"/><path class="cls-8" d="M3526.94,499.27c70.06,50.31,101.9,139,116.93,220.62,17.07,92.63,15,187.52,29.38,280.54,8.27,53.39,19.52,106.28,26.8,159.83,1.89,13.88,23,8,21.09-5.81-6.69-49.21-16.72-97.86-24.74-146.86s-11.81-98.22-15.32-147.69c-6.49-91.4-14.63-184.87-54.42-268.81-20.52-43.28-49.57-82.61-88.69-110.7-11.45-8.22-22.37,10.74-11,18.88Z" transform="translate(-508.63 -42.71)"/><path class="cls-8" d="M3335.34,775.44c-10.61,3.55-16.6,13.1-17.05,24.06-.46,11.23,5.95,20.6,14.82,26.86,8.39,5.92,19.44,8.87,29.5,10.3,12.66,1.79,25.34.6,35.49-7.84a31.83,31.83,0,0,0,9.74-14.74c2.11-6.75,1.2-13.14-1.52-19.52-2.25-5.28-10.43-6.84-15-3.92-5.49,3.54-6.32,9.31-3.92,15-.54-1.29-.62-1.36-.24-.2s.25,1.09,0-.43c0,.83,0,1.65,0,2.49.19-3.12-.42.36-.4.8-.26.76-.16.55.32-.61-.24.53-.5,1-.78,1.55a25.88,25.88,0,0,1-1.42,2.21c1.52-2.14-.88.69-1.23,1.08-1.44,1.58,1.43-.68-.56.48-.76.44-1.5.9-2.28,1.32,1.92-1-1.89.6-2.43.74-.05,0-3.46.71-1.5.42a36.88,36.88,0,0,1-7.93.1c-.19,0-3.47-.4-1.66-.14-1.52-.22-3-.52-4.53-.84-2.23-.48-4.45-1-6.64-1.66s-4.06-1.27-6-2c2.14.82-1-.48-1.4-.69-1-.51-2-1.05-2.94-1.65-.57-.36-2.37-1.7-.89-.5-1-.8-1.84-1.72-2.76-2.59-1.55-1.46.52,1.22-.64-.8-.21-.38-1.32-3-.85-1.41s-.3-1.35-.39-1.64c-.68-2.3,0,2.24,0-.17,0-.48-.33-2.78.06-3.09-.06.46-.12.93-.17,1.39.09-.5.2-1,.33-1.48.69-2.53-.24-.41-.07-.18.21-.44.45-.87.7-1.29.65-1,.51-.82-.44.47a7.74,7.74,0,0,1,.73-.78c.6-.56.32-.37-.84.56a9.68,9.68,0,0,1,1.23-.76c-1.51.57-1.69.65-.55.26,5.41-1.81,9.52-7.62,7.63-13.45-1.74-5.39-7.64-9.58-13.44-7.64Z" transform="translate(-508.63 -42.71)"/><path class="cls-8" d="M3148.83,1204.46q0,16.55.07,33.1c0,8.52-.87,17.92,2,26.13,7,20.15,26.71,13.82,40.95,6.45,32.91-17,68.49-29.89,98.64-51.82,29.14-21.2,47.06-52.24,63.47-83.62,8.35-16,16.23-32.26,25.32-47.85,2.28-3.91,3.54-6.73,7.66-8.45,5-2.07,12.44-1,17.73-1.12l38.25-.67c35.71-.62,80.83-.63,101-35.92,7-12.23-11.88-23.26-18.88-11-15.55,27.18-55.22,24.63-82.14,25.1-19.29.33-41.1-2.11-60,1.77-15.47,3.17-21.9,17.85-28.74,30.47-15.39,28.4-28.47,58.39-47.52,84.64s-47,41.58-75.74,55.56c-16.65,8.11-33.63,15.56-50.07,24.07-1.38.72-2.76,1.57-4.18,2.2-3.67,1.62-4.44,2.91-5.76-.76-1.25-3.47-.08-9.39-.09-13.07q0-17.6-.08-35.17c0-14.06-21.89-14.09-21.86,0Z" transform="translate(-508.63 -42.71)"/><path class="cls-8" d="M3088.11,1125.06q-20.82,26.78-41.64,53.55c-11.55,14.88-21.37,29.1-15.38,48.68,5.82,19,19.69,34.57,25.77,53.51,3.17,9.89,4.56,21,.18,30.8-3.32,7.41-9.07,13.85-13.16,20.86-5.31,9.11-8.38,18.85-2.75,28.62,6.51,11.29,19.78,21.3,31,27.43,28.07,15.33,64.21,16.89,94.45,7.62,13.41-4.11,7.69-25.22-5.81-21.08-25.12,7.7-55.76,7.17-79-6.17-5-2.88-21.84-13.46-22-19.76-.07-2.33,3.75-6.9,5-8.92,4-6.35,8.65-12.41,11.85-19.21,14.07-29.93-4.17-59.65-18-85.63-4.63-8.7-10.09-17.82-6-27.79,3.09-7.6,9.88-14.21,14.87-20.64l36.09-46.41c8.54-11-6.83-26.56-15.46-15.46Z" transform="translate(-508.63 -42.71)"/><path class="cls-8" d="M3329.21,1216.3c-46,49.93-117.05,73-152.7,133.14-19.61,33.08-25.45,71.86-29.39,109.5a1222.82,1222.82,0,0,0-6.55,134.63,1243.84,1243.84,0,0,0,10.45,152.1c1.43,11,13.58,14.57,20.37,5.51,61.83-82.34,135.4-153,216.72-215.8,37.13-28.69,74.35-58.26,101.13-97.35,24.79-36.16,37.73-79.79,39-123.46,1.45-49.41-12.4-99.16-40.59-139.87-8-11.5-26.91-.58-18.87,11,49.12,71,50.57,169.77,1.56,241.27-26.12,38.11-63.79,66.72-100,94.66-37.75,29.15-74.22,59.63-108.31,93a1100.94,1100.94,0,0,0-109.57,125.45l20.37,5.52a1236.91,1236.91,0,0,1-6.53-258.12c3.1-38.51,5.93-79.73,22.72-115.17,14.79-31.21,40.87-53.33,68.59-72.85,30.09-21.17,61.88-40.5,87-67.77,9.52-10.33-5.9-25.83-15.46-15.46Z" transform="translate(-508.63 -42.71)"/><path class="cls-8" d="M3484.74,1210c18.36,26.57,28.94,57.35,46,84.69,15.48,24.88,36.48,45.47,60.48,62.12,54.45,37.77,120.56,51.7,184.36,64.75,12.58,2.58,18.31-12.65,8.43-20-27.21-20.17-16.28-62.89-15-91,1.55-34.78-10.33-67.89-22.22-100-18.39-49.71-44.36-103.88-96.72-124.7-37.64-15-79-6.34-117.09,2.21-13.72,3.08-7.92,24.17,5.81,21.08,41.09-9.23,86.25-18.17,123.28,7.75,27.8,19.44,44.6,52,57.11,82.62,15.58,38.15,30.56,77.91,27.41,119.68-2.76,36.51-6.64,76.77,26.41,101.27l8.43-20c-60.89-12.46-123.73-25.26-176.15-60.5-23.8-16-44.08-36.49-58.6-61.28-15.29-26.11-25.72-54.75-43-79.74-7.94-11.5-26.9-.58-18.88,11Z" transform="translate(-508.63 -42.71)"/><path class="cls-8" d="M3509.7,1117.86c68.08-2.26,114.85,55.85,152.42,104.66,3.62,4.71,9.36,7.11,15,3.92,4.64-2.63,7.52-10.28,3.93-15-42.42-55.11-94.62-118-171.3-115.48-14,.46-14.09,22.33,0,21.86Z" transform="translate(-508.63 -42.71)"/><path class="cls-8" d="M3359.12,1219.07a333.53,333.53,0,0,1,41.05-73.54c2-2.66,3.95-5.29,6-7.88.48-.6,6.24-6.64,6.11-7.08.42,1.45-4.92.28-4.95.31.13-.13,1.21,1.81,1.45,2.25a92.52,92.52,0,0,1,4.34,9.24,171.9,171.9,0,0,1,11.36,41.52c.87,5.85,8.25,9.07,13.45,7.64,6.26-1.72,8.51-7.59,7.64-13.45a186.14,186.14,0,0,0-15.08-50.15c-3.47-7.59-8-15.75-16.86-17.8-10.57-2.44-17.57,5.29-23.45,12.72a361,361,0,0,0-52.15,90.4c-2.19,5.49,2.39,12,7.64,13.45,6.22,1.71,11.25-2.13,13.44-7.63Z" transform="translate(-508.63 -42.71)"/><path class="cls-8" d="M3645.76,1375.51a461.44,461.44,0,0,0-159.55,88.23c-10.74,9.12,4.79,24.52,15.46,15.46a434.4,434.4,0,0,1,149.9-82.61c13.37-4.22,7.66-25.33-5.81-21.08Z" transform="translate(-508.63 -42.71)"/><path class="cls-8" d="M3505.5,1458.18a817.9,817.9,0,0,0,61.73,103.36q2-7.49,3.92-15l-98.62,69.51c-29.74,21-59.08,41.6-86.56,65.56a812,812,0,0,0-96.67,100.18,832.09,832.09,0,0,0-88.06,132.52c-6.63,12.41,12.24,23.47,18.88,11a806.75,806.75,0,0,1,168.48-216.84c44.59-40.61,94.93-73.56,144.1-108.21l49.49-34.88c4.51-3.18,7.55-9.79,3.92-15a817.07,817.07,0,0,1-61.73-103.35c-6.31-12.58-25.18-1.52-18.88,11Z" transform="translate(-508.63 -42.71)"/><path class="cls-9" d="M2233.55,1159.26c-40.81-12.88-95.77-39.92-137-61.68,97.54-102.88,156.56-237.13,156.56-384,0-323.87-287.05-586.42-641.15-586.42S970.78,389.71,970.78,713.58s287,586.43,641.16,586.43c150.32,0,288.55-47.33,397.88-126.57,31.6,9.86,83.89,23.94,137.72,28.83,86,7.82,199.38-19.55,199.38-19.55S2307.83,1182.72,2233.55,1159.26Z" transform="translate(-508.63 -42.71)"/></svg>