<svg id="깒귽깂_1" data-name="깒귽깂 1" xmlns="http://www.w3.org/2000/svg" viewBox="0 0 1655.76 924.73"><defs><style>.cls-1{fill:#fff;}.cls-2{fill:#4c4c4c;}.cls-3{fill:#f6bba6;}.cls-4{fill:#fff4eb;}</style></defs><path class="cls-1" d="M1132.13,349.7c-66.73,62.09-45.47,130.7-45.93,162.43-.61,41.74-22.86,63.46-23.33,72.63s18.34,9.27,22.55,26.2c7.12,28.65,14.14,86.46,37.07,92.12,40.83,10.08,73.56-2.52,73.56-2.52,20.23-6.41-7.91,78.19-17.91,94.92,9.14,23.38,54.78,16.5,134.49-13.35-8.13-20.83-11.11-93.09,2.95-110.18,46.32-56.31,138.14-150.34,90-261.79C1358.11,300.11,1192.12,293.9,1132.13,349.7Z" transform="translate(-51.29 -73.73)"/><path class="cls-2" d="M1313.74,692.4a5.43,5.43,0,1,0-10.69-2c-5.43,29.53-2,77,4.51,93.67a5.44,5.44,0,0,0,10.13-4C1311.73,764.88,1308.75,719.58,1313.74,692.4Z" transform="translate(-51.29 -73.73)"/><path class="cls-3" d="M1183.86,312l-12.58,8.65c-39.68-5.54-86.14,49.65-102.24,89.57-23.7,58.72,0,115.11,15.93,117.13-5.57-.28,4.65-74.15,4.65-74.15s12.72,49.85,84.79,63.67l53.22,14.58c16.87,5.05,31.67,40.94,33.37,67.28,5,36.57-16,62.53-22.77,77.23,33.25,12.79,71.49,12.2,113.92.35C1464.11,616.58,1454,447.57,1411,380,1358.2,297.06,1215.6,274.74,1183.86,312Z" transform="translate(-51.29 -73.73)"/><path class="cls-1" d="M1069,410.2c-15.88,39.34-2.34,87.83,7.74,109.43-20.9-80.4,20-155.26,90.16-199.34C1128.28,319.09,1084.56,371.73,1069,410.2Z" transform="translate(-51.29 -73.73)"/><path class="cls-2" d="M1246.75,287.25c-30.54-.84-54.94,7-67,21.2a5.44,5.44,0,0,0,8.28,7.05c10-11.67,31.21-18,58.51-17.39,44.42,1,111.4,21.67,154,76.52C1434.9,419,1447,500.27,1429.33,568c-13.25,50.65-41.4,87.34-79.29,103.32a5.43,5.43,0,0,0,2.12,10.44,5.28,5.28,0,0,0,2.11-.43c41.07-17.32,71.46-56.59,85.58-110.58,18.48-70.69,5.54-156-30.77-202.75C1364.16,310.1,1293.56,288.32,1246.75,287.25Z" transform="translate(-51.29 -73.73)"/><path class="cls-1" d="M1248.66,557.18l.89,42.41c10.75-1.63,31.74-18,30.56-40.77C1279.13,540,1257.34,536.73,1248.66,557.18Z" transform="translate(-51.29 -73.73)"/><path class="cls-2" d="M1269.31,538.08c-10.42-1.83-20.5,4.82-25.66,17a5.44,5.44,0,0,0,10,4.25c3.78-8.89,9.77-11.26,13.76-10.52,4.19.74,7,4.69,7.26,10.31,1,20.1-18,33.9-25.94,35.12a5.44,5.44,0,0,0,.8,10.81,5.81,5.81,0,0,0,.83-.07c12.65-1.91,36.53-20,35.16-46.42C1285,547.75,1278.61,539.73,1269.31,538.08Z" transform="translate(-51.29 -73.73)"/><path class="cls-2" d="M1129.22,537.34c-6,0-10.77,7.09-10.77,15.83s4.82,15.83,10.77,15.83,10.77-7.08,10.77-15.83S1135.17,537.34,1129.22,537.34Z" transform="translate(-51.29 -73.73)"/><path class="cls-2" d="M1150.8,619l-62,3.3a5.44,5.44,0,0,0,.57,10.86l54.32-2.89c-4.32,12.24-16.29,36.49-43.57,37.08a5.44,5.44,0,0,0,.11,10.87h.12c44.94-1,55.93-52.18,56-52.7a5.41,5.41,0,0,0-1.2-4.63A5.29,5.29,0,0,0,1150.8,619Z" transform="translate(-51.29 -73.73)"/><path class="cls-2" d="M1239.47,533.83c-93.16-38.43-84.93-143.45-84.54-147.9A5.43,5.43,0,0,0,1150,380a5.51,5.51,0,0,0-5.91,4.92c-.1,1.17-9.42,117.4,91.22,158.92a5.44,5.44,0,1,0,4.15-10Z" transform="translate(-51.29 -73.73)"/><path class="cls-2" d="M1181.19,512.6c-56.75-9.87-90.67-40.61-93-84.36a5.34,5.34,0,0,0-5.73-5.13,5.43,5.43,0,0,0-5.13,5.73c2.65,48.5,40.8,83.82,102,94.47a5.94,5.94,0,0,0,.93.08,5.44,5.44,0,0,0,.93-10.79Z" transform="translate(-51.29 -73.73)"/><path class="cls-2" d="M1172,315.25c-23.91-3.34-64.41,24-90.3,60.86-19.07,27.18-46.13,82.15-13,144.77a5.46,5.46,0,0,0,4.82,2.89,5.44,5.44,0,0,0,4.8-8c-30.39-57.51-5.33-108.29,12.32-133.45,25.42-36.22,62.55-58.72,79.9-56.33a5.44,5.44,0,0,0,1.5-10.77Z" transform="translate(-51.29 -73.73)"/><path class="cls-2" d="M1261.59,604.77a5.45,5.45,0,0,0-4.68,6.1c0,.34,4.13,34.39-22.54,61.24a5.44,5.44,0,0,0,7.71,7.67c30.56-30.77,25.82-68.75,25.61-70.35A5.44,5.44,0,0,0,1261.59,604.77Z" transform="translate(-51.29 -73.73)"/><path class="cls-4" d="M1165.17,555.35a26.67,26.67,0,1,0,25.25,28A26.67,26.67,0,0,0,1165.17,555.35Z" transform="translate(-51.29 -73.73)"/><path class="cls-2" d="M1194.11,695.48c-.32.12-31.78,11.84-70.32,2.32-15.31-3.78-23.52-43.22-29-69.32-1.44-6.87-2.79-13.36-4.14-18.82-2.86-11.48-11-16.58-17-20.31-2.3-1.43-5.44-3.39-5.39-4.31.08-1.59,2.58-6.1,4.79-10.08,6.77-12.21,18.11-32.64,18.55-62.75.08-5.82-.5-12.54-1.18-20.33-.83-9.46-1.76-20.19-1.68-31.81a5.44,5.44,0,1,0-10.87-.08c-.09,12.14.87,23.13,1.72,32.83.65,7.49,1.21,14,1.13,19.23-.39,27.38-10.49,45.59-17.18,57.63-3.44,6.21-5.93,10.69-6.14,14.8-.38,7.31,5.4,10.92,10.5,14.1s10.41,6.49,12.2,13.7c1.31,5.26,2.64,11.65,4,18.41,6.7,32.19,15,72.25,37,77.67,42,10.37,75.43-2.18,76.51-2.62a3.13,3.13,0,0,1,.38-.1c4.66,7.66-8.82,57.21-18.69,73.72a5.44,5.44,0,1,0,9.33,5.58c7.74-12.94,28.77-72.33,17.64-86.39C1203.55,695,1199.21,693.85,1194.11,695.48Z" transform="translate(-51.29 -73.73)"/><path class="cls-1" d="M1361.36,982.67a6,6,0,0,1,1.29-3.59c-.73-21.2-2.76-45.15-6-69.1a6,6,0,0,1-4.55,2.11,6.14,6.14,0,0,1,0-12.28,6,6,0,0,1,3.28,1.08c-1-6.55-2-13.08-3.13-19.52l-.15,0a6.1,6.1,0,0,1-2-11.87c-2.51-12.87-5.37-25.23-8.54-36.63a6,6,0,0,1-4.78,2.46,6.14,6.14,0,1,1,2-11.86c-4.29-13.86-9.1-25.88-14.37-35.07a6,6,0,0,1-3,.9,6.14,6.14,0,0,1-6.14-6.14,6.05,6.05,0,0,1,2.3-4.68,32.32,32.32,0,0,0-7.11-6.41,6.12,6.12,0,0,1-4.4,1.88,6.06,6.06,0,0,1-5.81-4.51c-8.86.22-20.16,5.06-35.13,10.49a6,6,0,0,1,1,3.23,6.09,6.09,0,0,1-12.16.59,217.06,217.06,0,0,1-38.43,8.94,6,6,0,0,1,4.55,5.81,6.14,6.14,0,1,1-12.27,0,6.06,6.06,0,0,1,3.16-5.26,205.25,205.25,0,0,1-23.14,1.26,6.06,6.06,0,0,1,1.57,4,6.14,6.14,0,0,1-12.28,0,6,6,0,0,1,1.36-3.69,10.83,10.83,0,0,0-8,6.74l-2.34,6.2A6.12,6.12,0,0,1,1168,820a6,6,0,0,1-3.79-1.44c-3.54,9.68-7.84,21.77-12.44,35.38a5.4,5.4,0,0,1,.89-.18,6.14,6.14,0,1,1-4.33,10.48c-3.7,11.2-7.5,23.19-11.2,35.59.07,0,.12,0,.19,0a6.14,6.14,0,0,1,0,12.28,6,6,0,0,1-3.43-1.19c-3.37,11.71-6.58,23.64-9.46,35.47a6.13,6.13,0,0,1-2.46,11.75c-.1,0-.19-.06-.3-.06-1.57,7-3,13.87-4.27,20.62a6,6,0,0,1,4.57-2.15,6.14,6.14,0,1,1-5.69,8.35c-.47,2.74-.92,5.47-1.33,8.15h19a5.53,5.53,0,0,1,6.75,0h23.94a5.53,5.53,0,0,1,6.75,0h23.94a5.53,5.53,0,0,1,6.75,0H1226a5.92,5.92,0,0,1,3.37-1.15,6,6,0,0,1,3.38,1.15h23.94a5.51,5.51,0,0,1,6.74,0h23.94a5.53,5.53,0,0,1,6.75,0h23.94a5.53,5.53,0,0,1,6.75,0h23.94a5.53,5.53,0,0,1,6.75,0H1363c0-2.12,0-4.28-.09-6.47A6,6,0,0,1,1361.36,982.67Zm-224-9.2a6.14,6.14,0,1,1,6.14-6.14A6.14,6.14,0,0,1,1137.34,973.47Zm0-30.7a6.14,6.14,0,1,1,6.14-6.13A6.13,6.13,0,0,1,1137.34,942.77Zm15.34,46a6.14,6.14,0,1,1,6.14-6.14A6.14,6.14,0,0,1,1152.68,988.81Zm0-30.69a6.14,6.14,0,1,1,6.14-6.14A6.14,6.14,0,0,1,1152.68,958.12Zm0-30.69a6.14,6.14,0,1,1,6.14-6.14A6.14,6.14,0,0,1,1152.68,927.43Zm0-30.69a6.14,6.14,0,1,1,6.14-6.14A6.14,6.14,0,0,1,1152.68,896.74ZM1168,973.47a6.14,6.14,0,1,1,6.14-6.14A6.14,6.14,0,0,1,1168,973.47Zm0-30.7a6.14,6.14,0,1,1,6.14-6.13A6.13,6.13,0,0,1,1168,942.77Zm0-30.68a6.14,6.14,0,1,1,6.14-6.14A6.14,6.14,0,0,1,1168,912.09Zm0-30.69a6.14,6.14,0,1,1,6.14-6.14A6.14,6.14,0,0,1,1168,881.4Zm0-30.69a6.14,6.14,0,1,1,6.14-6.14A6.14,6.14,0,0,1,1168,850.71Zm15.35,138.1a6.14,6.14,0,1,1,6.14-6.14A6.14,6.14,0,0,1,1183.37,988.81Zm0-30.69a6.14,6.14,0,1,1,6.14-6.14A6.14,6.14,0,0,1,1183.37,958.12Zm0-30.69a6.14,6.14,0,1,1,6.14-6.14A6.14,6.14,0,0,1,1183.37,927.43Zm0-30.69a6.14,6.14,0,1,1,6.14-6.14A6.14,6.14,0,0,1,1183.37,896.74Zm0-30.69a6.14,6.14,0,1,1,6.14-6.14A6.14,6.14,0,0,1,1183.37,866.05Zm0-30.69a6.14,6.14,0,1,1,6.14-6.14A6.13,6.13,0,0,1,1183.37,835.36Zm15.34,138.11a6.14,6.14,0,1,1,6.14-6.14A6.14,6.14,0,0,1,1198.71,973.47Zm0-30.7a6.14,6.14,0,1,1,6.14-6.13A6.13,6.13,0,0,1,1198.71,942.77Zm0-30.68a6.14,6.14,0,1,1,6.14-6.14A6.14,6.14,0,0,1,1198.71,912.09Zm0-30.69a6.14,6.14,0,1,1,6.14-6.14A6.14,6.14,0,0,1,1198.71,881.4Zm0-30.69a6.14,6.14,0,1,1,6.14-6.14A6.14,6.14,0,0,1,1198.71,850.71Zm0-30.69a6.14,6.14,0,1,1,6.14-6.14A6.14,6.14,0,0,1,1198.71,820Zm15.35,168.79a6.14,6.14,0,1,1,6.13-6.14A6.13,6.13,0,0,1,1214.06,988.81Zm0-30.69a6.14,6.14,0,1,1,6.13-6.14A6.13,6.13,0,0,1,1214.06,958.12Zm0-30.69a6.14,6.14,0,1,1,6.13-6.14A6.13,6.13,0,0,1,1214.06,927.43Zm0-30.69a6.14,6.14,0,1,1,6.13-6.14A6.13,6.13,0,0,1,1214.06,896.74Zm0-30.69a6.14,6.14,0,1,1,6.13-6.14A6.13,6.13,0,0,1,1214.06,866.05Zm0-30.69a6.14,6.14,0,1,1,6.13-6.14A6.13,6.13,0,0,1,1214.06,835.36Zm15.34,138.11a6.14,6.14,0,1,1,6.14-6.14A6.13,6.13,0,0,1,1229.4,973.47Zm0-30.7a6.14,6.14,0,1,1,6.14-6.13A6.12,6.12,0,0,1,1229.4,942.77Zm0-30.68a6.14,6.14,0,1,1,6.14-6.14A6.13,6.13,0,0,1,1229.4,912.09Zm0-30.69a6.14,6.14,0,1,1,6.14-6.14A6.13,6.13,0,0,1,1229.4,881.4Zm0-30.69a6.14,6.14,0,1,1,6.14-6.14A6.13,6.13,0,0,1,1229.4,850.71Zm0-30.69a6.14,6.14,0,1,1,6.14-6.14A6.13,6.13,0,0,1,1229.4,820Zm15.35,168.79a6.14,6.14,0,1,1,6.14-6.14A6.14,6.14,0,0,1,1244.75,988.81Zm0-30.69a6.14,6.14,0,1,1,6.14-6.14A6.14,6.14,0,0,1,1244.75,958.12Zm0-30.69a6.14,6.14,0,1,1,6.14-6.14A6.14,6.14,0,0,1,1244.75,927.43Zm0-30.69a6.14,6.14,0,1,1,6.14-6.14A6.14,6.14,0,0,1,1244.75,896.74Zm0-30.69a6.14,6.14,0,1,1,6.14-6.14A6.14,6.14,0,0,1,1244.75,866.05Zm0-30.69a6.14,6.14,0,1,1,6.14-6.14A6.13,6.13,0,0,1,1244.75,835.36Zm0-30.69a6.14,6.14,0,1,1,6.14-6.14A6.14,6.14,0,0,1,1244.75,804.67Zm15.34,168.8a6.14,6.14,0,1,1,6.14-6.14A6.14,6.14,0,0,1,1260.09,973.47Zm0-30.7a6.14,6.14,0,1,1,6.14-6.13A6.13,6.13,0,0,1,1260.09,942.77Zm0-30.68a6.14,6.14,0,1,1,6.14-6.14A6.14,6.14,0,0,1,1260.09,912.09Zm0-30.69a6.14,6.14,0,1,1,6.14-6.14A6.14,6.14,0,0,1,1260.09,881.4Zm0-30.69a6.14,6.14,0,1,1,6.14-6.14A6.14,6.14,0,0,1,1260.09,850.71Zm0-30.69a6.14,6.14,0,1,1,6.14-6.14A6.14,6.14,0,0,1,1260.09,820Zm15.34,168.79a6.14,6.14,0,1,1,6.14-6.14A6.14,6.14,0,0,1,1275.43,988.81Zm0-30.69a6.14,6.14,0,1,1,6.14-6.14A6.14,6.14,0,0,1,1275.43,958.12Zm0-30.69a6.14,6.14,0,1,1,6.14-6.14A6.14,6.14,0,0,1,1275.43,927.43Zm0-30.69a6.14,6.14,0,1,1,6.14-6.14A6.14,6.14,0,0,1,1275.43,896.74Zm0-30.69a6.14,6.14,0,1,1,6.14-6.14A6.14,6.14,0,0,1,1275.43,866.05Zm0-30.69a6.14,6.14,0,1,1,6.14-6.14A6.13,6.13,0,0,1,1275.43,835.36Zm0-30.69a6.14,6.14,0,1,1,6.14-6.14A6.14,6.14,0,0,1,1275.43,804.67Zm15.35,168.8a6.14,6.14,0,1,1,6.14-6.14A6.14,6.14,0,0,1,1290.78,973.47Zm0-30.7a6.14,6.14,0,1,1,6.14-6.13A6.13,6.13,0,0,1,1290.78,942.77Zm0-30.68a6.14,6.14,0,1,1,6.14-6.14A6.14,6.14,0,0,1,1290.78,912.09Zm0-30.69a6.14,6.14,0,1,1,6.14-6.14A6.14,6.14,0,0,1,1290.78,881.4Zm0-30.69a6.14,6.14,0,1,1,6.14-6.14A6.14,6.14,0,0,1,1290.78,850.71Zm0-30.69a6.14,6.14,0,1,1,6.14-6.14A6.14,6.14,0,0,1,1290.78,820Zm0-30.69a6.14,6.14,0,1,1,6.14-6.14A6.14,6.14,0,0,1,1290.78,789.33Zm15.34,199.48a6.14,6.14,0,1,1,6.14-6.14A6.14,6.14,0,0,1,1306.12,988.81Zm0-30.69a6.14,6.14,0,1,1,6.14-6.14A6.14,6.14,0,0,1,1306.12,958.12Zm0-30.69a6.14,6.14,0,1,1,6.14-6.14A6.14,6.14,0,0,1,1306.12,927.43Zm0-30.69a6.14,6.14,0,1,1,6.14-6.14A6.14,6.14,0,0,1,1306.12,896.74Zm0-30.69a6.14,6.14,0,1,1,6.14-6.14A6.14,6.14,0,0,1,1306.12,866.05Zm0-30.69a6.14,6.14,0,1,1,6.14-6.14A6.13,6.13,0,0,1,1306.12,835.36Zm0-30.69a6.14,6.14,0,1,1,6.14-6.14A6.14,6.14,0,0,1,1306.12,804.67Zm15.35,168.8a6.14,6.14,0,1,1,6.13-6.14A6.14,6.14,0,0,1,1321.47,973.47Zm0-30.7a6.14,6.14,0,1,1,6.13-6.13A6.13,6.13,0,0,1,1321.47,942.77Zm0-30.68a6.14,6.14,0,1,1,6.13-6.14A6.14,6.14,0,0,1,1321.47,912.09Zm0-30.69a6.14,6.14,0,1,1,6.13-6.14A6.14,6.14,0,0,1,1321.47,881.4Zm0-30.69a6.14,6.14,0,1,1,6.13-6.14A6.14,6.14,0,0,1,1321.47,850.71Zm0-30.69a6.14,6.14,0,1,1,6.13-6.14A6.14,6.14,0,0,1,1321.47,820Zm15.34,168.79a6.14,6.14,0,1,1,6.13-6.14A6.14,6.14,0,0,1,1336.81,988.81Zm0-30.69a6.14,6.14,0,1,1,6.13-6.14A6.14,6.14,0,0,1,1336.81,958.12Zm0-30.69a6.14,6.14,0,1,1,6.13-6.14A6.14,6.14,0,0,1,1336.81,927.43Zm0-30.69a6.14,6.14,0,1,1,6.13-6.14A6.14,6.14,0,0,1,1336.81,896.74Zm0-30.69a6.14,6.14,0,1,1,6.13-6.14A6.14,6.14,0,0,1,1336.81,866.05Zm15.34,107.42a6.14,6.14,0,1,1,6.14-6.14A6.13,6.13,0,0,1,1352.15,973.47Zm0-30.7a6.14,6.14,0,1,1,6.14-6.13A6.12,6.12,0,0,1,1352.15,942.77Z" transform="translate(-51.29 -73.73)"/><path class="cls-3" d="M1361.36,982.67a6,6,0,0,0,1.5,3.89q-.08-3.67-.21-7.48A6,6,0,0,0,1361.36,982.67Z" transform="translate(-51.29 -73.73)"/><path class="cls-3" d="M1352.15,961.19a6.14,6.14,0,1,0,6.14,6.14A6.13,6.13,0,0,0,1352.15,961.19Z" transform="translate(-51.29 -73.73)"/><path class="cls-3" d="M1321.47,807.74a6.14,6.14,0,1,0,6.13,6.14A6.14,6.14,0,0,0,1321.47,807.74Z" transform="translate(-51.29 -73.73)"/><path class="cls-3" d="M1315.33,783.19a6.14,6.14,0,0,0,6.14,6.14,6,6,0,0,0,3-.9,65.48,65.48,0,0,0-6.85-9.92A6.05,6.05,0,0,0,1315.33,783.19Z" transform="translate(-51.29 -73.73)"/><path class="cls-3" d="M1306.12,792.4a6.14,6.14,0,1,0,6.14,6.13A6.14,6.14,0,0,0,1306.12,792.4Z" transform="translate(-51.29 -73.73)"/><path class="cls-3" d="M1300.31,769.47a6.06,6.06,0,0,0,5.81,4.51,6.12,6.12,0,0,0,4.4-1.88c-.26-.17-.52-.39-.78-.54A17.63,17.63,0,0,0,1300.31,769.47Z" transform="translate(-51.29 -73.73)"/><path class="cls-3" d="M1346,875.26a6.13,6.13,0,0,0,6.13,6.14l.15,0c-.7-4-1.41-7.94-2.17-11.84A6.09,6.09,0,0,0,1346,875.26Z" transform="translate(-51.29 -73.73)"/><path class="cls-3" d="M1321.47,869.12a6.14,6.14,0,1,0,6.13,6.14A6.14,6.14,0,0,0,1321.47,869.12Z" transform="translate(-51.29 -73.73)"/><path class="cls-3" d="M1321.47,838.43a6.14,6.14,0,1,0,6.13,6.14A6.14,6.14,0,0,0,1321.47,838.43Z" transform="translate(-51.29 -73.73)"/><path class="cls-3" d="M1306.12,853.78a6.14,6.14,0,1,0,6.14,6.13A6.13,6.13,0,0,0,1306.12,853.78Z" transform="translate(-51.29 -73.73)"/><path class="cls-3" d="M1336.81,853.78a6.14,6.14,0,1,0,6.13,6.13A6.13,6.13,0,0,0,1336.81,853.78Z" transform="translate(-51.29 -73.73)"/><path class="cls-3" d="M1306.12,823.09a6.14,6.14,0,1,0,6.14,6.13A6.14,6.14,0,0,0,1306.12,823.09Z" transform="translate(-51.29 -73.73)"/><path class="cls-3" d="M1336.81,823.09a6.14,6.14,0,1,0,0,12.27,6,6,0,0,0,4.78-2.46c-.89-3.21-1.8-6.36-2.74-9.4A6.08,6.08,0,0,0,1336.81,823.09Z" transform="translate(-51.29 -73.73)"/><path class="cls-3" d="M1290.78,869.12a6.14,6.14,0,1,0,6.14,6.14A6.14,6.14,0,0,0,1290.78,869.12Z" transform="translate(-51.29 -73.73)"/><path class="cls-3" d="M1290.78,838.43a6.14,6.14,0,1,0,6.14,6.14A6.14,6.14,0,0,0,1290.78,838.43Z" transform="translate(-51.29 -73.73)"/><path class="cls-3" d="M1352.15,930.5a6.14,6.14,0,1,0,6.14,6.14A6.13,6.13,0,0,0,1352.15,930.5Z" transform="translate(-51.29 -73.73)"/><path class="cls-3" d="M1321.47,930.5a6.14,6.14,0,1,0,6.13,6.14A6.14,6.14,0,0,0,1321.47,930.5Z" transform="translate(-51.29 -73.73)"/><path class="cls-3" d="M1352.15,899.81a6.14,6.14,0,0,0,0,12.28,6,6,0,0,0,4.55-2.11c-.4-3-.83-6.06-1.27-9.09A6,6,0,0,0,1352.15,899.81Z" transform="translate(-51.29 -73.73)"/><path class="cls-3" d="M1321.47,899.81a6.14,6.14,0,1,0,6.13,6.14A6.14,6.14,0,0,0,1321.47,899.81Z" transform="translate(-51.29 -73.73)"/><path class="cls-3" d="M1306.12,915.16a6.14,6.14,0,1,0,6.14,6.13A6.13,6.13,0,0,0,1306.12,915.16Z" transform="translate(-51.29 -73.73)"/><path class="cls-3" d="M1336.81,915.16a6.14,6.14,0,1,0,6.13,6.13A6.13,6.13,0,0,0,1336.81,915.16Z" transform="translate(-51.29 -73.73)"/><path class="cls-3" d="M1306.12,884.47a6.14,6.14,0,1,0,6.14,6.13A6.13,6.13,0,0,0,1306.12,884.47Z" transform="translate(-51.29 -73.73)"/><path class="cls-3" d="M1336.81,884.47a6.14,6.14,0,1,0,6.13,6.13A6.13,6.13,0,0,0,1336.81,884.47Z" transform="translate(-51.29 -73.73)"/><path class="cls-3" d="M1348.78,993h6.75a5.53,5.53,0,0,0-6.75,0Z" transform="translate(-51.29 -73.73)"/><path class="cls-3" d="M1318.09,993h6.75a5.53,5.53,0,0,0-6.75,0Z" transform="translate(-51.29 -73.73)"/><path class="cls-3" d="M1321.47,961.19a6.14,6.14,0,1,0,6.13,6.14A6.14,6.14,0,0,0,1321.47,961.19Z" transform="translate(-51.29 -73.73)"/><path class="cls-3" d="M1306.12,976.53a6.14,6.14,0,1,0,6.14,6.14A6.14,6.14,0,0,0,1306.12,976.53Z" transform="translate(-51.29 -73.73)"/><path class="cls-3" d="M1336.81,976.53a6.14,6.14,0,1,0,6.13,6.14A6.14,6.14,0,0,0,1336.81,976.53Z" transform="translate(-51.29 -73.73)"/><path class="cls-3" d="M1306.12,945.84a6.14,6.14,0,1,0,6.14,6.14A6.14,6.14,0,0,0,1306.12,945.84Z" transform="translate(-51.29 -73.73)"/><path class="cls-3" d="M1336.81,945.84a6.14,6.14,0,1,0,6.13,6.14A6.14,6.14,0,0,0,1336.81,945.84Z" transform="translate(-51.29 -73.73)"/><path class="cls-3" d="M1290.78,961.19a6.14,6.14,0,1,0,6.14,6.14A6.14,6.14,0,0,0,1290.78,961.19Z" transform="translate(-51.29 -73.73)"/><path class="cls-3" d="M1260.09,807.74a6.14,6.14,0,1,0,6.14,6.14A6.14,6.14,0,0,0,1260.09,807.74Z" transform="translate(-51.29 -73.73)"/><path class="cls-3" d="M1290.78,777.05a6.14,6.14,0,1,0,6.14,6.14A6.14,6.14,0,0,0,1290.78,777.05Z" transform="translate(-51.29 -73.73)"/><path class="cls-3" d="M1254.07,783.78a6.09,6.09,0,0,0,12.16-.59,6,6,0,0,0-1-3.23C1261.7,781.23,1258,782.51,1254.07,783.78Z" transform="translate(-51.29 -73.73)"/><path class="cls-3" d="M1244.75,792.4a6.14,6.14,0,1,0,6.14,6.13A6.14,6.14,0,0,0,1244.75,792.4Z" transform="translate(-51.29 -73.73)"/><path class="cls-3" d="M1275.43,792.4a6.14,6.14,0,1,0,6.14,6.13A6.14,6.14,0,0,0,1275.43,792.4Z" transform="translate(-51.29 -73.73)"/><path class="cls-3" d="M1260.09,838.43a6.14,6.14,0,1,0,6.14,6.14A6.14,6.14,0,0,0,1260.09,838.43Z" transform="translate(-51.29 -73.73)"/><path class="cls-3" d="M1244.75,853.78a6.14,6.14,0,1,0,6.14,6.13A6.13,6.13,0,0,0,1244.75,853.78Z" transform="translate(-51.29 -73.73)"/><path class="cls-3" d="M1275.43,853.78a6.14,6.14,0,1,0,6.14,6.13A6.13,6.13,0,0,0,1275.43,853.78Z" transform="translate(-51.29 -73.73)"/><path class="cls-3" d="M1244.75,823.09a6.14,6.14,0,1,0,6.14,6.13A6.14,6.14,0,0,0,1244.75,823.09Z" transform="translate(-51.29 -73.73)"/><path class="cls-3" d="M1275.43,823.09a6.14,6.14,0,1,0,6.14,6.13A6.14,6.14,0,0,0,1275.43,823.09Z" transform="translate(-51.29 -73.73)"/><path class="cls-3" d="M1290.78,807.74a6.14,6.14,0,1,0,6.14,6.14A6.14,6.14,0,0,0,1290.78,807.74Z" transform="translate(-51.29 -73.73)"/><path class="cls-3" d="M1290.78,899.81a6.14,6.14,0,1,0,6.14,6.14A6.14,6.14,0,0,0,1290.78,899.81Z" transform="translate(-51.29 -73.73)"/><path class="cls-3" d="M1260.09,899.81a6.14,6.14,0,1,0,6.14,6.14A6.14,6.14,0,0,0,1260.09,899.81Z" transform="translate(-51.29 -73.73)"/><path class="cls-3" d="M1244.75,915.16a6.14,6.14,0,1,0,6.14,6.13A6.13,6.13,0,0,0,1244.75,915.16Z" transform="translate(-51.29 -73.73)"/><path class="cls-3" d="M1275.43,915.16a6.14,6.14,0,1,0,6.14,6.13A6.13,6.13,0,0,0,1275.43,915.16Z" transform="translate(-51.29 -73.73)"/><path class="cls-3" d="M1244.75,884.47a6.14,6.14,0,1,0,6.14,6.13A6.13,6.13,0,0,0,1244.75,884.47Z" transform="translate(-51.29 -73.73)"/><path class="cls-3" d="M1275.43,884.47a6.14,6.14,0,1,0,6.14,6.13A6.13,6.13,0,0,0,1275.43,884.47Z" transform="translate(-51.29 -73.73)"/><path class="cls-3" d="M1260.09,869.12a6.14,6.14,0,1,0,6.14,6.14A6.14,6.14,0,0,0,1260.09,869.12Z" transform="translate(-51.29 -73.73)"/><path class="cls-3" d="M1287.4,993h6.75a5.53,5.53,0,0,0-6.75,0Z" transform="translate(-51.29 -73.73)"/><path class="cls-3" d="M1256.72,993h6.74a5.51,5.51,0,0,0-6.74,0Z" transform="translate(-51.29 -73.73)"/><path class="cls-3" d="M1260.09,961.19a6.14,6.14,0,1,0,6.14,6.14A6.14,6.14,0,0,0,1260.09,961.19Z" transform="translate(-51.29 -73.73)"/><path class="cls-3" d="M1244.75,976.53a6.14,6.14,0,1,0,6.14,6.14A6.14,6.14,0,0,0,1244.75,976.53Z" transform="translate(-51.29 -73.73)"/><path class="cls-3" d="M1275.43,976.53a6.14,6.14,0,1,0,6.14,6.14A6.14,6.14,0,0,0,1275.43,976.53Z" transform="translate(-51.29 -73.73)"/><path class="cls-3" d="M1244.75,945.84a6.14,6.14,0,1,0,6.14,6.14A6.14,6.14,0,0,0,1244.75,945.84Z" transform="translate(-51.29 -73.73)"/><path class="cls-3" d="M1275.43,945.84a6.14,6.14,0,1,0,6.14,6.14A6.14,6.14,0,0,0,1275.43,945.84Z" transform="translate(-51.29 -73.73)"/><path class="cls-3" d="M1229.4,961.19a6.14,6.14,0,1,0,6.14,6.14A6.13,6.13,0,0,0,1229.4,961.19Z" transform="translate(-51.29 -73.73)"/><path class="cls-3" d="M1290.78,930.5a6.14,6.14,0,1,0,6.14,6.14A6.14,6.14,0,0,0,1290.78,930.5Z" transform="translate(-51.29 -73.73)"/><path class="cls-3" d="M1260.09,930.5a6.14,6.14,0,1,0,6.14,6.14A6.14,6.14,0,0,0,1260.09,930.5Z" transform="translate(-51.29 -73.73)"/><path class="cls-3" d="M1229.4,807.74a6.14,6.14,0,1,0,6.14,6.14A6.13,6.13,0,0,0,1229.4,807.74Z" transform="translate(-51.29 -73.73)"/><path class="cls-3" d="M1181,794.53a10.1,10.1,0,0,0-2.39.31,6,6,0,0,0-1.36,3.69,6.14,6.14,0,0,0,12.28,0,6.06,6.06,0,0,0-1.57-4C1185.62,794.54,1183.38,794.61,1181,794.53Z" transform="translate(-51.29 -73.73)"/><path class="cls-3" d="M1215.64,792.72c-1.5.2-3,.38-4.56.55a6.06,6.06,0,0,0-3.16,5.26,6.14,6.14,0,1,0,12.27,0A6,6,0,0,0,1215.64,792.72Z" transform="translate(-51.29 -73.73)"/><path class="cls-3" d="M1229.4,838.43a6.14,6.14,0,1,0,6.14,6.14A6.13,6.13,0,0,0,1229.4,838.43Z" transform="translate(-51.29 -73.73)"/><path class="cls-3" d="M1198.71,838.43a6.14,6.14,0,1,0,6.14,6.14A6.14,6.14,0,0,0,1198.71,838.43Z" transform="translate(-51.29 -73.73)"/><path class="cls-3" d="M1183.37,853.78a6.14,6.14,0,1,0,6.14,6.13A6.13,6.13,0,0,0,1183.37,853.78Z" transform="translate(-51.29 -73.73)"/><path class="cls-3" d="M1214.06,853.78a6.14,6.14,0,1,0,6.13,6.13A6.13,6.13,0,0,0,1214.06,853.78Z" transform="translate(-51.29 -73.73)"/><path class="cls-3" d="M1183.37,823.09a6.14,6.14,0,1,0,6.14,6.13A6.14,6.14,0,0,0,1183.37,823.09Z" transform="translate(-51.29 -73.73)"/><path class="cls-3" d="M1214.06,823.09a6.14,6.14,0,1,0,6.13,6.13A6.13,6.13,0,0,0,1214.06,823.09Z" transform="translate(-51.29 -73.73)"/><path class="cls-3" d="M1198.71,807.74a6.14,6.14,0,1,0,6.14,6.14A6.14,6.14,0,0,0,1198.71,807.74Z" transform="translate(-51.29 -73.73)"/><path class="cls-3" d="M1229.4,899.81a6.14,6.14,0,1,0,6.14,6.14A6.13,6.13,0,0,0,1229.4,899.81Z" transform="translate(-51.29 -73.73)"/><path class="cls-3" d="M1198.71,899.81a6.14,6.14,0,1,0,6.14,6.14A6.14,6.14,0,0,0,1198.71,899.81Z" transform="translate(-51.29 -73.73)"/><path class="cls-3" d="M1183.37,915.16a6.14,6.14,0,1,0,6.14,6.13A6.13,6.13,0,0,0,1183.37,915.16Z" transform="translate(-51.29 -73.73)"/><path class="cls-3" d="M1214.06,915.16a6.14,6.14,0,1,0,6.13,6.13A6.13,6.13,0,0,0,1214.06,915.16Z" transform="translate(-51.29 -73.73)"/><path class="cls-3" d="M1183.37,884.47a6.14,6.14,0,1,0,6.14,6.13A6.13,6.13,0,0,0,1183.37,884.47Z" transform="translate(-51.29 -73.73)"/><path class="cls-3" d="M1214.06,884.47a6.14,6.14,0,1,0,6.13,6.13A6.13,6.13,0,0,0,1214.06,884.47Z" transform="translate(-51.29 -73.73)"/><path class="cls-3" d="M1229.4,869.12a6.14,6.14,0,1,0,6.14,6.14A6.13,6.13,0,0,0,1229.4,869.12Z" transform="translate(-51.29 -73.73)"/><path class="cls-3" d="M1198.71,869.12a6.14,6.14,0,1,0,6.14,6.14A6.14,6.14,0,0,0,1198.71,869.12Z" transform="translate(-51.29 -73.73)"/><path class="cls-3" d="M1226,993h6.75a6,6,0,0,0-3.38-1.15A5.92,5.92,0,0,0,1226,993Z" transform="translate(-51.29 -73.73)"/><path class="cls-3" d="M1195.34,993h6.75a5.53,5.53,0,0,0-6.75,0Z" transform="translate(-51.29 -73.73)"/><path class="cls-3" d="M1198.71,961.19a6.14,6.14,0,1,0,6.14,6.14A6.14,6.14,0,0,0,1198.71,961.19Z" transform="translate(-51.29 -73.73)"/><path class="cls-3" d="M1183.37,976.53a6.14,6.14,0,1,0,6.14,6.14A6.14,6.14,0,0,0,1183.37,976.53Z" transform="translate(-51.29 -73.73)"/><path class="cls-3" d="M1214.06,976.53a6.14,6.14,0,1,0,6.13,6.14A6.13,6.13,0,0,0,1214.06,976.53Z" transform="translate(-51.29 -73.73)"/><path class="cls-3" d="M1183.37,945.84a6.14,6.14,0,1,0,6.14,6.14A6.14,6.14,0,0,0,1183.37,945.84Z" transform="translate(-51.29 -73.73)"/><path class="cls-3" d="M1214.06,945.84a6.14,6.14,0,1,0,6.13,6.14A6.13,6.13,0,0,0,1214.06,945.84Z" transform="translate(-51.29 -73.73)"/><path class="cls-3" d="M1168,961.19a6.14,6.14,0,1,0,6.14,6.14A6.14,6.14,0,0,0,1168,961.19Z" transform="translate(-51.29 -73.73)"/><path class="cls-3" d="M1229.4,930.5a6.14,6.14,0,1,0,6.14,6.14A6.13,6.13,0,0,0,1229.4,930.5Z" transform="translate(-51.29 -73.73)"/><path class="cls-3" d="M1198.71,930.5a6.14,6.14,0,1,0,6.14,6.14A6.14,6.14,0,0,0,1198.71,930.5Z" transform="translate(-51.29 -73.73)"/><path class="cls-3" d="M1168,838.43a6.14,6.14,0,1,0,6.14,6.14A6.14,6.14,0,0,0,1168,838.43Z" transform="translate(-51.29 -73.73)"/><path class="cls-3" d="M1152.68,853.78a5.4,5.4,0,0,0-.89.18q-1.69,5-3.44,10.3a6.14,6.14,0,1,0,4.33-10.48Z" transform="translate(-51.29 -73.73)"/><path class="cls-3" d="M1168.22,807.78c-1.18,3.14-2.52,6.76-4,10.8A6,6,0,0,0,1168,820a6.12,6.12,0,0,0,.2-12.24Z" transform="translate(-51.29 -73.73)"/><path class="cls-3" d="M1168,899.81a6.14,6.14,0,1,0,6.14,6.14A6.14,6.14,0,0,0,1168,899.81Z" transform="translate(-51.29 -73.73)"/><path class="cls-3" d="M1137.34,899.81c-.07,0-.12,0-.19,0q-1.64,5.48-3.24,11a6,6,0,0,0,3.43,1.19,6.14,6.14,0,0,0,0-12.28Z" transform="translate(-51.29 -73.73)"/><path class="cls-3" d="M1152.68,915.16a6.14,6.14,0,1,0,6.14,6.13A6.13,6.13,0,0,0,1152.68,915.16Z" transform="translate(-51.29 -73.73)"/><path class="cls-3" d="M1152.68,884.47a6.14,6.14,0,1,0,6.14,6.13A6.13,6.13,0,0,0,1152.68,884.47Z" transform="translate(-51.29 -73.73)"/><path class="cls-3" d="M1168,869.12a6.14,6.14,0,1,0,6.14,6.14A6.14,6.14,0,0,0,1168,869.12Z" transform="translate(-51.29 -73.73)"/><path class="cls-3" d="M1164.65,993h6.75a5.53,5.53,0,0,0-6.75,0Z" transform="translate(-51.29 -73.73)"/><path class="cls-3" d="M1134,993h6.75a5.53,5.53,0,0,0-6.75,0Z" transform="translate(-51.29 -73.73)"/><path class="cls-3" d="M1137.34,961.19a6.14,6.14,0,1,0,6.14,6.14A6.14,6.14,0,0,0,1137.34,961.19Z" transform="translate(-51.29 -73.73)"/><path class="cls-3" d="M1122,976.53a6,6,0,0,0-4.57,2.15q-.59,3.12-1.12,6.2a6.13,6.13,0,1,0,5.69-8.35Z" transform="translate(-51.29 -73.73)"/><path class="cls-3" d="M1152.68,976.53a6.14,6.14,0,1,0,6.14,6.14A6.14,6.14,0,0,0,1152.68,976.53Z" transform="translate(-51.29 -73.73)"/><path class="cls-3" d="M1124.45,946.37q-1.44,5.86-2.76,11.69c.11,0,.2.06.3.06a6.13,6.13,0,0,0,2.46-11.75Z" transform="translate(-51.29 -73.73)"/><path class="cls-3" d="M1152.68,945.84a6.14,6.14,0,1,0,6.14,6.14A6.14,6.14,0,0,0,1152.68,945.84Z" transform="translate(-51.29 -73.73)"/><path class="cls-3" d="M1168,930.5a6.14,6.14,0,1,0,6.14,6.14A6.14,6.14,0,0,0,1168,930.5Z" transform="translate(-51.29 -73.73)"/><path class="cls-3" d="M1137.34,930.5a6.14,6.14,0,1,0,6.14,6.14A6.14,6.14,0,0,0,1137.34,930.5Z" transform="translate(-51.29 -73.73)"/><path class="cls-2" d="M1312.46,766.85c-10.85-6.26-23.64-1.48-41.33,5.12-19.48,7.28-46.12,17.24-83.23,17.24h-.5a5.44,5.44,0,1,0,0,10.87h.52c39.06,0,66.77-10.35,87-17.92,14.91-5.57,25.68-9.6,32.08-5.9,27.26,15.78,49.91,131.5,50.49,216.8a5.44,5.44,0,0,0,5.44,5.4h0a5.44,5.44,0,0,0,5.4-5.47C1367.94,927.27,1350.57,788.9,1312.46,766.85Z" transform="translate(-51.29 -73.73)"/><path class="cls-2" d="M1175.18,787a5.42,5.42,0,0,0-7,3.14c-1.9,5-46.5,122.92-58.58,202.11a5.43,5.43,0,0,0,4.56,6.19,5.76,5.76,0,0,0,.82.06,5.44,5.44,0,0,0,5.37-4.62c11.91-78.06,56.11-194.93,58-199.87A5.42,5.42,0,0,0,1175.18,787Z" transform="translate(-51.29 -73.73)"/><path class="cls-1" d="M648.52,314.75c-62.74-58.06-235.91-51.12-285.17,63.84-49.88,116.41,83.31,234,96,269.07,7.86,21.71,10.49,97,2.06,118.76,83.25,30.92,127.66,35.24,137.13,10.82-10.49-17.43-12.8-98.74,8.33-92.11,0,0,10.13,8.91,52.71-1.72,23.89-6,31.07-66.3,38.41-96.21,4.35-17.68,24-17.83,23.46-27.4s-23.8-32.16-24.55-75.71C696.32,451,718.31,379.34,648.52,314.75Z" transform="translate(-51.29 -73.73)"/><path class="cls-3" d="M607.6,284.53l-13.16-9c-33.21-38.76-192.44-9.66-227.78,95.08-59.23,175.57,64,228,90,274.3-7.15-15.32,58.13-70,58.13-70s17-65,34.63-70.3c0,0,40.4-26.22,53.38-33.95s55.73-93.83,55.73-93.83c24.53,22.77,40.12,63.38,39.72,123.11,16.56-2.14,41.19-61.05,16.3-122.25C697.61,336.09,649,278.64,607.6,284.53Z" transform="translate(-51.29 -73.73)"/><path class="cls-1" d="M584.22,267.65c-47.52-25.74-185,6.52-217.56,103-44.88,133,15,195.31,57.9,237.86C321.2,463.2,350.09,266.56,584.22,267.65Z" transform="translate(-51.29 -73.73)"/><path class="cls-2" d="M512.54,255.72c-51.94,8.45-122,41.43-148.44,106.55-55.67,137,20.14,214.37,65.44,260.58,9.64,9.83,17.95,18.32,22.6,25.13a5.44,5.44,0,1,0,9-6.13c-5.18-7.6-13.82-16.41-23.81-26.61-43.43-44.31-116.12-118.47-63.14-248.88,24.76-60.94,91-91.91,140.12-99.9,34.76-5.67,64.61-.71,76,12.61a5.43,5.43,0,1,0,8.25-7.07C584.32,255.36,552.15,249.27,512.54,255.72Z" transform="translate(-51.29 -73.73)"/><path class="cls-1" d="M494.72,533.34c-1.17,23.8,20.77,40.78,32,42.45l.82-44.25C518.4,510.23,495.68,513.73,494.72,533.34Z" transform="translate(-51.29 -73.73)"/><path class="cls-2" d="M507.88,522.61c4.27-.74,10.63,1.68,14.64,11.08a5.44,5.44,0,0,0,10-4.28C527.15,516.85,516.74,510,506,511.9c-9.58,1.72-16.12,10-16.67,21.17-1.35,27.39,23.48,46.14,36.61,48.1a5.62,5.62,0,0,0,.81.06,5.44,5.44,0,0,0,.8-10.82c-8.41-1.25-28.4-15.7-27.36-36.81C500.44,527.62,503.4,523.41,507.88,522.61Z" transform="translate(-51.29 -73.73)"/><ellipse class="cls-2" cx="602.32" cy="453.2" rx="11.24" ry="16.52"/><path class="cls-2" d="M694.17,596H629.5a5.43,5.43,0,0,0-5.18,7.07c.14.45,14.63,44.62,60.9,45.5h.1a5.44,5.44,0,0,0,.1-10.87c-28.21-.54-42.11-20-47.68-30.83h56.43a5.44,5.44,0,0,0,0-10.87Z" transform="translate(-51.29 -73.73)"/><path class="cls-2" d="M650.39,386.52a5.45,5.45,0,0,0-6.62,3.91c-.18.67-18.79,68.85-107.16,117.19a5.44,5.44,0,0,0,2.61,10.21,5.34,5.34,0,0,0,2.61-.67c92.75-50.75,111.71-121,112.47-124A5.44,5.44,0,0,0,650.39,386.52Z" transform="translate(-51.29 -73.73)"/><path class="cls-2" d="M606.83,279.15a5.43,5.43,0,1,0,1.53,10.76c18.15-2.65,57.08,20.86,83.75,58.67C710.62,374.81,737,427.82,705.35,488a5.43,5.43,0,1,0,9.62,5.06c34.3-65.31,6-122.48-14-150.75C673.93,303.94,631.72,275.61,606.83,279.15Z" transform="translate(-51.29 -73.73)"/><path class="cls-4" d="M614.62,529.4a27.83,27.83,0,1,0,29.31,26.27A27.82,27.82,0,0,0,614.62,529.4Z" transform="translate(-51.29 -73.73)"/><path class="cls-2" d="M720.44,544.19c-7-12.57-17.62-31.57-18.11-60.2,0-1.33,0-3,.1-4.91.62-17.1,2-57.14-39.81-105.79a5.44,5.44,0,1,0-8.24,7.09c39.07,45.43,37.8,81.15,37.19,98.32-.08,2.16-.14,4-.11,5.48.53,31.36,12.4,52.61,19.49,65.31,2.44,4.37,5,8.89,5.06,10.61.06,1.09-3.15,3.1-5.73,4.72-6.18,3.88-14.66,9.2-17.58,21.09-1.45,5.89-2.87,13-4.38,20.49-5.5,27.37-13.81,68.74-29.74,71.67-22.46,4.13-47.05,2-50.69,1.69-5.73-1.53-11,.38-15.07,5.48-13.31,16.93-11.07,68.43-1.92,83.64a5.44,5.44,0,0,0,9.32-5.6c-7.79-12.94-8.39-59.19,1.15-71.31,1.81-2.29,3-1.92,3.86-1.66a5.3,5.3,0,0,0,1,.22c1.14.12,28.46,3,54.27-1.77,23.17-4.27,31.63-46.38,38.43-80.22,1.49-7.39,2.89-14.38,4.28-20,1.87-7.61,7.43-11.1,12.8-14.47s11.21-7,10.8-14.53C726.63,555.27,724,550.63,720.44,544.19Z" transform="translate(-51.29 -73.73)"/><path class="cls-1" d="M655.54,952A6,6,0,0,1,658,947.2c-2.64-11.89-5.63-24-8.81-35.92a5.91,5.91,0,0,1-2.86.81,6.12,6.12,0,0,1-.24-12.23c-3.42-12.36-7-24.47-10.52-36a6.07,6.07,0,0,1-4.58,2.15,6.14,6.14,0,1,1,0-12.27,5.94,5.94,0,0,1,1.52.3c-4.25-13.5-8.36-25.91-12-36.62a6,6,0,0,1-4.86,2.56,6.14,6.14,0,0,1,0-12.28,5.9,5.9,0,0,1,1.63.33c-6.32-18.17-10.6-29.49-10.6-29.49-5.88.4-11.56.58-17.12.64a6.07,6.07,0,0,1,1.55,4,6.14,6.14,0,0,1-12.28,0,6.05,6.05,0,0,1,1.59-4c-8.17-.17-16-.66-23.41-1.39a6.2,6.2,0,1,1-4.19-.42,324.31,324.31,0,0,1-39.06-6.9,6.11,6.11,0,0,1-11.65-2.6c0-.13.06-.23.07-.35-15.37-4.16-27.49-8.24-36.2-10.27a5.82,5.82,0,0,1-8.69-1.26,14.76,14.76,0,0,0-2.44.09c-8.3,1.4-17,9.25-25.6,21.45a6.13,6.13,0,1,1-3.84,5.76c-2,3.17-4,6.6-6,10.19a6,6,0,0,1,2.88,5.07,6.14,6.14,0,0,1-6.14,6.14,6.06,6.06,0,0,1-2.33-.47c-5.11,10.46-10,22.15-14.62,34.56a5.84,5.84,0,0,1,1.61-.33,6.14,6.14,0,0,1,0,12.28,6,6,0,0,1-4.94-2.69q-2.43,7-4.72,14.18s0,.09-.05.14c-2.32,7.33-4.5,14.8-6.54,22.31a5.43,5.43,0,0,1,.91-.18,6.14,6.14,0,1,1,0,12.27,6,6,0,0,1-3.72-1.38c-3.09,12.29-5.75,24.58-7.88,36.54a6,6,0,0,1,2.39,4.74,6.09,6.09,0,0,1-4.13,5.73c-1,6.47-1.83,12.79-2.47,18.91.16,0,.3-.09.46-.09a6.16,6.16,0,1,1-1.49,12c-.34,5.08-.53,10-.55,14.67l14-.2a6,6,0,0,1-2.73-5,6.14,6.14,0,1,1,12.28,0,6,6,0,0,1-2.59,4.87l23.1-.32a6.07,6.07,0,0,1-2.11-4.55,6.14,6.14,0,1,1,10.35,4.43l22-.31a6.16,6.16,0,1,1,9.07-.13l21.33-.3a6,6,0,0,1-1.36-3.69,6.14,6.14,0,1,1,12.27,0,6,6,0,0,1-1.26,3.55l20.75-.29a6,6,0,0,1-1.07-3.26,6.14,6.14,0,1,1,12.28,0,6,6,0,0,1-1,3.11l20.15-.28a6,6,0,0,1-.77-2.83,6.14,6.14,0,1,1,12.27,0,6,6,0,0,1-.67,2.67l19.57-.27a6.14,6.14,0,1,1,11.79-2.4,5.92,5.92,0,0,1-.45,2.23l19.26-.27a5.8,5.8,0,0,1-.4-2,6.14,6.14,0,0,1,12.28,0,6,6,0,0,1-.37,1.8l19.09-.27a6,6,0,0,1-.31-1.53,6.16,6.16,0,1,1,12,1.36l18.9-.27a5.54,5.54,0,0,1-.22-1.09,6.13,6.13,0,0,1,6.14-6.14,6.05,6.05,0,0,1,2.21.45q-1.6-9.39-3.61-19.14A6,6,0,0,1,655.54,952Zm-270,6.14a6.14,6.14,0,1,1,6.14-6.14A6.14,6.14,0,0,1,385.49,958.12Zm0-30.69a6.14,6.14,0,1,1,6.14-6.14A6.14,6.14,0,0,1,385.49,927.43Zm15.34,46a6.14,6.14,0,1,1,6.14-6.14A6.14,6.14,0,0,1,400.83,973.47Zm0-30.7a6.14,6.14,0,1,1,6.14-6.13A6.13,6.13,0,0,1,400.83,942.77Zm0-30.68A6.14,6.14,0,1,1,407,906,6.14,6.14,0,0,1,400.83,912.09Zm0-30.69a6.14,6.14,0,1,1,6.14-6.14A6.14,6.14,0,0,1,400.83,881.4Zm15.34,76.72a6.14,6.14,0,1,1,6.14-6.14A6.14,6.14,0,0,1,416.17,958.12Zm0-30.69a6.14,6.14,0,1,1,6.14-6.14A6.14,6.14,0,0,1,416.17,927.43Zm0-30.69a6.14,6.14,0,1,1,6.14-6.14A6.14,6.14,0,0,1,416.17,896.74Zm0-30.69a6.14,6.14,0,1,1,6.14-6.14A6.14,6.14,0,0,1,416.17,866.05Zm0-30.69a6.14,6.14,0,1,1,6.14-6.14A6.13,6.13,0,0,1,416.17,835.36Zm15.35,138.11a6.14,6.14,0,1,1,6.14-6.14A6.14,6.14,0,0,1,431.52,973.47Zm0-30.7a6.14,6.14,0,1,1,6.14-6.13A6.13,6.13,0,0,1,431.52,942.77Zm0-30.68a6.14,6.14,0,1,1,6.14-6.14A6.14,6.14,0,0,1,431.52,912.09Zm0-30.69a6.14,6.14,0,1,1,6.14-6.14A6.14,6.14,0,0,1,431.52,881.4Zm0-30.69a6.14,6.14,0,1,1,6.14-6.14A6.14,6.14,0,0,1,431.52,850.71Zm0-30.69a6.14,6.14,0,1,1,6.14-6.14A6.14,6.14,0,0,1,431.52,820Zm15.34,138.1A6.14,6.14,0,1,1,453,952,6.13,6.13,0,0,1,446.86,958.12Zm0-30.69a6.14,6.14,0,1,1,6.14-6.14A6.13,6.13,0,0,1,446.86,927.43Zm0-30.69A6.14,6.14,0,1,1,453,890.6,6.13,6.13,0,0,1,446.86,896.74Zm0-30.69a6.14,6.14,0,1,1,6.14-6.14A6.13,6.13,0,0,1,446.86,866.05Zm0-30.69a6.14,6.14,0,1,1,6.14-6.14A6.13,6.13,0,0,1,446.86,835.36Zm0-30.69a6.14,6.14,0,1,1,6.14-6.14A6.13,6.13,0,0,1,446.86,804.67Zm0-30.69a6.14,6.14,0,1,1,6.14-6.13A6.12,6.12,0,0,1,446.86,774Zm15.35,199.49a6.14,6.14,0,1,1,6.13-6.14A6.14,6.14,0,0,1,462.21,973.47Zm0-30.7a6.14,6.14,0,1,1,6.13-6.13A6.13,6.13,0,0,1,462.21,942.77Zm0-30.68a6.14,6.14,0,1,1,6.13-6.14A6.14,6.14,0,0,1,462.21,912.09Zm0-30.69a6.14,6.14,0,1,1,6.13-6.14A6.14,6.14,0,0,1,462.21,881.4Zm0-30.69a6.14,6.14,0,1,1,6.13-6.14A6.14,6.14,0,0,1,462.21,850.71Zm0-30.69a6.14,6.14,0,1,1,6.13-6.14A6.14,6.14,0,0,1,462.21,820Zm0-30.69a6.14,6.14,0,1,1,6.13-6.14A6.14,6.14,0,0,1,462.21,789.33Zm15.34,168.79a6.14,6.14,0,1,1,6.13-6.14A6.14,6.14,0,0,1,477.55,958.12Zm0-30.69a6.14,6.14,0,1,1,6.13-6.14A6.14,6.14,0,0,1,477.55,927.43Zm0-30.69a6.14,6.14,0,1,1,6.13-6.14A6.14,6.14,0,0,1,477.55,896.74Zm0-30.69a6.14,6.14,0,1,1,6.13-6.14A6.14,6.14,0,0,1,477.55,866.05Zm0-30.69a6.14,6.14,0,1,1,6.13-6.14A6.13,6.13,0,0,1,477.55,835.36Zm0-30.69a6.14,6.14,0,1,1,6.13-6.14A6.14,6.14,0,0,1,477.55,804.67Zm0-30.69a6.14,6.14,0,1,1,6.13-6.13A6.13,6.13,0,0,1,477.55,774Zm15.34,199.49a6.14,6.14,0,1,1,6.14-6.14A6.14,6.14,0,0,1,492.89,973.47Zm0-30.7a6.14,6.14,0,1,1,6.14-6.13A6.13,6.13,0,0,1,492.89,942.77Zm0-30.68A6.14,6.14,0,1,1,499,906,6.14,6.14,0,0,1,492.89,912.09Zm0-30.69a6.14,6.14,0,1,1,6.14-6.14A6.14,6.14,0,0,1,492.89,881.4Zm0-30.69a6.14,6.14,0,1,1,6.14-6.14A6.14,6.14,0,0,1,492.89,850.71Zm0-30.69a6.14,6.14,0,1,1,6.14-6.14A6.14,6.14,0,0,1,492.89,820Zm0-30.69a6.14,6.14,0,1,1,6.14-6.14A6.14,6.14,0,0,1,492.89,789.33Zm15.35,168.79a6.14,6.14,0,1,1,6.14-6.14A6.14,6.14,0,0,1,508.24,958.12Zm0-30.69a6.14,6.14,0,1,1,6.14-6.14A6.14,6.14,0,0,1,508.24,927.43Zm0-30.69a6.14,6.14,0,1,1,6.14-6.14A6.14,6.14,0,0,1,508.24,896.74Zm0-30.69a6.14,6.14,0,1,1,6.14-6.14A6.14,6.14,0,0,1,508.24,866.05Zm0-30.69a6.14,6.14,0,1,1,6.14-6.14A6.13,6.13,0,0,1,508.24,835.36Zm0-30.69a6.14,6.14,0,1,1,6.14-6.14A6.14,6.14,0,0,1,508.24,804.67Zm15.34,168.8a6.14,6.14,0,1,1,6.14-6.14A6.13,6.13,0,0,1,523.58,973.47Zm0-30.7a6.14,6.14,0,1,1,6.14-6.13A6.12,6.12,0,0,1,523.58,942.77Zm0-30.68a6.14,6.14,0,1,1,6.14-6.14A6.13,6.13,0,0,1,523.58,912.09Zm0-30.69a6.14,6.14,0,1,1,6.14-6.14A6.13,6.13,0,0,1,523.58,881.4Zm0-30.69a6.14,6.14,0,1,1,6.14-6.14A6.13,6.13,0,0,1,523.58,850.71Zm0-30.69a6.14,6.14,0,1,1,6.14-6.14A6.13,6.13,0,0,1,523.58,820Zm0-30.69a6.14,6.14,0,1,1,6.14-6.14A6.13,6.13,0,0,1,523.58,789.33Zm15.34,168.79a6.14,6.14,0,1,1,6.14-6.14A6.13,6.13,0,0,1,538.92,958.12Zm0-30.69a6.14,6.14,0,1,1,6.14-6.14A6.13,6.13,0,0,1,538.92,927.43Zm0-30.69a6.14,6.14,0,1,1,6.14-6.14A6.13,6.13,0,0,1,538.92,896.74Zm0-30.69a6.14,6.14,0,1,1,6.14-6.14A6.13,6.13,0,0,1,538.92,866.05Zm0-30.69a6.14,6.14,0,1,1,6.14-6.14A6.13,6.13,0,0,1,538.92,835.36Zm0-30.69a6.14,6.14,0,1,1,6.14-6.14A6.13,6.13,0,0,1,538.92,804.67Zm15.35,168.8a6.14,6.14,0,1,1,6.14-6.14A6.14,6.14,0,0,1,554.27,973.47Zm0-30.7a6.14,6.14,0,1,1,6.14-6.13A6.13,6.13,0,0,1,554.27,942.77Zm0-30.68a6.14,6.14,0,1,1,6.14-6.14A6.14,6.14,0,0,1,554.27,912.09Zm0-30.69a6.14,6.14,0,1,1,6.14-6.14A6.14,6.14,0,0,1,554.27,881.4Zm0-30.69a6.14,6.14,0,1,1,6.14-6.14A6.14,6.14,0,0,1,554.27,850.71Zm0-30.69a6.14,6.14,0,1,1,6.14-6.14A6.14,6.14,0,0,1,554.27,820Zm15.34,138.1a6.14,6.14,0,1,1,6.14-6.14A6.13,6.13,0,0,1,569.61,958.12Zm0-30.69a6.14,6.14,0,1,1,6.14-6.14A6.13,6.13,0,0,1,569.61,927.43Zm0-30.69a6.14,6.14,0,1,1,6.14-6.14A6.13,6.13,0,0,1,569.61,896.74Zm0-30.69a6.14,6.14,0,1,1,6.14-6.14A6.13,6.13,0,0,1,569.61,866.05Zm0-30.69a6.14,6.14,0,1,1,6.14-6.14A6.13,6.13,0,0,1,569.61,835.36Zm0-30.69a6.14,6.14,0,1,1,6.14-6.14A6.13,6.13,0,0,1,569.61,804.67ZM585,973.47a6.14,6.14,0,1,1,6.14-6.14A6.14,6.14,0,0,1,585,973.47Zm0-30.7a6.14,6.14,0,1,1,6.14-6.13A6.13,6.13,0,0,1,585,942.77Zm0-30.68A6.14,6.14,0,1,1,591.1,906,6.14,6.14,0,0,1,585,912.09Zm0-30.69a6.14,6.14,0,1,1,6.14-6.14A6.14,6.14,0,0,1,585,881.4Zm0-30.69a6.14,6.14,0,1,1,6.14-6.14A6.14,6.14,0,0,1,585,850.71ZM585,820a6.14,6.14,0,1,1,6.14-6.14A6.14,6.14,0,0,1,585,820Zm15.34,138.1a6.14,6.14,0,1,1,6.14-6.14A6.14,6.14,0,0,1,600.3,958.12Zm0-30.69a6.14,6.14,0,1,1,6.14-6.14A6.14,6.14,0,0,1,600.3,927.43Zm0-30.69a6.14,6.14,0,1,1,6.14-6.14A6.14,6.14,0,0,1,600.3,896.74Zm0-30.69a6.14,6.14,0,1,1,6.14-6.14A6.14,6.14,0,0,1,600.3,866.05Zm0-30.69a6.14,6.14,0,1,1,6.14-6.14A6.13,6.13,0,0,1,600.3,835.36Zm0-30.69a6.14,6.14,0,1,1,6.14-6.14A6.14,6.14,0,0,1,600.3,804.67Zm15.34,168.8a6.14,6.14,0,1,1,6.14-6.14A6.14,6.14,0,0,1,615.64,973.47Zm0-30.7a6.14,6.14,0,1,1,6.14-6.13A6.13,6.13,0,0,1,615.64,942.77Zm0-30.68a6.14,6.14,0,1,1,6.14-6.14A6.14,6.14,0,0,1,615.64,912.09Zm0-30.69a6.14,6.14,0,1,1,6.14-6.14A6.14,6.14,0,0,1,615.64,881.4Zm0-30.69a6.14,6.14,0,1,1,6.14-6.14A6.14,6.14,0,0,1,615.64,850.71ZM631,958.12a6.14,6.14,0,1,1,6.14-6.14A6.14,6.14,0,0,1,631,958.12Zm0-30.69a6.14,6.14,0,1,1,6.14-6.14A6.14,6.14,0,0,1,631,927.43Zm0-30.69a6.14,6.14,0,1,1,6.14-6.14A6.14,6.14,0,0,1,631,896.74Zm15.34,76.73a6.14,6.14,0,1,1,6.14-6.14A6.13,6.13,0,0,1,646.33,973.47Zm0-30.7a6.14,6.14,0,1,1,6.14-6.13A6.12,6.12,0,0,1,646.33,942.77Z" transform="translate(-51.29 -73.73)"/><path class="cls-3" d="M631,853.78a6.14,6.14,0,1,0,0,12.27,6.07,6.07,0,0,0,4.58-2.15c-1-3.33-2.05-6.6-3.06-9.82A5.94,5.94,0,0,0,631,853.78Z" transform="translate(-51.29 -73.73)"/><path class="cls-3" d="M615.64,869.12a6.14,6.14,0,1,0,6.14,6.14A6.14,6.14,0,0,0,615.64,869.12Z" transform="translate(-51.29 -73.73)"/><path class="cls-3" d="M615.64,838.43a6.14,6.14,0,1,0,6.14,6.14A6.14,6.14,0,0,0,615.64,838.43Z" transform="translate(-51.29 -73.73)"/><path class="cls-3" d="M646.33,930.5a6.14,6.14,0,1,0,6.14,6.14A6.13,6.13,0,0,0,646.33,930.5Z" transform="translate(-51.29 -73.73)"/><path class="cls-3" d="M640.2,906a6.13,6.13,0,0,0,6.13,6.14,5.91,5.91,0,0,0,2.86-.81q-1.52-5.73-3.1-11.42A6.1,6.1,0,0,0,640.2,906Z" transform="translate(-51.29 -73.73)"/><path class="cls-3" d="M631,915.16a6.14,6.14,0,1,0,6.14,6.13A6.13,6.13,0,0,0,631,915.16Z" transform="translate(-51.29 -73.73)"/><path class="cls-3" d="M631,884.47a6.14,6.14,0,1,0,6.14,6.13A6.13,6.13,0,0,0,631,884.47Z" transform="translate(-51.29 -73.73)"/><path class="cls-3" d="M615.64,930.5a6.14,6.14,0,1,0,6.14,6.14A6.14,6.14,0,0,0,615.64,930.5Z" transform="translate(-51.29 -73.73)"/><path class="cls-3" d="M615.64,899.81a6.14,6.14,0,1,0,6.14,6.14A6.14,6.14,0,0,0,615.64,899.81Z" transform="translate(-51.29 -73.73)"/><path class="cls-3" d="M646.33,961.19a6.14,6.14,0,1,0,6.14,6.14A6.13,6.13,0,0,0,646.33,961.19Z" transform="translate(-51.29 -73.73)"/><path class="cls-3" d="M631,976.53a6.14,6.14,0,0,0-6.14,6.14,6,6,0,0,0,.31,1.53l11.7-.17a5.73,5.73,0,0,0-5.87-7.5Z" transform="translate(-51.29 -73.73)"/><path class="cls-3" d="M661.68,976.53a6.13,6.13,0,0,0-6.14,6.14,5.54,5.54,0,0,0,.22,1.09l9.22-.13c-.34-2.19-.71-4.42-1.09-6.65A6.05,6.05,0,0,0,661.68,976.53Z" transform="translate(-51.29 -73.73)"/><path class="cls-3" d="M631,945.84a6.14,6.14,0,1,0,6.14,6.14A6.14,6.14,0,0,0,631,945.84Z" transform="translate(-51.29 -73.73)"/><path class="cls-3" d="M655.54,952a6,6,0,0,0,4.74,5.86c-.72-3.53-1.49-7.08-2.28-10.64A6,6,0,0,0,655.54,952Z" transform="translate(-51.29 -73.73)"/><path class="cls-3" d="M615.64,961.19a6.14,6.14,0,1,0,6.14,6.14A6.14,6.14,0,0,0,615.64,961.19Z" transform="translate(-51.29 -73.73)"/><path class="cls-3" d="M615.64,807.74a6.14,6.14,0,0,0,0,12.28,6,6,0,0,0,4.86-2.56c-1.12-3.29-2.21-6.44-3.23-9.39A5.9,5.9,0,0,0,615.64,807.74Z" transform="translate(-51.29 -73.73)"/><path class="cls-3" d="M585,807.74a6.14,6.14,0,1,0,6.14,6.14A6.14,6.14,0,0,0,585,807.74Z" transform="translate(-51.29 -73.73)"/><path class="cls-3" d="M580.41,779.16a6.05,6.05,0,0,0-1.59,4,6.14,6.14,0,0,0,12.28,0,6.07,6.07,0,0,0-1.55-4C586.44,779.25,583.42,779.22,580.41,779.16Z" transform="translate(-51.29 -73.73)"/><path class="cls-3" d="M569.61,792.4a6.14,6.14,0,1,0,6.14,6.13A6.13,6.13,0,0,0,569.61,792.4Z" transform="translate(-51.29 -73.73)"/><path class="cls-3" d="M600.3,792.4a6.14,6.14,0,1,0,6.14,6.13A6.14,6.14,0,0,0,600.3,792.4Z" transform="translate(-51.29 -73.73)"/><path class="cls-3" d="M585,869.12a6.14,6.14,0,1,0,6.14,6.14A6.14,6.14,0,0,0,585,869.12Z" transform="translate(-51.29 -73.73)"/><path class="cls-3" d="M585,838.43a6.14,6.14,0,1,0,6.14,6.14A6.14,6.14,0,0,0,585,838.43Z" transform="translate(-51.29 -73.73)"/><path class="cls-3" d="M569.61,853.78a6.14,6.14,0,1,0,6.14,6.13A6.12,6.12,0,0,0,569.61,853.78Z" transform="translate(-51.29 -73.73)"/><path class="cls-3" d="M600.3,853.78a6.14,6.14,0,1,0,6.14,6.13A6.13,6.13,0,0,0,600.3,853.78Z" transform="translate(-51.29 -73.73)"/><path class="cls-3" d="M569.61,823.09a6.14,6.14,0,1,0,6.14,6.13A6.13,6.13,0,0,0,569.61,823.09Z" transform="translate(-51.29 -73.73)"/><path class="cls-3" d="M600.3,823.09a6.14,6.14,0,1,0,6.14,6.13A6.14,6.14,0,0,0,600.3,823.09Z" transform="translate(-51.29 -73.73)"/><path class="cls-3" d="M585,899.81A6.14,6.14,0,1,0,591.1,906,6.14,6.14,0,0,0,585,899.81Z" transform="translate(-51.29 -73.73)"/><path class="cls-3" d="M569.61,915.16a6.14,6.14,0,1,0,6.14,6.13A6.12,6.12,0,0,0,569.61,915.16Z" transform="translate(-51.29 -73.73)"/><path class="cls-3" d="M600.3,915.16a6.14,6.14,0,1,0,6.14,6.13A6.13,6.13,0,0,0,600.3,915.16Z" transform="translate(-51.29 -73.73)"/><path class="cls-3" d="M569.61,884.47a6.14,6.14,0,1,0,6.14,6.13A6.12,6.12,0,0,0,569.61,884.47Z" transform="translate(-51.29 -73.73)"/><path class="cls-3" d="M600.3,884.47a6.14,6.14,0,1,0,6.14,6.13A6.13,6.13,0,0,0,600.3,884.47Z" transform="translate(-51.29 -73.73)"/><path class="cls-3" d="M554.27,930.5a6.14,6.14,0,1,0,6.14,6.14A6.14,6.14,0,0,0,554.27,930.5Z" transform="translate(-51.29 -73.73)"/><path class="cls-3" d="M554.27,899.81a6.14,6.14,0,1,0,6.14,6.14A6.14,6.14,0,0,0,554.27,899.81Z" transform="translate(-51.29 -73.73)"/><path class="cls-3" d="M585,961.19a6.14,6.14,0,1,0,6.14,6.14A6.14,6.14,0,0,0,585,961.19Z" transform="translate(-51.29 -73.73)"/><path class="cls-3" d="M569.61,976.53a6.16,6.16,0,0,0-5.65,8.54l11.34-.17a5.92,5.92,0,0,0,.45-2.23A6.14,6.14,0,0,0,569.61,976.53Z" transform="translate(-51.29 -73.73)"/><path class="cls-3" d="M600.3,976.53a6.14,6.14,0,0,0-6.14,6.14,5.8,5.8,0,0,0,.4,2l11.51-.16a6,6,0,0,0,.37-1.8A6.14,6.14,0,0,0,600.3,976.53Z" transform="translate(-51.29 -73.73)"/><path class="cls-3" d="M569.61,945.84a6.14,6.14,0,1,0,6.14,6.14A6.13,6.13,0,0,0,569.61,945.84Z" transform="translate(-51.29 -73.73)"/><path class="cls-3" d="M600.3,945.84a6.14,6.14,0,1,0,6.14,6.14A6.14,6.14,0,0,0,600.3,945.84Z" transform="translate(-51.29 -73.73)"/><path class="cls-3" d="M554.27,961.19a6.14,6.14,0,1,0,6.14,6.14A6.14,6.14,0,0,0,554.27,961.19Z" transform="translate(-51.29 -73.73)"/><path class="cls-3" d="M585,930.5a6.14,6.14,0,1,0,6.14,6.14A6.14,6.14,0,0,0,585,930.5Z" transform="translate(-51.29 -73.73)"/><path class="cls-3" d="M554.27,807.74a6.14,6.14,0,1,0,6.14,6.14A6.14,6.14,0,0,0,554.27,807.74Z" transform="translate(-51.29 -73.73)"/><path class="cls-3" d="M523.58,807.74a6.14,6.14,0,1,0,6.14,6.14A6.13,6.13,0,0,0,523.58,807.74Z" transform="translate(-51.29 -73.73)"/><path class="cls-3" d="M557,777.77c-1.4-.14-2.82-.27-4.19-.42a6.06,6.06,0,0,0-4.68,5.84,6.14,6.14,0,1,0,8.87-5.42Z" transform="translate(-51.29 -73.73)"/><path class="cls-3" d="M523.58,777.05a6.14,6.14,0,1,0,6.14,6.14A6.13,6.13,0,0,0,523.58,777.05Z" transform="translate(-51.29 -73.73)"/><path class="cls-3" d="M508.24,792.4a6.14,6.14,0,1,0,6.14,6.13A6.14,6.14,0,0,0,508.24,792.4Z" transform="translate(-51.29 -73.73)"/><path class="cls-3" d="M538.92,792.4a6.14,6.14,0,1,0,6.14,6.13A6.13,6.13,0,0,0,538.92,792.4Z" transform="translate(-51.29 -73.73)"/><path class="cls-3" d="M502.1,767.85a6.11,6.11,0,0,0,11.65,2.6c-4.06-1-7.89-2-11.58-3C502.16,767.62,502.1,767.72,502.1,767.85Z" transform="translate(-51.29 -73.73)"/><path class="cls-3" d="M492.89,807.74a6.14,6.14,0,1,0,6.14,6.14A6.14,6.14,0,0,0,492.89,807.74Z" transform="translate(-51.29 -73.73)"/><path class="cls-3" d="M554.27,838.43a6.14,6.14,0,1,0,6.14,6.14A6.14,6.14,0,0,0,554.27,838.43Z" transform="translate(-51.29 -73.73)"/><path class="cls-3" d="M523.58,838.43a6.14,6.14,0,1,0,6.14,6.14A6.13,6.13,0,0,0,523.58,838.43Z" transform="translate(-51.29 -73.73)"/><path class="cls-3" d="M508.24,853.78a6.14,6.14,0,1,0,6.14,6.13A6.13,6.13,0,0,0,508.24,853.78Z" transform="translate(-51.29 -73.73)"/><path class="cls-3" d="M538.92,853.78a6.14,6.14,0,1,0,6.14,6.13A6.12,6.12,0,0,0,538.92,853.78Z" transform="translate(-51.29 -73.73)"/><path class="cls-3" d="M508.24,823.09a6.14,6.14,0,1,0,6.14,6.13A6.14,6.14,0,0,0,508.24,823.09Z" transform="translate(-51.29 -73.73)"/><path class="cls-3" d="M538.92,823.09a6.14,6.14,0,1,0,6.14,6.13A6.13,6.13,0,0,0,538.92,823.09Z" transform="translate(-51.29 -73.73)"/><path class="cls-3" d="M492.89,869.12a6.14,6.14,0,1,0,6.14,6.14A6.14,6.14,0,0,0,492.89,869.12Z" transform="translate(-51.29 -73.73)"/><path class="cls-3" d="M492.89,838.43a6.14,6.14,0,1,0,6.14,6.14A6.14,6.14,0,0,0,492.89,838.43Z" transform="translate(-51.29 -73.73)"/><path class="cls-3" d="M523.58,899.81a6.14,6.14,0,1,0,6.14,6.14A6.13,6.13,0,0,0,523.58,899.81Z" transform="translate(-51.29 -73.73)"/><path class="cls-3" d="M508.24,915.16a6.14,6.14,0,1,0,6.14,6.13A6.13,6.13,0,0,0,508.24,915.16Z" transform="translate(-51.29 -73.73)"/><path class="cls-3" d="M538.92,915.16a6.14,6.14,0,1,0,6.14,6.13A6.12,6.12,0,0,0,538.92,915.16Z" transform="translate(-51.29 -73.73)"/><path class="cls-3" d="M508.24,884.47a6.14,6.14,0,1,0,6.14,6.13A6.13,6.13,0,0,0,508.24,884.47Z" transform="translate(-51.29 -73.73)"/><path class="cls-3" d="M538.92,884.47a6.14,6.14,0,1,0,6.14,6.13A6.12,6.12,0,0,0,538.92,884.47Z" transform="translate(-51.29 -73.73)"/><path class="cls-3" d="M492.89,899.81A6.14,6.14,0,1,0,499,906,6.14,6.14,0,0,0,492.89,899.81Z" transform="translate(-51.29 -73.73)"/><path class="cls-3" d="M554.27,869.12a6.14,6.14,0,1,0,6.14,6.14A6.14,6.14,0,0,0,554.27,869.12Z" transform="translate(-51.29 -73.73)"/><path class="cls-3" d="M523.58,869.12a6.14,6.14,0,1,0,6.14,6.14A6.13,6.13,0,0,0,523.58,869.12Z" transform="translate(-51.29 -73.73)"/><path class="cls-3" d="M523.58,961.19a6.14,6.14,0,1,0,6.14,6.14A6.13,6.13,0,0,0,523.58,961.19Z" transform="translate(-51.29 -73.73)"/><path class="cls-3" d="M508.24,976.53a6.14,6.14,0,0,0-6.14,6.14,6,6,0,0,0,1.07,3.26l10.24-.15a6,6,0,0,0,1-3.11A6.14,6.14,0,0,0,508.24,976.53Z" transform="translate(-51.29 -73.73)"/><path class="cls-3" d="M538.92,976.53a6.13,6.13,0,0,0-6.13,6.14,6,6,0,0,0,.77,2.83l10.83-.16a6,6,0,0,0,.67-2.67A6.14,6.14,0,0,0,538.92,976.53Z" transform="translate(-51.29 -73.73)"/><path class="cls-3" d="M508.24,945.84a6.14,6.14,0,1,0,6.14,6.14A6.14,6.14,0,0,0,508.24,945.84Z" transform="translate(-51.29 -73.73)"/><path class="cls-3" d="M538.92,945.84a6.14,6.14,0,1,0,6.14,6.14A6.13,6.13,0,0,0,538.92,945.84Z" transform="translate(-51.29 -73.73)"/><path class="cls-3" d="M492.89,961.19a6.14,6.14,0,1,0,6.14,6.14A6.14,6.14,0,0,0,492.89,961.19Z" transform="translate(-51.29 -73.73)"/><path class="cls-3" d="M523.58,930.5a6.14,6.14,0,1,0,6.14,6.14A6.13,6.13,0,0,0,523.58,930.5Z" transform="translate(-51.29 -73.73)"/><path class="cls-3" d="M462.21,807.74a6.14,6.14,0,1,0,6.13,6.14A6.14,6.14,0,0,0,462.21,807.74Z" transform="translate(-51.29 -73.73)"/><path class="cls-3" d="M492.89,777.05a6.14,6.14,0,1,0,6.14,6.14A6.14,6.14,0,0,0,492.89,777.05Z" transform="translate(-51.29 -73.73)"/><path class="cls-3" d="M462.21,777.05a6.14,6.14,0,1,0,6.13,6.14A6.14,6.14,0,0,0,462.21,777.05Z" transform="translate(-51.29 -73.73)"/><path class="cls-3" d="M446.86,792.4a6.14,6.14,0,1,0,6.14,6.13A6.13,6.13,0,0,0,446.86,792.4Z" transform="translate(-51.29 -73.73)"/><path class="cls-3" d="M477.55,792.4a6.14,6.14,0,1,0,6.13,6.13A6.14,6.14,0,0,0,477.55,792.4Z" transform="translate(-51.29 -73.73)"/><path class="cls-3" d="M446.86,761.71a6.14,6.14,0,1,0,6.14,6.14A6.13,6.13,0,0,0,446.86,761.71Z" transform="translate(-51.29 -73.73)"/><path class="cls-3" d="M477.55,761.71a6.14,6.14,0,1,0,6.13,6.14A6.14,6.14,0,0,0,477.55,761.71Z" transform="translate(-51.29 -73.73)"/><path class="cls-3" d="M462.21,758.64a6,6,0,0,0,3.76-1.41,41.26,41.26,0,0,0-8.69-1.26A6,6,0,0,0,462.21,758.64Z" transform="translate(-51.29 -73.73)"/><path class="cls-3" d="M462.21,838.43a6.14,6.14,0,1,0,6.13,6.14A6.14,6.14,0,0,0,462.21,838.43Z" transform="translate(-51.29 -73.73)"/><path class="cls-3" d="M446.86,853.78a6.14,6.14,0,1,0,6.14,6.13A6.12,6.12,0,0,0,446.86,853.78Z" transform="translate(-51.29 -73.73)"/><path class="cls-3" d="M477.55,853.78a6.14,6.14,0,1,0,6.13,6.13A6.13,6.13,0,0,0,477.55,853.78Z" transform="translate(-51.29 -73.73)"/><path class="cls-3" d="M446.86,823.09a6.14,6.14,0,1,0,6.14,6.13A6.13,6.13,0,0,0,446.86,823.09Z" transform="translate(-51.29 -73.73)"/><path class="cls-3" d="M477.55,823.09a6.14,6.14,0,1,0,6.13,6.13A6.14,6.14,0,0,0,477.55,823.09Z" transform="translate(-51.29 -73.73)"/><path class="cls-3" d="M462.21,899.81a6.14,6.14,0,1,0,6.13,6.14A6.14,6.14,0,0,0,462.21,899.81Z" transform="translate(-51.29 -73.73)"/><path class="cls-3" d="M446.86,915.16a6.14,6.14,0,1,0,6.14,6.13A6.12,6.12,0,0,0,446.86,915.16Z" transform="translate(-51.29 -73.73)"/><path class="cls-3" d="M477.55,915.16a6.14,6.14,0,1,0,6.13,6.13A6.13,6.13,0,0,0,477.55,915.16Z" transform="translate(-51.29 -73.73)"/><path class="cls-3" d="M446.86,884.47A6.14,6.14,0,1,0,453,890.6,6.12,6.12,0,0,0,446.86,884.47Z" transform="translate(-51.29 -73.73)"/><path class="cls-3" d="M477.55,884.47a6.14,6.14,0,1,0,6.13,6.13A6.13,6.13,0,0,0,477.55,884.47Z" transform="translate(-51.29 -73.73)"/><path class="cls-3" d="M462.21,869.12a6.14,6.14,0,1,0,6.13,6.14A6.14,6.14,0,0,0,462.21,869.12Z" transform="translate(-51.29 -73.73)"/><path class="cls-3" d="M462.21,961.19a6.14,6.14,0,1,0,6.13,6.14A6.14,6.14,0,0,0,462.21,961.19Z" transform="translate(-51.29 -73.73)"/><path class="cls-3" d="M446.86,976.53a6.1,6.1,0,0,0-4.49,10.26l9.07-.13a6.06,6.06,0,0,0,1.56-4A6.14,6.14,0,0,0,446.86,976.53Z" transform="translate(-51.29 -73.73)"/><path class="cls-3" d="M477.55,976.53a6.14,6.14,0,0,0-6.14,6.14,6,6,0,0,0,1.36,3.69l9.65-.14a6,6,0,0,0,1.26-3.55A6.13,6.13,0,0,0,477.55,976.53Z" transform="translate(-51.29 -73.73)"/><path class="cls-3" d="M446.86,945.84A6.14,6.14,0,1,0,453,952,6.13,6.13,0,0,0,446.86,945.84Z" transform="translate(-51.29 -73.73)"/><path class="cls-3" d="M477.55,945.84a6.14,6.14,0,1,0,6.13,6.14A6.14,6.14,0,0,0,477.55,945.84Z" transform="translate(-51.29 -73.73)"/><path class="cls-3" d="M431.52,961.19a6.14,6.14,0,1,0,6.14,6.14A6.14,6.14,0,0,0,431.52,961.19Z" transform="translate(-51.29 -73.73)"/><path class="cls-3" d="M492.89,930.5a6.14,6.14,0,1,0,6.14,6.14A6.14,6.14,0,0,0,492.89,930.5Z" transform="translate(-51.29 -73.73)"/><path class="cls-3" d="M462.21,930.5a6.14,6.14,0,1,0,6.13,6.14A6.14,6.14,0,0,0,462.21,930.5Z" transform="translate(-51.29 -73.73)"/><path class="cls-3" d="M431.52,777.05a6.14,6.14,0,0,0-2.28.46c-1.29,1.83-2.57,3.74-3.84,5.76a6.13,6.13,0,1,0,6.12-6.22Z" transform="translate(-51.29 -73.73)"/><path class="cls-3" d="M419.43,793.46c-1.88,3.42-3.75,7-5.59,10.74a6.06,6.06,0,0,0,2.33.47,6.14,6.14,0,0,0,6.14-6.14A6,6,0,0,0,419.43,793.46Z" transform="translate(-51.29 -73.73)"/><path class="cls-3" d="M431.52,838.43a6.14,6.14,0,1,0,6.14,6.14A6.14,6.14,0,0,0,431.52,838.43Z" transform="translate(-51.29 -73.73)"/><path class="cls-3" d="M400.83,838.43a5.84,5.84,0,0,0-1.61.33q-1.7,4.56-3.33,9.26a6,6,0,0,0,4.94,2.69,6.14,6.14,0,0,0,0-12.28Z" transform="translate(-51.29 -73.73)"/><path class="cls-3" d="M391.12,862.34c0-.05,0-.1.05-.14S391.14,862.29,391.12,862.34Z" transform="translate(-51.29 -73.73)"/><path class="cls-3" d="M416.17,853.78a6.14,6.14,0,1,0,6.14,6.13A6.13,6.13,0,0,0,416.17,853.78Z" transform="translate(-51.29 -73.73)"/><path class="cls-3" d="M416.17,823.09a6.14,6.14,0,1,0,6.14,6.13A6.14,6.14,0,0,0,416.17,823.09Z" transform="translate(-51.29 -73.73)"/><path class="cls-3" d="M431.52,807.74a6.14,6.14,0,1,0,6.14,6.14A6.14,6.14,0,0,0,431.52,807.74Z" transform="translate(-51.29 -73.73)"/><path class="cls-3" d="M431.52,899.81a6.14,6.14,0,1,0,6.14,6.14A6.14,6.14,0,0,0,431.52,899.81Z" transform="translate(-51.29 -73.73)"/><path class="cls-3" d="M400.83,899.81A6.14,6.14,0,1,0,407,906,6.14,6.14,0,0,0,400.83,899.81Z" transform="translate(-51.29 -73.73)"/><path class="cls-3" d="M385.49,915.16a6.14,6.14,0,1,0,6.14,6.13A6.13,6.13,0,0,0,385.49,915.16Z" transform="translate(-51.29 -73.73)"/><path class="cls-3" d="M416.17,915.16a6.14,6.14,0,1,0,6.14,6.13A6.13,6.13,0,0,0,416.17,915.16Z" transform="translate(-51.29 -73.73)"/><path class="cls-3" d="M385.49,884.47a5.43,5.43,0,0,0-.91.18q-1.45,5.36-2.81,10.71a6,6,0,0,0,3.72,1.38,6.14,6.14,0,1,0,0-12.27Z" transform="translate(-51.29 -73.73)"/><path class="cls-3" d="M416.17,884.47a6.14,6.14,0,1,0,6.14,6.13A6.13,6.13,0,0,0,416.17,884.47Z" transform="translate(-51.29 -73.73)"/><path class="cls-3" d="M431.52,869.12a6.14,6.14,0,1,0,6.14,6.14A6.14,6.14,0,0,0,431.52,869.12Z" transform="translate(-51.29 -73.73)"/><path class="cls-3" d="M400.83,869.12a6.14,6.14,0,1,0,6.14,6.14A6.14,6.14,0,0,0,400.83,869.12Z" transform="translate(-51.29 -73.73)"/><path class="cls-3" d="M400.83,961.19a6.14,6.14,0,1,0,6.14,6.14A6.14,6.14,0,0,0,400.83,961.19Z" transform="translate(-51.29 -73.73)"/><path class="cls-3" d="M385.49,976.53a6.14,6.14,0,0,0-6.14,6.14,6,6,0,0,0,2.73,5l7-.1a6,6,0,0,0,2.59-4.87A6.14,6.14,0,0,0,385.49,976.53Z" transform="translate(-51.29 -73.73)"/><path class="cls-3" d="M416.17,976.53a6.14,6.14,0,0,0-6.14,6.14,6.07,6.07,0,0,0,2.11,4.55l8.24-.12a6.11,6.11,0,0,0-4.21-10.57Z" transform="translate(-51.29 -73.73)"/><path class="cls-3" d="M385.49,945.84a6.14,6.14,0,1,0,6.14,6.14A6.14,6.14,0,0,0,385.49,945.84Z" transform="translate(-51.29 -73.73)"/><path class="cls-3" d="M416.17,945.84a6.14,6.14,0,1,0,6.14,6.14A6.14,6.14,0,0,0,416.17,945.84Z" transform="translate(-51.29 -73.73)"/><path class="cls-3" d="M431.52,930.5a6.14,6.14,0,1,0,6.14,6.14A6.14,6.14,0,0,0,431.52,930.5Z" transform="translate(-51.29 -73.73)"/><path class="cls-3" d="M400.83,930.5a6.14,6.14,0,1,0,6.14,6.14A6.14,6.14,0,0,0,400.83,930.5Z" transform="translate(-51.29 -73.73)"/><path class="cls-3" d="M373.89,931.9q-.94,5.28-1.74,10.47a6.09,6.09,0,0,0,4.13-5.73A6,6,0,0,0,373.89,931.9Z" transform="translate(-51.29 -73.73)"/><path class="cls-3" d="M370.14,961.19c-.16,0-.3.08-.46.09-.43,4.05-.78,8-1,11.89a6.09,6.09,0,1,0,1.49-12Z" transform="translate(-51.29 -73.73)"/><path class="cls-2" d="M591.29,773.8c-47.17.8-83.19-10-107-17.1-14.28-4.28-23.72-7.12-30.33-6C410,758.1,363,910.21,362.66,987.82a5.44,5.44,0,0,0,5.41,5.46h0a5.44,5.44,0,0,0,5.43-5.42c.35-83.51,50.3-221.06,82.22-226.43,4.12-.67,14,2.26,25.41,5.68,24.46,7.33,61.41,18.37,110.32,17.56a5.43,5.43,0,0,0,5.34-5.53A5.52,5.52,0,0,0,591.29,773.8Z" transform="translate(-51.29 -73.73)"/><path class="cls-2" d="M611.91,777.08a5.44,5.44,0,0,0-10.18,3.82c1.83,4.86,44.89,119.9,57.88,203.57a5.43,5.43,0,0,0,5.36,4.6,5.93,5.93,0,0,0,.84-.06,5.44,5.44,0,0,0,4.54-6.21C657.19,898,613.75,782,611.91,777.08Z" transform="translate(-51.29 -73.73)"/><path class="cls-2" d="M564.58,366.07a5.44,5.44,0,0,0-6.31,4.4c-.16.85-15.73,85.68-54.29,121.68a5.44,5.44,0,0,0,7.42,8C552.62,461.62,568.32,376,569,372.38A5.44,5.44,0,0,0,564.58,366.07Z" transform="translate(-51.29 -73.73)"/><path class="cls-2" d="M460.51,652.48a5.43,5.43,0,0,0-4.19,6.45c6.33,29.84,8.94,51.94,4.57,83.15a5.43,5.43,0,0,0,4.64,6.13,4.77,4.77,0,0,0,.76.06,5.44,5.44,0,0,0,5.37-4.69c4.58-32.8,1.88-55.85-4.71-86.91A5.42,5.42,0,0,0,460.51,652.48Z" transform="translate(-51.29 -73.73)"/><path class="cls-2" d="M638.49,457.87a5.44,5.44,0,0,0,.79,10.85c10.7-.76,15.75,4.45,16.06,4.79a5.4,5.4,0,0,0,4.09,1.86,5.43,5.43,0,0,0,4.13-9C663.22,466,655,456.67,638.49,457.87Z" transform="translate(-51.29 -73.73)"/><path class="cls-1" d="M768.44,79.17c-97.18,0-142.1,33.83-142.1,75.55,0,23.2,13.93,43.93,43,57.79-2.95,15.21-18.95,24-18.95,24s23.37-1.2,35.07-17.63c21.52,7.18,49,11.4,83,11.4,97.18,0,145.56-33.83,145.56-75.56S865.62,79.17,768.44,79.17Z" transform="translate(-51.29 -73.73)"/><path class="cls-2" d="M768.44,73.73c-71.32,0-147.54,21.28-147.54,81,0,25,14.84,46.38,41.92,60.61-4.07,10.18-15,16.34-15.09,16.4A5.44,5.44,0,0,0,650.35,242h.28c1-.05,23.18-1.36,36.7-16.74,22.56,7,49.82,10.51,81.11,10.51,111.33,0,151-41.83,151-81S879.77,73.73,768.44,73.73Zm0,151.11c-31.82,0-59.18-3.74-81.3-11.12a5.43,5.43,0,0,0-6.15,2,32.34,32.34,0,0,1-11.1,9.53,34,34,0,0,0,4.74-11.72,5.44,5.44,0,0,0-3-5.94c-26.08-12.45-39.86-30.74-39.86-52.87,0-43.25,52.36-70.12,136.66-70.12,85.12,0,140.12,27.52,140.12,70.12S853.56,224.84,768.44,224.84Z" transform="translate(-51.29 -73.73)"/><path class="cls-1" d="M1556.06,180c-97.18,0-142.1,33.83-142.1,75.56,0,23.19,13.93,43.92,43,57.78-3,15.21-19,24-19,24s23.37-1.19,35.06-17.63c21.53,7.18,49,11.4,83,11.4,97.18,0,145.55-33.83,145.55-75.55S1653.24,180,1556.06,180Z" transform="translate(-51.29 -73.73)"/><path class="cls-2" d="M1556.06,174.59c-71.33,0-147.54,21.27-147.54,81,0,25,14.84,46.39,41.92,60.62-4.07,10.17-15,16.35-15.08,16.41a5.43,5.43,0,0,0,2.61,10.2h.28c1-.05,23.18-1.37,36.7-16.73,22.54,7,49.8,10.5,81.11,10.5,111.32,0,151-41.83,151-81S1667.38,174.59,1556.06,174.59Zm0,151.1c-31.84,0-59.19-3.74-81.3-11.11a5.44,5.44,0,0,0-6.16,2,32.41,32.41,0,0,1-11.09,9.53,34.2,34.2,0,0,0,4.75-11.72,5.45,5.45,0,0,0-3-5.94c-26.08-12.45-39.87-30.73-39.87-52.88,0-43.24,52.37-70.11,136.67-70.11,85.12,0,140.12,27.52,140.12,70.11S1641.18,325.69,1556.06,325.69Z" transform="translate(-51.29 -73.73)"/><path class="cls-1" d="M978,175.31c-97.18,0-145.55,33.82-145.55,75.55S880.82,326.41,978,326.41c34,0,61.5-4.22,83-11.4,11.69,16.44,35.06,17.63,35.06,17.63s-16-8.78-18.95-24c29-13.86,43-34.59,43-57.78C1120.1,209.13,1075.18,175.31,978,175.31Z" transform="translate(-51.29 -73.73)"/><path class="cls-2" d="M978,169.87c-111.32,0-151,41.84-151,81s39.67,81,151,81c31.29,0,58.55-3.54,81.11-10.51,13.52,15.36,35.7,16.68,36.7,16.73h.28a5.44,5.44,0,0,0,2.63-10.19c-.13-.07-11-6.24-15.1-16.42,27.08-14.23,41.92-35.62,41.92-60.61C1125.54,191.15,1049.33,169.87,978,169.87Zm96.8,133.87a5.44,5.44,0,0,0-3,5.94,34,34,0,0,0,4.74,11.71,32.31,32.31,0,0,1-11.09-9.53,5.44,5.44,0,0,0-4.43-2.28,5.34,5.34,0,0,0-1.72.28C1037.18,317.23,1009.82,321,978,321c-85.12,0-140.12-27.52-140.12-70.11s55-70.12,140.12-70.12c84.3,0,136.67,26.87,136.67,70.12C1114.67,273,1100.88,291.28,1074.8,303.74Z" transform="translate(-51.29 -73.73)"/><path class="cls-1" d="M202.28,199C105.1,199,56.72,232.8,56.72,274.52s48.38,75.56,145.56,75.56c34,0,61.5-4.22,83-11.4,11.7,16.43,35.07,17.63,35.07,17.63s-16-8.79-18.95-24c29-13.86,43-34.59,43-57.79C344.38,232.8,299.46,199,202.28,199Z" transform="translate(-51.29 -73.73)"/><path class="cls-2" d="M202.28,193.53c-111.33,0-151,41.84-151,81s39.66,81,151,81c31.3,0,58.56-3.53,81.11-10.51,13.52,15.38,35.7,16.69,36.7,16.74h.28a5.44,5.44,0,0,0,2.63-10.2c-.13-.07-11-6.23-15.1-16.41,27.08-14.23,41.92-35.62,41.92-60.62C349.82,214.81,273.6,193.53,202.28,193.53Zm96.8,133.87a5.44,5.44,0,0,0-3,5.94,34,34,0,0,0,4.77,11.76,32.52,32.52,0,0,1-11.13-9.57,5.43,5.43,0,0,0-6.15-2c-22.11,7.38-49.47,11.12-81.3,11.12-85.12,0-140.12-27.53-140.12-70.12s55-70.11,140.12-70.11c84.3,0,136.66,26.87,136.66,70.11C338.94,296.66,325.16,315,299.08,327.4Z" transform="translate(-51.29 -73.73)"/></svg>